<?xml version="1.0" encoding="UTF-8" standalone="no"?>
<svg
   viewBox="0 0 16 16"
   version="1.1"
   id="svg2"
   sodipodi:docname="notify-edit-tmp2.svg"
   inkscape:version="1.4 (86a8ad7, 2024-10-11)"
   xmlns:inkscape="http://www.inkscape.org/namespaces/inkscape"
   xmlns:sodipodi="http://sodipodi.sourceforge.net/DTD/sodipodi-0.dtd"
   xmlns="http://www.w3.org/2000/svg"
   xmlns:svg="http://www.w3.org/2000/svg">
  <sodipodi:namedview
     id="namedview2"
     pagecolor="#ffffff"
     bordercolor="#000000"
     borderopacity="0.25"
     inkscape:showpageshadow="2"
     inkscape:pageopacity="0.0"
     inkscape:pagecheckerboard="0"
     inkscape:deskcolor="#d1d1d1"
     inkscape:zoom="64"
     inkscape:cx="12.851562"
     inkscape:cy="8.3203125"
     inkscape:window-width="3840"
     inkscape:window-height="2054"
     inkscape:window-x="3829"
     inkscape:window-y="-11"
     inkscape:window-maximized="1"
     inkscape:current-layer="svg2" />
  <defs
     id="defs2">
    <linearGradient
       id="grad"
       gradientUnits="userSpaceOnUse"
       x1="8"
       y1="0"
       x2="8"
       y2="16">
      <stop
         offset="0"
         style="stop-color:#26B6DB"
         id="stop1" />
      <stop
         offset="1"
         style="stop-color:#0882C8"
         id="stop2" />
    </linearGradient>
    <mask
       id="bitemask"
       maskUnits="userSpaceOnUse">
      <g
         id="g2">
        <rect
           id="mask-bg"
           x="0"
           y="0"
           width="16"
           height="16"
           style="fill:#ffffff" />
        <circle
           id="mask-subtract"
           cx="11.5"
           cy="11.5"
           r="5.5"
           style="fill:#000000" />
      </g>
    </mask>
    <linearGradient
       id="gradient_0"
       gradientUnits="userSpaceOnUse"
       x1="488.62427"
       y1="857.04407"
       x2="534.77094"
       y2="167.98694"
       gradientTransform="matrix(0.02049423,0,0,0.02038145,-2.4909922,-2.4453134)">
      <stop
         offset="0"
         stop-color="#3DAADA"
         id="stop10" />
      <stop
         offset="1"
         stop-color="#5BCCE8"
         id="stop11" />
    </linearGradient>
    <linearGradient
       id="gradient_1"
       gradientUnits="userSpaceOnUse"
       x1="403.08145"
       y1="534.10596"
       x2="711.38446"
       y2="323.75085"
       gradientTransform="matrix(0.02049423,0,0,0.02038145,-2.4909922,-2.4453134)">
      <stop
         offset="0"
         stop-color="#CFCFCE"
         id="stop12" />
      <stop
         offset="1"
         stop-color="white"
         id="stop13" />
    </linearGradient>
    <linearGradient
       id="gradient_2"
       gradientUnits="userSpaceOnUse"
       x1="507.33875"
       y1="641.74823"
       x2="689.13544"
       y2="480.21893"
       gradientTransform="matrix(1.77246,0,0,1.77246,-888.7042,-903.24483)">
      <stop
         offset="0"
         stop-color="#C5CBCF"
         id="stop18" />
      <stop
         offset="1"
         stop-color="#F6F3F0"
         id="stop19" />
    </linearGradient>
    <linearGradient
       id="gradient_3"
       gradientUnits="userSpaceOnUse"
       x1="538.57715"
       y1="701.51587"
       x2="782.89349"
       y2="603.04736"
       gradientTransform="matrix(1.77246,0,0,1.77246,-888.7042,-903.24483)">
      <stop
         offset="0"
         stop-color="#CCCBCC"
         id="stop21" />
      <stop
         offset="1"
         stop-color="#F1F1EF"
         id="stop22" />
    </linearGradient>
  </defs>
  <path
     id="path10"
     style="stroke-width:0.0204378;fill:#2c4268;fill-opacity:1"
     d="M 7.9355469 0.0078125 C 7.8538975 0.0068367342 7.7732028 0.0079701725 7.6894531 0.013671875 C 7.6867231 0.013855855 7.6823975 0.013325755 7.6796875 0.013671875 C 7.5041545 0.041370225 7.328758 0.049139665 7.1523438 0.068359375 C 6.8144348 0.10520905 6.4698381 0.15505389 6.1386719 0.23242188 C 5.6107816 0.35575006 4.9659156 0.59130604 4.4804688 0.83203125 C 4.2724524 0.9351614 4.0762594 1.0555341 3.8769531 1.1738281 C 3.6427655 1.3128092 3.4083173 1.458161 3.1914062 1.6230469 C 3.0153199 1.7568918 2.8531753 1.9138821 2.6875 2.0605469 C 2.5603538 2.1731137 2.4284583 2.280062 2.3066406 2.3984375 C 2.077884 2.6207175 1.8334675 2.9142739 1.6445312 3.171875 C 1.3285103 3.6027999 1.0237296 4.0620109 0.78515625 4.5410156 C 0.0191845 6.0788773 -0.14335762 7.8256337 0.12304688 9.5058594 C 0.18051259 9.8682618 0.29674534 10.221273 0.41796875 10.566406 C 0.43477408 10.615291 0.45100207 10.664311 0.46875 10.712891 C 0.486498 10.761455 0.50476043 10.811168 0.5234375 10.859375 C 0.5421283 10.9076 0.56242512 10.954113 0.58203125 11.001953 C 0.60165098 11.04981 0.62204286 11.097071 0.64257812 11.144531 C 0.66311333 11.191994 0.68362746 11.240043 0.70507812 11.287109 C 0.72652872 11.334163 0.74913204 11.381088 0.77148438 11.427734 C 0.79383678 11.474379 0.81658968 11.520193 0.83984375 11.566406 C 0.86309788 11.612607 0.88600038 11.659318 0.91015625 11.705078 C 0.93429845 11.750828 0.9593584 11.796524 0.984375 11.841797 C 1.0094057 11.887083 1.0346562 11.931762 1.0605469 11.976562 C 1.0864515 12.021364 1.1119199 12.067035 1.1386719 12.111328 C 1.1654372 12.155609 1.1930905 12.198407 1.2207031 12.242188 C 1.2483158 12.285956 1.2762415 12.329814 1.3046875 12.373047 C 1.3331475 12.416282 1.3613457 12.459273 1.390625 12.501953 C 1.4199043 12.544647 1.4503561 12.5868 1.4804688 12.628906 C 1.5105681 12.671032 1.541347 12.712386 1.5722656 12.753906 C 1.603171 12.79543 1.6343043 12.837966 1.6660156 12.878906 C 1.697727 12.919833 1.7292147 12.959687 1.7617188 13 C 1.7942228 13.04033 1.8280595 13.079467 1.8613281 13.119141 C 1.8945972 13.158828 1.9269035 13.199228 1.9609375 13.238281 C 1.9949718 13.277317 2.0296678 13.315129 2.0644531 13.353516 C 2.0992249 13.3919 2.1343985 13.431043 2.1699219 13.46875 C 2.205445 13.506469 2.2411098 13.543051 2.2773438 13.580078 C 2.3135915 13.617104 2.3517279 13.655086 2.3886719 13.691406 C 2.4256299 13.727739 2.4623453 13.763228 2.5 13.798828 C 2.5376412 13.834441 2.5749573 13.869404 2.6132812 13.904297 C 2.6516195 13.939176 2.6914754 13.973666 2.7304688 14.007812 C 2.7694626 14.041957 2.8080069 14.075988 2.8476562 14.109375 C 2.8873194 14.142768 2.9265189 14.176358 2.9667969 14.208984 C 3.0070886 14.241611 3.0489238 14.272841 3.0898438 14.304688 C 3.1307502 14.336541 3.1713693 14.367377 3.2128906 14.398438 C 3.2544118 14.429497 3.295768 14.459974 3.3378906 14.490234 C 3.39634 14.531282 3.4561097 14.571801 3.515625 14.611328 C 3.5751399 14.650844 3.6347858 14.690556 3.6953125 14.728516 C 3.7558385 14.766467 3.8174096 14.80347 3.8789062 14.839844 C 3.9404159 14.876222 4.0020138 14.912499 4.0644531 14.947266 C 4.1268921 14.982023 4.1905789 15.015701 4.2539062 15.048828 C 4.3172334 15.081968 4.3811245 15.113065 4.4453125 15.144531 C 4.5094864 15.175998 4.5736912 15.206528 4.6386719 15.236328 C 4.7036661 15.266128 4.768239 15.296119 4.8339844 15.324219 C 4.8997165 15.352319 4.9667338 15.379877 5.0332031 15.40625 C 5.099659 15.432623 5.1652964 15.457775 5.2324219 15.482422 C 5.299561 15.507069 5.367793 15.529841 5.4355469 15.552734 C 5.5033008 15.575634 5.5703441 15.598027 5.6386719 15.619141 C 5.7070133 15.640274 5.7768425 15.660354 5.8457031 15.679688 C 5.9145637 15.699041 5.983382 15.718788 6.0527344 15.736328 C 6.1220732 15.753888 6.1919291 15.769423 6.2617188 15.785156 C 6.3315084 15.80089 6.4005309 15.816151 6.4707031 15.830078 C 6.7418828 15.883051 7.0184691 15.915612 7.2929688 15.945312 C 7.3664815 15.953252 7.4399949 15.972316 7.5136719 15.978516 C 7.7094531 15.995024 8.1158297 15.996829 8.3554688 15.976562 A 5.5049586 5.5049586 0 0 1 7.2949219 15.019531 C 7.2824377 15.018198 7.2702898 15.01702 7.2578125 15.015625 C 7.1993904 15.009065 7.1402759 15.002147 7.0820312 14.994141 C 7.0237867 14.986147 6.9662291 14.978177 6.9082031 14.96875 C 6.8501634 14.95933 6.792155 14.948327 6.734375 14.9375 C 6.6765952 14.926653 6.6180402 14.914584 6.5605469 14.902344 C 6.5030538 14.890097 6.4458372 14.878888 6.3886719 14.865234 C 6.3314929 14.851574 6.27556 14.837306 6.21875 14.822266 C 6.1619263 14.807226 6.1052555 14.789878 6.0488281 14.773438 C 5.9924007 14.757011 5.9349102 14.74047 5.8789062 14.722656 C 5.8229021 14.704856 5.7684433 14.687142 5.7128906 14.667969 C 5.6573514 14.648802 5.6019363 14.627955 5.546875 14.607422 C 5.4918271 14.586902 5.4353874 14.566795 5.3808594 14.544922 C 5.3263174 14.523055 5.272718 14.499756 5.21875 14.476562 C 5.1647815 14.453369 5.1119878 14.42881 5.0585938 14.404297 C 5.005213 14.379784 4.9511895 14.355878 4.8984375 14.330078 C 4.8456716 14.304265 4.7942975 14.277093 4.7421875 14.25 C 4.690091 14.222907 4.6373642 14.196329 4.5859375 14.167969 C 4.5345243 14.139609 4.4842964 14.109685 4.4335938 14.080078 C 4.3828908 14.050465 4.3312147 14.021074 4.28125 13.990234 C 4.2312989 13.959401 4.1819852 13.926585 4.1328125 13.894531 C 4.0836403 13.862465 4.0346948 13.830108 3.9863281 13.796875 C 3.9379481 13.763628 3.8912693 13.729732 3.84375 13.695312 C 3.7962169 13.660883 3.7478439 13.625417 3.7011719 13.589844 C 3.6545135 13.554271 3.6082707 13.519122 3.5625 13.482422 C 3.5167293 13.445707 3.472589 13.408907 3.4277344 13.371094 C 3.382893 13.333278 3.3388205 13.294759 3.2949219 13.255859 C 3.2510234 13.216957 3.2069912 13.176679 3.1640625 13.136719 C 3.1211477 13.096757 3.0790407 13.056618 3.0371094 13.015625 C 2.9951916 12.974618 2.953002 12.932638 2.9121094 12.890625 C 2.8712164 12.848614 2.8308563 12.806679 2.7910156 12.763672 C 2.7521992 12.72205 2.7135586 12.679259 2.6757812 12.636719 C 2.6380033 12.594176 2.6011785 12.551266 2.5644531 12.507812 C 2.5277272 12.46437 2.4926773 12.421286 2.4570312 12.376953 C 2.421385 12.332631 2.3861158 12.287367 2.3515625 12.242188 C 2.3170226 12.197008 2.2814795 12.151475 2.2480469 12.105469 C 2.2146142 12.059458 2.182676 12.013604 2.1503906 11.966797 C 2.1181053 11.920004 2.0858248 11.871792 2.0546875 11.824219 C 2.0235635 11.776637 1.9928393 11.729961 1.9628906 11.681641 C 1.932928 11.633339 1.9037467 11.584196 1.875 11.535156 C 1.8462393 11.486129 1.8185596 11.436432 1.7910156 11.386719 C 1.7634716 11.336999 1.7372522 11.286681 1.7109375 11.236328 C 1.6846228 11.185957 1.6578838 11.134978 1.6328125 11.083984 C 1.6077412 11.032991 1.5843609 10.983221 1.5605469 10.931641 C 1.5367329 10.88006 1.5127784 10.827537 1.4902344 10.775391 C 1.4677044 10.723242 1.4450875 10.669867 1.4238281 10.617188 C 1.4025828 10.564506 1.3832293 10.512164 1.3632812 10.458984 C 1.3433199 10.405805 1.3233235 10.352475 1.3046875 10.298828 C 1.2860515 10.245185 1.2692778 10.190812 1.2519531 10.136719 C 1.2346425 10.08264 1.2171572 10.029095 1.2011719 9.9746094 C 1.1851859 9.9201092 1.1689295 9.8654002 1.1542969 9.8105469 C 1.1396502 9.7556799 1.1265752 9.6997239 1.1132812 9.6445312 C 1.1000006 9.5893246 1.0880992 9.534021 1.0761719 9.4785156 C 1.0642305 9.4230098 1.051577 9.3682773 1.0410156 9.3125 C 1.0304543 9.256723 1.0209141 9.2005532 1.0117188 9.1445312 C 1.0025374 9.0885099 0.99414326 9.0327885 0.98632812 8.9765625 C 0.97851319 8.9203366 0.97127908 8.8630426 0.96484375 8.8066406 C 0.95842195 8.7502519 0.95230696 8.6952099 0.94726562 8.6386719 C 0.94222376 8.5821335 0.93920821 8.5253967 0.93554688 8.46875 C 0.93189887 8.4121031 0.92804925 8.3555428 0.92578125 8.2988281 C 0.92352725 8.2421132 0.92274967 8.1856616 0.921875 8.1289062 C 0.92101397 8.0721505 0.91940233 8.0137866 0.91992188 7.9570312 C 0.92045454 7.900276 0.92191546 7.843838 0.92382812 7.7871094 C 0.92578146 7.7296067 0.92827929 7.672683 0.93164062 7.6152344 C 0.93500169 7.5577994 0.9405305 7.5007127 0.9453125 7.4433594 C 0.95009437 7.3860196 0.95474817 7.3286884 0.9609375 7.2714844 C 0.96712683 7.2142666 0.97482534 7.15665 0.98242188 7.0996094 C 0.99001834 7.0425688 0.99685551 6.9865248 1.0058594 6.9296875 C 1.0148494 6.8728504 1.0247589 6.8144185 1.0351562 6.7578125 C 1.0455542 6.7012063 1.0565687 6.6461644 1.0683594 6.5898438 C 1.0801367 6.5335094 1.0942512 6.4759572 1.1074219 6.4199219 C 1.1205932 6.3639003 1.1338868 6.3096023 1.1484375 6.2539062 C 1.1629748 6.1982107 1.177442 6.1412528 1.1933594 6.0859375 C 1.2092627 6.030609 1.2268706 5.976783 1.2441406 5.921875 C 1.26141 5.8669537 1.2782523 5.8122852 1.296875 5.7578125 C 1.3154977 5.703326 1.3355214 5.6477607 1.3554688 5.59375 C 1.3754168 5.5397391 1.3966821 5.4871017 1.4179688 5.4335938 C 1.4392414 5.3800857 1.4598372 5.3264022 1.4824219 5.2734375 C 1.5050065 5.2204592 1.5288517 5.1676417 1.5527344 5.1152344 C 1.576631 5.0628266 1.6017865 5.0107937 1.6269531 4.9589844 C 1.6521205 4.9071748 1.6766877 4.8558722 1.703125 4.8046875 C 1.729563 4.7535028 1.7574756 4.7028624 1.7851562 4.6523438 C 1.8128509 4.6018248 1.8402166 4.5517925 1.8691406 4.5019531 C 1.8980646 4.4521273 1.9288444 4.402635 1.9589844 4.3535156 C 1.9891244 4.3043966 2.0194386 4.2553899 2.0507812 4.2070312 C 2.0821239 4.1586594 2.113953 4.110084 2.1464844 4.0625 C 2.1790017 4.0149159 2.2124011 3.968657 2.2460938 3.921875 C 2.2797861 3.875093 2.3128296 3.8291431 2.3476562 3.7832031 C 2.3824829 3.73725 2.4191315 3.6915684 2.4550781 3.6464844 C 2.4910253 3.6014007 2.5273998 3.5559194 2.5644531 3.5117188 C 2.6014933 3.4675319 2.6396017 3.424136 2.6777344 3.3808594 C 2.7158539 3.3375694 2.7537841 3.2942925 2.7929688 3.2519531 C 2.8321534 3.2096139 2.8718994 3.1683138 2.9121094 3.1269531 C 2.9523191 3.0855788 2.9919825 3.0442886 3.0332031 3.0039062 C 3.0744102 2.9635238 3.1159987 2.924129 3.1582031 2.8847656 C 4.0690895 2.0495339 5.2552867 1.3807948 6.46875 1.109375 C 6.8101633 1.0330057 7.1609744 0.99430486 7.5097656 0.97070312 C 7.7459206 0.9547037 7.9839743 0.94108315 8.2207031 0.95117188 C 8.2707911 0.95304697 8.3210605 0.95409633 8.3710938 0.95703125 C 8.4211406 0.95996624 8.4715194 0.96478247 8.5214844 0.96875 C 8.5714493 0.97273117 8.6200526 0.97739445 8.6699219 0.98242188 C 8.7197911 0.98743573 8.7705661 0.9919732 8.8203125 0.99804688 C 8.8700725 1.004107 8.9191403 1.0104718 8.96875 1.0175781 C 9.0183597 1.0246844 9.0677284 1.0328766 9.1171875 1.0410156 C 9.1666338 1.0491546 9.2163576 1.057221 9.265625 1.0664062 C 9.3148932 1.0755779 9.3649994 1.0854988 9.4140625 1.0957031 C 9.4631257 1.1059075 9.5117019 1.1176829 9.5605469 1.1289062 C 9.609378 1.1401432 9.6584468 1.15182 9.7070312 1.1640625 C 9.7556303 1.1763186 9.8032509 1.1879103 9.8515625 1.2011719 C 9.899888 1.2144333 9.9480689 1.2279068 9.9960938 1.2421875 C 10.044119 1.2564545 10.090962 1.2718369 10.138672 1.2871094 C 10.186383 1.3023954 10.23582 1.3177199 10.283203 1.3339844 C 10.330586 1.3502487 10.376801 1.3674957 10.423828 1.3847656 C 10.470855 1.4020219 10.517808 1.4192655 10.564453 1.4375 C 10.611098 1.4557346 10.656863 1.4749278 10.703125 1.4941406 C 10.749372 1.513354 10.795957 1.532557 10.841797 1.5527344 C 10.887624 1.5729124 10.933116 1.5941057 10.978516 1.6152344 C 11.023914 1.636363 11.068341 1.6576075 11.113281 1.6796875 C 11.158231 1.7017675 11.203587 1.7250295 11.248047 1.7480469 C 11.292506 1.7710509 11.336893 1.794418 11.380859 1.8183594 C 11.424827 1.8423007 11.468259 1.865773 11.511719 1.890625 C 11.555169 1.915477 11.599665 1.9410349 11.642578 1.9667969 C 11.685494 1.9925455 11.727178 2.0182632 11.769531 2.0449219 C 11.811901 2.0715672 11.854704 2.0994245 11.896484 2.1269531 C 11.938279 2.1544951 11.978338 2.1825395 12.019531 2.2109375 C 12.060723 2.2393362 12.101998 2.267621 12.142578 2.296875 C 12.183173 2.326129 12.223725 2.3566221 12.263672 2.3867188 C 12.303637 2.4168147 12.343506 2.4475763 12.382812 2.4785156 C 12.422119 2.509441 12.461347 2.540525 12.5 2.5722656 C 12.538641 2.6040196 12.577268 2.6354261 12.615234 2.6679688 C 12.808022 2.8322229 13.003998 3.0031463 13.175781 3.1894531 C 13.212505 3.2286129 13.24933 3.266666 13.285156 3.3066406 C 13.320981 3.3466155 13.355732 3.3869444 13.390625 3.4277344 C 13.425519 3.468511 13.460221 3.5111697 13.494141 3.5527344 C 13.528094 3.5942991 13.56077 3.635409 13.59375 3.6777344 C 13.62673 3.7200596 13.659393 3.7635813 13.691406 3.8066406 C 13.723406 3.8497134 13.756109 3.8917675 13.787109 3.9355469 C 13.818109 3.9793259 13.84696 4.0238867 13.876953 4.0683594 C 13.90694 4.1128318 13.93783 4.157987 13.966797 4.203125 C 13.995764 4.2482767 14.022868 4.2940671 14.050781 4.3398438 C 14.078695 4.3856342 14.105952 4.4321003 14.132812 4.4785156 C 14.159673 4.5249308 14.187111 4.5701742 14.212891 4.6171875 C 14.238677 4.664187 14.264376 4.7121816 14.289062 4.7597656 C 14.313769 4.8073492 14.337735 4.8542024 14.361328 4.9023438 C 14.384928 4.9504711 14.407201 5.0001708 14.429688 5.0488281 C 14.452167 5.0974853 14.474727 5.1461658 14.496094 5.1953125 C 14.517447 5.2444726 14.538374 5.294128 14.558594 5.34375 C 14.578827 5.3933853 14.598114 5.4421168 14.617188 5.4921875 C 14.636261 5.5422583 14.653948 5.5940399 14.671875 5.6445312 C 14.689802 5.6950367 14.707843 5.7440365 14.724609 5.7949219 C 14.741376 5.8458075 14.757864 5.8979661 14.773438 5.9492188 C 14.789031 6.0004711 14.803959 6.0519096 14.818359 6.1035156 C 14.832759 6.1551082 14.846148 6.2058945 14.859375 6.2578125 C 14.872588 6.3097173 14.884478 6.3618725 14.896484 6.4140625 C 14.908511 6.466266 14.920821 6.5198036 14.931641 6.5722656 C 14.942447 6.6247141 14.953284 6.675823 14.962891 6.7285156 C 14.972511 6.7812082 14.981848 6.8338354 14.990234 6.8867188 C 14.998621 6.9396154 15.004532 6.9938017 15.011719 7.046875 C 15.018912 7.0999483 15.02727 7.1538086 15.033203 7.2070312 C 15.035117 7.2241384 15.037275 7.2406912 15.039062 7.2578125 A 5.5049586 5.5049586 0 0 1 16.003906 8.3105469 C 16.015141 7.9441611 15.993736 7.5782627 15.96875 7.2128906 C 15.929606 6.6403961 15.79699 6.0733796 15.619141 5.5292969 C 15.243216 4.3792126 14.752072 3.5079044 13.933594 2.6132812 C 13.77626 2.4413027 13.615908 2.2663051 13.439453 2.1132812 C 13.057523 1.7820623 12.649799 1.4677339 12.216797 1.2050781 C 12.115985 1.1439338 12.007301 1.0927133 11.904297 1.0351562 C 11.751554 0.94979878 11.600522 0.86042147 11.441406 0.78710938 C 11.219452 0.68485567 10.993125 0.60108092 10.763672 0.51757812 C 10.659623 0.47972979 10.558589 0.432821 10.453125 0.3984375 C 9.8816848 0.21213077 9.2662158 0.11030147 8.6679688 0.05859375 C 8.4195941 0.037116855 8.1804949 0.010739797 7.9355469 0.0078125 z M 8.0722656 2.0195312 C 7.9824983 2.0208699 7.8911875 2.0239556 7.8027344 2.0253906 C 7.632202 2.0281626 7.4620666 2.0474274 7.2929688 2.0683594 C 7.1923967 2.0809822 7.0919807 2.0956445 6.9921875 2.1132812 C 6.8923806 2.1309181 6.7940946 2.1512183 6.6953125 2.1738281 C 6.5965303 2.1964243 6.4979021 2.2224851 6.4003906 2.25 C 6.3028654 2.277515 6.20537 2.3074916 6.109375 2.3398438 C 6.0133664 2.3721959 5.9184649 2.4062515 5.8242188 2.4433594 C 5.7299726 2.4804672 5.6371732 2.5207316 5.5449219 2.5625 C 5.4526705 2.6042819 5.3615087 2.6470256 5.2714844 2.6933594 C 5.1814601 2.7396796 5.0934244 2.7890667 5.0058594 2.8398438 C 4.8741021 2.9177008 4.747584 3.0075977 4.6210938 3.09375 C 4.3217142 3.297646 4.0376657 3.5189238 3.7851562 3.7792969 C 3.2673901 4.3132296 2.7441392 5.0608182 2.4648438 5.7519531 C 2.3830719 5.9543409 2.324308 6.1661921 2.2617188 6.375 C 2.1574237 6.7229318 2.0746262 7.058963 2.0410156 7.421875 C 2.0152544 7.6999187 1.9963972 7.990285 2.0078125 8.2695312 C 2.013182 8.401338 2.035388 8.5321743 2.0371094 8.6640625 L 2.0371094 8.6757812 C 2.0606573 8.8537928 2.0898055 9.0429869 2.1425781 9.2148438 C 2.1811687 9.4642919 2.2701718 9.7163533 2.3554688 9.953125 C 2.4140208 10.115626 2.4744279 10.28455 2.546875 10.441406 C 2.6272124 10.615361 2.7316443 10.784597 2.8300781 10.949219 C 3.3101144 11.752004 3.8510004 12.321403 4.6074219 12.873047 C 5.1561332 13.2732 5.8143454 13.555584 6.4785156 13.734375 A 5.5049586 5.5049586 0 0 1 6.3027344 13.259766 C 6.0917265 13.190263 5.8833743 13.110656 5.671875 13.017578 C 5.6390837 13.001978 5.6064354 12.985517 5.5742188 12.96875 C 5.2094625 12.777795 4.8619696 12.56613 4.5390625 12.310547 C 3.8596993 11.772822 3.287941 11.031775 2.9277344 10.248047 C 2.7948088 9.9588746 2.6910831 9.6567099 2.5957031 9.3535156 C 2.7047325 9.2977519 2.8236483 9.2588574 2.9355469 9.2089844 C 3.1626228 9.1077694 3.3843197 8.9996856 3.6132812 8.9023438 C 3.8199041 8.8144998 4.03405 8.7379261 4.2363281 8.640625 C 4.2430909 8.6409517 4.2495094 8.6402381 4.2558594 8.6425781 C 4.306934 8.6615161 5.3312841 9.6895165 6.09375 10.462891 A 5.5049586 5.5049586 0 0 1 6.1972656 9.9863281 C 6.0087185 9.7984259 5.8186877 9.6124452 5.6308594 9.4238281 C 5.2536017 9.0484424 4.8534477 8.6803088 4.5078125 8.2753906 C 4.5045125 7.8907519 4.5188324 7.5055083 4.5058594 7.1210938 C 4.784212 7.0822059 4.9312315 7.048236 5.1523438 6.8671875 C 5.5716763 7.304125 6.0085782 7.7261946 6.4316406 8.1601562 C 6.5618938 8.2937636 6.6978464 8.4248556 6.8242188 8.5625 A 5.5049586 5.5049586 0 0 1 7.0722656 8.2128906 C 6.9503513 8.0877219 6.8231732 7.966381 6.7089844 7.8339844 C 6.5111946 7.627867 6.3033138 7.4325542 6.1035156 7.2285156 C 5.8842683 7.0046254 5.6781967 6.7709171 5.4414062 6.5644531 C 5.4657132 6.5223454 5.4917368 6.4798769 5.5117188 6.4355469 C 5.6568995 6.1136015 5.6164235 5.7922001 5.4921875 5.4707031 C 5.6182271 5.3661463 5.7713631 5.2872696 5.9082031 5.1972656 C 6.2207195 4.9916779 6.5344554 4.782459 6.8515625 4.5839844 C 6.9029007 4.6321865 6.9480962 4.7413862 6.9960938 4.8027344 C 7.2406309 5.1152635 7.4155858 5.192104 7.7792969 5.3027344 C 7.792987 5.6894317 7.7845148 6.0797124 7.7832031 6.4667969 L 7.7851562 7.4121094 A 5.5049586 5.5049586 0 0 1 8.2226562 7.0566406 L 8.2285156 5.2949219 C 8.2942817 5.275906 8.3594147 5.2574876 8.4238281 5.234375 C 8.7547279 5.1155512 8.9829323 4.8839014 9.1308594 4.5703125 C 9.2700568 4.6255666 9.4158427 4.7397446 9.5429688 4.8203125 C 9.8698107 5.0244802 10.192102 5.2340314 10.511719 5.4492188 C 10.480399 5.5095682 10.452344 5.5732069 10.433594 5.6386719 C 10.391286 5.7863422 10.382319 5.9378752 10.398438 6.0878906 A 5.5049586 5.5049586 0 0 1 11.494141 5.9628906 A 5.5049586 5.5049586 0 0 1 12.732422 6.1054688 C 12.751468 5.9436626 12.738413 5.7785992 12.6875 5.6152344 C 12.598001 5.3281007 12.371928 5.0704551 12.103516 4.9335938 C 12.085816 4.9245577 12.068895 4.9163418 12.050781 4.9082031 C 12.032648 4.9000645 12.014607 4.8919943 11.996094 4.8847656 C 11.97758 4.877539 11.958306 4.8695746 11.939453 4.8632812 C 11.9206 4.8569766 11.901953 4.8530096 11.882812 4.8476562 C 11.863673 4.8423142 11.843619 4.8364179 11.824219 4.8320312 C 11.804832 4.8276453 11.785218 4.8237392 11.765625 4.8203125 C 11.746045 4.8169058 11.726771 4.8149467 11.707031 4.8125 C 11.687305 4.8100667 11.668278 4.808094 11.648438 4.8066406 C 11.628598 4.8051896 11.607771 4.8031966 11.587891 4.8027344 C 11.568011 4.8022736 11.547224 4.8022046 11.527344 4.8027344 C 11.507464 4.8032677 11.48859 4.8051206 11.46875 4.8066406 C 11.448923 4.8081606 11.429883 4.81 11.410156 4.8125 C 11.39043 4.8150133 11.369189 4.8168325 11.349609 4.8203125 C 11.330043 4.8238012 11.312355 4.8295244 11.292969 4.8339844 C 11.273595 4.8384424 11.253502 4.8422496 11.234375 4.8476562 C 11.215248 4.8530769 11.196561 4.8588744 11.177734 4.8652344 C 11.025278 4.915923 10.871033 4.9938129 10.748047 5.0976562 C 10.529045 4.9671539 10.307156 4.8385258 10.09375 4.6992188 C 9.8090441 4.5133604 9.5304531 4.3116155 9.2402344 4.1347656 C 9.2277329 3.7257303 9.1396239 3.4348366 8.8300781 3.1464844 C 8.8157048 3.1331544 8.8001716 3.1219977 8.7851562 3.109375 C 8.7701542 3.0967517 8.7538979 3.084141 8.7382812 3.0722656 C 8.7226646 3.0603903 8.7075829 3.0482107 8.6914062 3.0371094 C 8.6752289 3.026008 8.6592875 3.0161587 8.6425781 3.0058594 C 8.6258688 2.99556 8.6089849 2.98408 8.5917969 2.9746094 C 8.5746089 2.9651247 8.5567012 2.9578467 8.5390625 2.9492188 C 8.5214238 2.9405907 8.5043628 2.9315868 8.4863281 2.9238281 C 8.4682795 2.9160695 8.4500446 2.9092191 8.4316406 2.9023438 C 8.4132506 2.8954697 8.393718 2.8887925 8.375 2.8828125 C 8.356282 2.8768465 8.3373507 2.8702877 8.3183594 2.8652344 C 8.299368 2.8601824 8.2809287 2.8556958 8.2617188 2.8515625 C 8.2425088 2.8474325 8.2225123 2.8449769 8.203125 2.8417969 C 8.1837237 2.8386035 8.1640553 2.836211 8.1445312 2.8339844 C 8.1250072 2.8317444 8.1055575 2.8294183 8.0859375 2.828125 C 8.0663315 2.8268308 8.0470044 2.8264977 8.0273438 2.8261719 C 8.0076971 2.8258323 7.9883973 2.8255471 7.96875 2.8261719 C 7.6326447 2.8398886 7.3134644 2.973758 7.0859375 3.2226562 C 6.8291858 3.5035535 6.759034 3.7842106 6.7617188 4.1542969 C 6.5482304 4.2690853 6.3503672 4.4175069 6.1484375 4.5507812 C 5.8515376 4.7467285 5.5475229 4.9356767 5.2460938 5.125 C 5.0256783 4.9118304 4.7441347 4.8057201 4.4375 4.8085938 C 4.1280577 4.8115084 3.8330738 4.9221663 3.6171875 5.1464844 C 3.3930011 5.3794444 3.3135447 5.6669649 3.2734375 5.9785156 C 3.2830486 6.0190544 3.2804631 6.0691385 3.2851562 6.1113281 C 3.2995023 6.2399758 3.3328661 6.3574773 3.3886719 6.4746094 C 3.5230936 6.7567498 3.7874268 6.9859595 4.0820312 7.0898438 C 4.0793671 7.4803522 4.0857488 7.8733265 4.078125 8.2636719 L 2.9726562 8.7304688 C 2.8112436 8.7972385 2.6517103 8.8755409 2.484375 8.9257812 C 2.435394 8.529464 2.40052 8.1240043 2.421875 7.7246094 C 2.4668394 6.883508 2.7899213 5.7892121 3.28125 5.1015625 C 3.6768911 4.3694202 4.4538227 3.6378099 5.1601562 3.2089844 C 5.5404676 2.978083 5.9782629 2.7886882 6.4042969 2.6601562 C 6.4476351 2.6473843 6.4895638 2.6347869 6.5332031 2.6230469 C 6.5768424 2.6113202 6.6221036 2.6005098 6.6660156 2.5898438 C 6.7099282 2.5791644 6.752717 2.5682004 6.796875 2.5585938 C 6.8410334 2.5489737 6.8853108 2.5397833 6.9296875 2.53125 C 6.9740641 2.5227033 7.0198711 2.5152858 7.0644531 2.5078125 C 7.109021 2.5003398 7.1525196 2.4927148 7.1972656 2.4863281 C 7.242011 2.4799288 7.2871486 2.4740633 7.3320312 2.46875 C 7.3769276 2.463438 7.4218055 2.4593048 7.4667969 2.4550781 C 7.5118025 2.4508535 7.5564618 2.4464994 7.6015625 2.4433594 C 7.64665 2.440206 7.6931259 2.4376002 7.7382812 2.4355469 C 7.7834368 2.4335002 7.8278502 2.4326073 7.8730469 2.4316406 C 7.9182434 2.4306783 7.9626158 2.4295518 8.0078125 2.4296875 C 8.053023 2.4298142 8.0993486 2.4304206 8.1445312 2.4316406 C 8.1897142 2.432854 8.2341549 2.4351933 8.2792969 2.4375 C 8.3244527 2.4398067 8.3689892 2.4419258 8.4140625 2.4453125 C 8.4591362 2.4487094 8.5058032 2.4525474 8.5507812 2.4570312 C 8.5957592 2.4615152 8.6406918 2.4670988 8.6855469 2.4726562 C 8.7304019 2.4782272 8.7736546 2.48359 8.8183594 2.4902344 C 8.863064 2.4968787 8.9085842 2.504001 8.953125 2.5117188 C 8.9976521 2.5194365 9.041615 2.5283182 9.0859375 2.5371094 C 9.1302731 2.5459006 9.1746464 2.5545885 9.21875 2.5644531 C 9.2628535 2.5743041 9.3077187 2.5847787 9.3515625 2.5957031 C 9.3954202 2.6066276 9.4388509 2.6188887 9.4824219 2.6308594 C 9.5259928 2.6428301 9.5700117 2.6549518 9.6132812 2.6679688 C 9.6565384 2.6809993 9.6992456 2.6949348 9.7421875 2.7089844 C 9.7851163 2.7230476 9.8265541 2.7368573 9.8691406 2.7519531 C 9.9117141 2.767049 9.9538895 2.782713 9.9960938 2.7988281 C 10.038287 2.8149428 10.08128 2.8324954 10.123047 2.8496094 C 10.164839 2.8667434 10.206674 2.8842177 10.248047 2.9023438 C 10.289404 2.9204698 10.330174 2.939853 10.371094 2.9589844 C 10.412002 2.9781017 10.453714 2.9974681 10.494141 3.0175781 C 10.534565 3.0376741 10.573341 3.0570503 10.613281 3.078125 C 10.646135 3.0958023 10.678431 3.1144825 10.710938 3.1328125 C 10.743431 3.1511418 10.776474 3.1704845 10.808594 3.1894531 C 10.840727 3.2084211 10.87257 3.2264731 10.904297 3.2460938 C 10.936037 3.2657004 10.968673 3.2864086 11 3.3066406 C 11.031327 3.3268866 11.060877 3.3463308 11.091797 3.3671875 C 11.122704 3.3880582 11.1531 3.410172 11.183594 3.4316406 C 11.214087 3.4531093 11.245344 3.4740137 11.275391 3.4960938 C 11.305437 3.5181738 11.335641 3.5417751 11.365234 3.5644531 C 11.394848 3.5871171 11.423998 3.6095505 11.453125 3.6328125 C 11.482252 3.6560745 11.510396 3.6792923 11.539062 3.703125 C 11.567729 3.7269717 11.596827 3.7509873 11.625 3.7753906 C 11.65316 3.799794 11.681304 3.8246487 11.708984 3.8496094 C 11.736651 3.87457 11.763842 3.9002773 11.791016 3.9257812 C 11.818182 3.9512852 11.844454 3.9759058 11.871094 4.0019531 C 11.897734 4.0280005 11.925059 4.0554539 11.951172 4.0820312 C 11.977292 4.1085946 12.001777 4.1350154 12.027344 4.1621094 C 12.052924 4.1891894 12.078502 4.216544 12.103516 4.2441406 C 12.128536 4.2717373 12.153268 4.3000397 12.177734 4.328125 C 12.202194 4.3562103 12.22612 4.383548 12.25 4.4121094 C 12.273887 4.440684 12.298959 4.4709633 12.322266 4.5 C 12.345572 4.5290367 12.367918 4.558392 12.390625 4.5878906 C 12.413345 4.6173893 12.434925 4.6458339 12.457031 4.6757812 C 12.479151 4.7057286 12.501931 4.7371961 12.523438 4.7675781 C 12.544938 4.7979601 12.566997 4.8285717 12.587891 4.859375 C 12.608784 4.8901777 12.628177 4.9199472 12.648438 4.9511719 C 12.668697 4.9823825 12.689351 5.0133032 12.708984 5.0449219 C 12.728604 5.0765272 12.746632 5.1086263 12.765625 5.140625 C 12.784618 5.1726237 12.803932 5.2059019 12.822266 5.2382812 C 12.840599 5.2706466 12.859273 5.3032048 12.876953 5.3359375 C 12.894626 5.3686702 12.910721 5.4005078 12.927734 5.4335938 C 12.944761 5.4666657 12.962176 5.4997911 12.978516 5.5332031 C 12.994856 5.566615 13.01167 5.601041 13.027344 5.6347656 C 13.120132 5.8369832 13.192675 6.0455098 13.261719 6.2558594 A 5.5049586 5.5049586 0 0 1 13.759766 6.4511719 C 13.751772 6.421157 13.744763 6.3912272 13.736328 6.3613281 C 13.714508 6.2839737 13.690749 6.2073305 13.666016 6.1308594 C 13.62618 6.0033938 13.591386 5.8738173 13.541016 5.75 C 13.470742 5.5772673 13.382722 5.4105313 13.294922 5.2460938 C 12.971667 4.6407649 12.57666 4.1207845 12.082031 3.6445312 C 11.891537 3.4611186 11.681597 3.3005682 11.466797 3.1464844 C 11.410136 3.1052054 11.353029 3.064632 11.294922 3.0253906 C 11.236813 2.9861494 11.178627 2.9473182 11.119141 2.9101562 C 11.059667 2.8730074 10.998273 2.837763 10.9375 2.8027344 C 10.876712 2.767719 10.815893 2.7340132 10.753906 2.7011719 C 10.691902 2.6683305 10.62954 2.6360814 10.566406 2.6054688 C 10.503269 2.5748554 10.439187 2.5459355 10.375 2.5175781 C 10.310814 2.4892208 10.246814 2.4616082 10.181641 2.4355469 C 10.116469 2.4094855 10.050434 2.3850521 9.984375 2.3613281 C 9.9183017 2.3375908 9.8520219 2.3143288 9.7851562 2.2929688 C 9.7182767 2.2715954 9.6515886 2.2514039 9.5839844 2.2324219 C 9.5163949 2.2134399 9.4471386 2.1962508 9.3789062 2.1796875 C 9.3106608 2.1631242 9.2426071 2.1469572 9.1738281 2.1328125 C 9.1050361 2.1186812 9.0360537 2.1073885 8.9667969 2.0957031 C 8.8975538 2.0840311 8.8274383 2.071726 8.7578125 2.0625 C 8.6881868 2.0532873 8.6187407 2.0458018 8.5488281 2.0390625 C 8.4789019 2.0323232 8.4099477 2.0276908 8.3398438 2.0234375 C 8.2516264 2.018018 8.1620329 2.0181926 8.0722656 2.0195312 z M 8 3.234375 C 8.1815583 3.2437708 8.3699048 3.3030412 8.5136719 3.4160156 C 8.6863152 3.5516948 8.8023985 3.786358 8.8261719 4.0019531 C 8.8502935 4.2205237 8.76574 4.4490201 8.6269531 4.6171875 C 8.4717094 4.8052878 8.2496159 4.8881 8.0117188 4.9121094 C 7.8176794 4.9054039 7.6372004 4.8589668 7.484375 4.734375 C 7.3078377 4.5904616 7.1956402 4.3678746 7.1757812 4.1425781 C 7.1565578 3.9244559 7.2266238 3.6873317 7.3691406 3.5195312 C 7.5302457 3.3298003 7.758783 3.2554086 8 3.234375 z " />
  <path
     id="path11"
     style="fill:url(#gradient_0);stroke-width:0.0204378"
     d="M 7.8652344 0.95117188 C 7.7465164 0.9553144 7.6278432 0.96270342 7.5097656 0.97070312 C 7.1609744 0.99430485 6.8101634 1.0330057 6.46875 1.109375 C 5.2552867 1.3807948 4.0690855 2.0496068 3.1582031 2.8847656 C 3.1159989 2.9241288 3.0744105 2.9635236 3.0332031 3.0039062 C 2.9919827 3.044289 2.9523194 3.0855791 2.9121094 3.1269531 C 2.8718994 3.1683137 2.8321534 3.2096138 2.7929688 3.2519531 C 2.7537838 3.2942924 2.7158537 3.3375694 2.6777344 3.3808594 C 2.6396016 3.4241362 2.6014931 3.4675321 2.5644531 3.5117188 C 2.5273993 3.5559191 2.4910248 3.6014004 2.4550781 3.6464844 C 2.4191314 3.6915682 2.3824829 3.7352967 2.3476562 3.78125 C 2.31283 3.82719 2.2797864 3.875093 2.2460938 3.921875 C 2.2124011 3.9686571 2.1790017 4.014916 2.1464844 4.0625 C 2.1139537 4.1100839 2.0821239 4.1586592 2.0507812 4.2070312 C 2.0194386 4.2553896 1.9891244 4.3043963 1.9589844 4.3535156 C 1.9288444 4.4026348 1.8980646 4.4521271 1.8691406 4.5019531 C 1.8402166 4.5517927 1.8128509 4.6018251 1.7851562 4.6523438 C 1.7574749 4.7028625 1.7295623 4.7535028 1.703125 4.8046875 C 1.676687 4.8558724 1.6521198 4.907175 1.6269531 4.9589844 C 1.6017858 5.0107941 1.5766304 5.062827 1.5527344 5.1152344 C 1.5288517 5.167642 1.5050065 5.2204595 1.4824219 5.2734375 C 1.4598379 5.3264022 1.4392421 5.3800857 1.4179688 5.4335938 C 1.3966821 5.487102 1.3754161 5.5397393 1.3554688 5.59375 C 1.3355214 5.6477605 1.3154977 5.7033258 1.296875 5.7578125 C 1.278253 5.8122852 1.2614106 5.8669537 1.2441406 5.921875 C 1.2268706 5.9767828 1.2092627 6.0306088 1.1933594 6.0859375 C 1.177442 6.1412531 1.1629748 6.1982109 1.1484375 6.2539062 C 1.1338862 6.3096018 1.1205925 6.3638999 1.1074219 6.4199219 C 1.0942512 6.4759569 1.0801367 6.5335091 1.0683594 6.5898438 C 1.056568 6.6461646 1.0455536 6.7012065 1.0351562 6.7578125 C 1.0247589 6.8144183 1.0148494 6.8728502 1.0058594 6.9296875 C 0.99685549 6.9865247 0.99001834 7.0425687 0.98242188 7.0996094 C 0.97482534 7.1566505 0.96712683 7.214267 0.9609375 7.2714844 C 0.9547483 7.3286881 0.9500945 7.3860194 0.9453125 7.4433594 C 0.94053077 7.500713 0.93500196 7.5577997 0.93164062 7.6152344 C 0.92827996 7.672683 0.92578212 7.7296067 0.92382812 7.7871094 C 0.92191544 7.843838 0.92045453 7.9002759 0.91992188 7.9570312 C 0.9194027 8.013787 0.92101433 8.0701978 0.921875 8.1269531 C 0.922749 8.1837087 0.92352658 8.2421135 0.92578125 8.2988281 C 0.92804925 8.3555431 0.93189887 8.4121033 0.93554688 8.46875 C 0.93920874 8.5253971 0.94222429 8.5821339 0.94726562 8.6386719 C 0.95230742 8.6952099 0.95842242 8.750252 0.96484375 8.8066406 C 0.97127895 8.8630432 0.97851306 8.9203372 0.98632812 8.9765625 C 0.99414326 9.0327885 1.0025374 9.0885099 1.0117188 9.1445312 C 1.0209141 9.2005536 1.0304543 9.2567233 1.0410156 9.3125 C 1.051577 9.3682778 1.0642305 9.4230103 1.0761719 9.4785156 C 1.0880999 9.534021 1.1000013 9.5893246 1.1132812 9.6445312 C 1.1265753 9.6997242 1.1396502 9.7556802 1.1542969 9.8105469 C 1.1689302 9.8653997 1.1851865 9.9201087 1.2011719 9.9746094 C 1.2171572 10.029094 1.2346425 10.082639 1.2519531 10.136719 C 1.2692778 10.190809 1.2860515 10.245181 1.3046875 10.298828 C 1.3233235 10.352474 1.3433199 10.405804 1.3632812 10.458984 C 1.3832286 10.512166 1.4025821 10.564507 1.4238281 10.617188 C 1.4450875 10.669869 1.4677044 10.723244 1.4902344 10.775391 C 1.5127784 10.827538 1.5367329 10.880061 1.5605469 10.931641 C 1.5843609 10.983221 1.6077412 11.032991 1.6328125 11.083984 C 1.6578838 11.134982 1.6846228 11.185961 1.7109375 11.236328 C 1.7372522 11.286681 1.7634716 11.336999 1.7910156 11.386719 C 1.8185603 11.436433 1.84624 11.48613 1.875 11.535156 C 1.9037467 11.584191 1.932928 11.633334 1.9628906 11.681641 C 1.9928393 11.729956 2.0235635 11.776632 2.0546875 11.824219 C 2.0858248 11.871791 2.1181053 11.920004 2.1503906 11.966797 C 2.182676 12.013608 2.2146142 12.059462 2.2480469 12.105469 C 2.2814801 12.151475 2.3170232 12.197008 2.3515625 12.242188 C 2.386116 12.28737 2.4213852 12.332633 2.4570312 12.376953 C 2.4926772 12.421289 2.5277271 12.464373 2.5644531 12.507812 C 2.6011791 12.551269 2.6380039 12.594179 2.6757812 12.636719 C 2.7135591 12.679261 2.7521996 12.722052 2.7910156 12.763672 C 2.8308566 12.806677 2.8712167 12.848612 2.9121094 12.890625 C 2.9530024 12.932639 2.995192 12.974618 3.0371094 13.015625 C 3.0790408 13.05662 3.1211478 13.096759 3.1640625 13.136719 C 3.206991 13.176681 3.2510232 13.216959 3.2949219 13.255859 C 3.3388205 13.294761 3.382893 13.33328 3.4277344 13.371094 C 3.4725892 13.408909 3.5167293 13.445709 3.5625 13.482422 C 3.6082703 13.519121 3.6545132 13.55427 3.7011719 13.589844 C 3.7478443 13.625414 3.7962173 13.660879 3.84375 13.695312 C 3.891269 13.729732 3.9379615 13.763628 3.9863281 13.796875 C 4.034708 13.830122 4.0836398 13.862478 4.1328125 13.894531 C 4.1819849 13.926585 4.2312987 13.959401 4.28125 13.990234 C 4.331215 14.021081 4.3828911 14.050471 4.4335938 14.080078 C 4.4842963 14.109685 4.5345242 14.137656 4.5859375 14.166016 C 4.6373646 14.194376 4.6900915 14.222907 4.7421875 14.25 C 4.7942974 14.277093 4.8456715 14.304265 4.8984375 14.330078 C 4.9511896 14.355878 5.0052131 14.379784 5.0585938 14.404297 C 5.1119881 14.42881 5.164782 14.453369 5.21875 14.476562 C 5.2727181 14.499763 5.3263174 14.523062 5.3808594 14.544922 C 5.4353878 14.566795 5.4918277 14.586902 5.546875 14.607422 C 5.6019363 14.627949 5.6573513 14.648795 5.7128906 14.667969 C 5.7684435 14.687142 5.8229022 14.704843 5.8789062 14.722656 C 5.9349103 14.740456 5.9924008 14.757011 6.0488281 14.773438 C 6.1052552 14.789878 6.161926 14.805273 6.21875 14.820312 C 6.2755602 14.835359 6.3314932 14.851581 6.3886719 14.865234 C 6.4458369 14.878894 6.5030535 14.890104 6.5605469 14.902344 C 6.6180401 14.91459 6.676595 14.92666 6.734375 14.9375 C 6.7921547 14.948333 6.8501631 14.959337 6.9082031 14.96875 C 6.9662291 14.978183 7.0237866 14.986154 7.0820312 14.994141 C 7.140276 15.002174 7.1993905 15.009092 7.2578125 15.015625 C 7.2702898 15.017027 7.2824377 15.018194 7.2949219 15.019531 A 5.5049586 5.5049586 0 0 1 6.4785156 13.734375 C 5.8143434 13.55561 5.1561331 13.2732 4.6074219 12.873047 C 3.8510003 12.321403 3.3101144 11.752004 2.8300781 10.949219 C 2.7316442 10.784597 2.627212 10.615361 2.546875 10.441406 C 2.474428 10.28455 2.4140208 10.115626 2.3554688 9.953125 C 2.2701717 9.7163533 2.1811691 9.4642919 2.1425781 9.2148438 C 2.0898058 9.0429869 2.0606574 8.8537928 2.0371094 8.6757812 L 2.0371094 8.6640625 C 2.0353874 8.5321742 2.0131825 8.401338 2.0078125 8.2695312 C 1.9963975 7.9902851 2.0152546 7.6999187 2.0410156 7.421875 C 2.0746262 7.058963 2.1574237 6.7229318 2.2617188 6.375 C 2.324308 6.1661921 2.3830718 5.9543409 2.4648438 5.7519531 C 2.7441392 5.0608182 3.26739 4.3132296 3.7851562 3.7792969 C 4.0376656 3.5189238 4.3217142 3.297646 4.6210938 3.09375 C 4.7475841 3.0075977 4.8741021 2.9177009 5.0058594 2.8398438 C 5.0934244 2.7890667 5.1814601 2.7396796 5.2714844 2.6933594 C 5.3615087 2.6470256 5.4526705 2.6042819 5.5449219 2.5625 C 5.6371732 2.5207316 5.7299726 2.4804672 5.8242188 2.4433594 C 5.9184649 2.4062515 6.0133664 2.3721959 6.109375 2.3398438 C 6.20537 2.3074916 6.3028654 2.277515 6.4003906 2.25 C 6.4979021 2.2224851 6.5965303 2.1964243 6.6953125 2.1738281 C 6.7940946 2.1512183 6.8923806 2.1309181 6.9921875 2.1132812 C 7.0919807 2.0956445 7.1923967 2.0809794 7.2929688 2.0683594 C 7.4620666 2.0474274 7.632202 2.0281606 7.8027344 2.0253906 C 7.9796406 2.0225106 8.1634091 2.0125945 8.3398438 2.0234375 C 8.4099477 2.0276904 8.4789019 2.032323 8.5488281 2.0390625 C 8.6187407 2.045802 8.6881868 2.0532876 8.7578125 2.0625 C 8.8274383 2.071726 8.8975538 2.0840313 8.9667969 2.0957031 C 9.0360537 2.1073885 9.1050359 2.1186814 9.1738281 2.1328125 C 9.2426071 2.1469572 9.3106608 2.1631242 9.3789062 2.1796875 C 9.4471386 2.1962508 9.5163948 2.21344 9.5839844 2.2324219 C 9.6515885 2.2514038 9.7182767 2.2715954 9.7851562 2.2929688 C 9.852022 2.3143285 9.9183017 2.3375906 9.984375 2.3613281 C 10.050435 2.3850521 10.116469 2.4094857 10.181641 2.4355469 C 10.246812 2.4616079 10.310812 2.4892209 10.375 2.5175781 C 10.439191 2.5459355 10.503273 2.5748554 10.566406 2.6054688 C 10.629544 2.6360814 10.691906 2.6683305 10.753906 2.7011719 C 10.815894 2.7340132 10.876713 2.767719 10.9375 2.8027344 C 10.998273 2.8377632 11.059667 2.8730076 11.119141 2.9101562 C 11.17863 2.9473188 11.236815 2.98615 11.294922 3.0253906 C 11.353029 3.0646316 11.410137 3.105205 11.466797 3.1464844 C 11.681598 3.3005682 11.891538 3.4611186 12.082031 3.6445312 C 12.57666 4.1207845 12.971666 4.6407649 13.294922 5.2460938 C 13.382719 5.4105312 13.470742 5.5772673 13.541016 5.75 C 13.591391 5.8738173 13.626184 6.0034158 13.666016 6.1308594 C 13.690742 6.2073305 13.714508 6.2839737 13.736328 6.3613281 C 13.744763 6.3912272 13.751772 6.421157 13.759766 6.4511719 A 5.5049586 5.5049586 0 0 1 15.039062 7.2578125 C 15.037277 7.2406912 15.035111 7.2241386 15.033203 7.2070312 C 15.02725 7.1538086 15.020845 7.0999483 15.013672 7.046875 C 15.006485 6.9938017 14.998621 6.9396154 14.990234 6.8867188 C 14.981848 6.8338355 14.972511 6.7812083 14.962891 6.7285156 C 14.953284 6.6758225 14.942447 6.6247136 14.931641 6.5722656 C 14.920821 6.5198041 14.910464 6.4662665 14.898438 6.4140625 C 14.886431 6.3618724 14.872588 6.3097172 14.859375 6.2578125 C 14.846148 6.205894 14.832759 6.1551076 14.818359 6.1035156 C 14.803953 6.05191 14.789024 6.0004714 14.773438 5.9492188 C 14.757864 5.8979664 14.741376 5.8458079 14.724609 5.7949219 C 14.707843 5.7440364 14.689802 5.6950366 14.671875 5.6445312 C 14.653948 5.5940398 14.636261 5.5422582 14.617188 5.4921875 C 14.598114 5.4421168 14.578827 5.3933853 14.558594 5.34375 C 14.538374 5.2941279 14.517447 5.2444725 14.496094 5.1953125 C 14.47472 5.146166 14.452161 5.0974855 14.429688 5.0488281 C 14.407194 5.0001708 14.384921 4.9504711 14.361328 4.9023438 C 14.337728 4.8542028 14.313762 4.8073496 14.289062 4.7597656 C 14.264369 4.7121822 14.238671 4.6641875 14.212891 4.6171875 C 14.187104 4.5701744 14.161626 4.524931 14.134766 4.4785156 C 14.107906 4.4321001 14.078695 4.3856204 14.050781 4.3398438 C 14.022868 4.2940531 13.995764 4.2482763 13.966797 4.203125 C 13.93783 4.1579866 13.90694 4.1128314 13.876953 4.0683594 C 13.84696 4.023887 13.818109 3.9793262 13.787109 3.9355469 C 13.756109 3.8917674 13.723406 3.8497133 13.691406 3.8066406 C 13.659393 3.7635814 13.62673 3.7200597 13.59375 3.6777344 C 13.56077 3.635409 13.528094 3.594299 13.494141 3.5527344 C 13.460201 3.51117 13.425518 3.468511 13.390625 3.4277344 C 13.355733 3.3869442 13.320983 3.3466153 13.285156 3.3066406 C 13.249333 3.2666656 13.212508 3.2286125 13.175781 3.1894531 C 13.003998 3.0031463 12.808022 2.8322229 12.615234 2.6679688 C 12.577266 2.6354261 12.53864 2.6040196 12.5 2.5722656 C 12.461347 2.540525 12.422119 2.509441 12.382812 2.4785156 C 12.343507 2.447577 12.303639 2.4168154 12.263672 2.3867188 C 12.223723 2.3566221 12.183171 2.326129 12.142578 2.296875 C 12.101999 2.2676203 12.060725 2.2393355 12.019531 2.2109375 C 11.978337 2.1825395 11.938278 2.1544951 11.896484 2.1269531 C 11.854701 2.0994245 11.811898 2.0715672 11.769531 2.0449219 C 11.727175 2.0182632 11.685491 1.9925455 11.642578 1.9667969 C 11.599661 1.9410349 11.555165 1.915477 11.511719 1.890625 C 11.468257 1.865773 11.424826 1.8423007 11.380859 1.8183594 C 11.336893 1.794418 11.292507 1.7710509 11.248047 1.7480469 C 11.203591 1.7250295 11.158235 1.7017675 11.113281 1.6796875 C 11.068343 1.6576075 11.023916 1.636363 10.978516 1.6152344 C 10.933116 1.594105 10.887624 1.5729117 10.841797 1.5527344 C 10.795956 1.5325564 10.749372 1.5133533 10.703125 1.4941406 C 10.656865 1.474928 10.6111 1.4557347 10.564453 1.4375 C 10.517807 1.4192653 10.470855 1.4020216 10.423828 1.3847656 C 10.376798 1.3674956 10.330583 1.3502484 10.283203 1.3339844 C 10.235823 1.3177064 10.186385 1.302382 10.138672 1.2871094 C 10.090962 1.2718367 10.044119 1.2564542 9.9960938 1.2421875 C 9.9480688 1.2279068 9.8998878 1.2144332 9.8515625 1.2011719 C 9.8032511 1.1879105 9.7556306 1.1763185 9.7070312 1.1640625 C 9.658447 1.1518198 9.6093782 1.1401429 9.5605469 1.1289062 C 9.5117021 1.1176829 9.4631258 1.1059078 9.4140625 1.0957031 C 9.3649992 1.0854985 9.314893 1.0755776 9.265625 1.0664062 C 9.2163573 1.0572209 9.1666335 1.0491543 9.1171875 1.0410156 C 9.0677282 1.0328763 9.01836 1.0246841 8.96875 1.0175781 C 8.9191403 1.0104717 8.8700725 1.0041069 8.8203125 0.99804688 C 8.7705662 0.99197334 8.7197912 0.98743587 8.6699219 0.98242188 C 8.6200523 0.97739461 8.571449 0.97273133 8.5214844 0.96875 C 8.4715192 0.96478213 8.4211404 0.95996592 8.3710938 0.95703125 C 8.3210606 0.95409658 8.2707911 0.95304721 8.2207031 0.95117188 C 8.1023387 0.94612751 7.9839523 0.94702935 7.8652344 0.95117188 z " />
  <path
     id="path13"
     style="fill:url(#gradient_1);stroke-width:0.0204378"
     d="M 8.0078125 2.4296875 C 7.9626159 2.4295475 7.9182435 2.430674 7.8730469 2.4316406 C 7.8278499 2.4326006 7.7834366 2.4334935 7.7382812 2.4355469 C 7.6931258 2.4376002 7.6466498 2.440206 7.6015625 2.4433594 C 7.5564615 2.4464974 7.5118022 2.4508515 7.4667969 2.4550781 C 7.4218052 2.4593035 7.3769272 2.4634367 7.3320312 2.46875 C 7.2871491 2.4740627 7.2420116 2.4799281 7.1972656 2.4863281 C 7.1525198 2.4927141 7.1090211 2.5003392 7.0644531 2.5078125 C 7.0198711 2.5152858 6.9740642 2.5227033 6.9296875 2.53125 C 6.8853104 2.5397833 6.841033 2.5489738 6.796875 2.5585938 C 6.7527171 2.5682004 6.7099283 2.5791637 6.6660156 2.5898438 C 6.6221036 2.6005104 6.5768425 2.6113209 6.5332031 2.6230469 C 6.4895643 2.6347862 6.4476355 2.6473836 6.4042969 2.6601562 C 5.9782628 2.7886817 5.5404677 2.978083 5.1601562 3.2089844 C 4.4538228 3.6378099 3.676891 4.3694201 3.28125 5.1015625 C 3.3467494 5.0693604 3.3535364 4.9652935 3.4121094 4.9296875 C 3.4468474 4.9525355 3.4517575 4.9867476 3.4609375 5.0253906 C 3.4701185 5.0640746 3.5378263 5.1800065 3.5371094 5.1953125 C 3.5368224 5.2011215 3.5207981 5.228935 3.5175781 5.234375 C 3.4828814 5.2929717 3.4417174 5.3476498 3.4101562 5.4082031 C 3.3309667 5.5601468 3.2457908 5.8056809 3.2734375 5.9785156 C 3.3135448 5.6669648 3.3930012 5.3794443 3.6171875 5.1464844 C 3.8330738 4.9221662 4.1280577 4.8115084 4.4375 4.8085938 C 4.7441347 4.80572 5.0256782 4.9118305 5.2460938 5.125 C 5.5475228 4.9356768 5.8515376 4.7467286 6.1484375 4.5507812 C 6.3503672 4.417507 6.5482303 4.2690853 6.7617188 4.1542969 C 6.7590339 3.7842106 6.8291858 3.5035535 7.0859375 3.2226562 C 7.3134644 2.9737581 7.6326441 2.839892 7.96875 2.8261719 C 7.9883967 2.8255471 8.0076964 2.8258323 8.0273438 2.8261719 C 8.0470044 2.8264985 8.0663315 2.8268317 8.0859375 2.828125 C 8.1055575 2.8294183 8.1250072 2.8317444 8.1445312 2.8339844 C 8.1640552 2.836211 8.1837237 2.8386035 8.203125 2.8417969 C 8.2225123 2.8449735 8.2425087 2.8474292 8.2617188 2.8515625 C 8.2809288 2.8556945 8.299368 2.860181 8.3183594 2.8652344 C 8.3373507 2.870287 8.356282 2.8768458 8.375 2.8828125 C 8.393718 2.8887912 8.4132506 2.8954684 8.4316406 2.9023438 C 8.4500446 2.9092191 8.4682795 2.9160695 8.4863281 2.9238281 C 8.5043628 2.9315868 8.5214238 2.9405908 8.5390625 2.9492188 C 8.5567012 2.9578468 8.5746089 2.9651254 8.5917969 2.9746094 C 8.6089849 2.98408 8.6258688 2.99556 8.6425781 3.0058594 C 8.6592881 3.0161587 8.6752296 3.026008 8.6914062 3.0371094 C 8.7075829 3.0482107 8.7226646 3.0603903 8.7382812 3.0722656 C 8.7538979 3.0841416 8.7701542 3.0967523 8.7851562 3.109375 C 8.8001716 3.1219983 8.8157048 3.133155 8.8300781 3.1464844 C 9.1396234 3.434841 9.227733 3.7257303 9.2402344 4.1347656 C 9.5304531 4.3116154 9.809044 4.5133605 10.09375 4.6992188 C 10.307156 4.8385259 10.529046 4.9671539 10.748047 5.0976562 C 10.871034 4.9938129 11.025233 4.9159134 11.177734 4.8652344 C 11.196561 4.8588737 11.215248 4.8530763 11.234375 4.8476562 C 11.253502 4.8422516 11.273595 4.8384444 11.292969 4.8339844 C 11.312355 4.829529 11.330043 4.8238058 11.349609 4.8203125 C 11.369189 4.8168325 11.39043 4.8150133 11.410156 4.8125 C 11.429883 4.81 11.448923 4.8081606 11.46875 4.8066406 C 11.48859 4.805117 11.509417 4.8032641 11.529297 4.8027344 C 11.549177 4.8022032 11.568011 4.8022722 11.587891 4.8027344 C 11.607771 4.8031944 11.628597 4.8051873 11.648438 4.8066406 C 11.668277 4.808094 11.687305 4.8100667 11.707031 4.8125 C 11.726771 4.81494 11.746045 4.8168992 11.765625 4.8203125 C 11.785218 4.8237385 11.804832 4.8276446 11.824219 4.8320312 C 11.843619 4.8364199 11.863673 4.8423163 11.882812 4.8476562 C 11.901952 4.8530076 11.9206 4.8569746 11.939453 4.8632812 C 11.958306 4.8695726 11.97758 4.877537 11.996094 4.8847656 C 12.0146 4.8919943 12.032648 4.9000645 12.050781 4.9082031 C 12.068901 4.9163418 12.085822 4.9245577 12.103516 4.9335938 C 12.371928 5.0704551 12.598 5.3281007 12.6875 5.6152344 C 12.738405 5.7785831 12.753412 5.9436779 12.734375 6.1054688 A 5.5049586 5.5049586 0 0 1 13.265625 6.2578125 C 13.196278 6.0462537 13.120651 5.8381148 13.027344 5.6347656 C 13.01167 5.6010411 12.994856 5.5666151 12.978516 5.5332031 C 12.962176 5.4997911 12.944761 5.4666657 12.927734 5.4335938 C 12.910728 5.4005078 12.894633 5.3686702 12.876953 5.3359375 C 12.859273 5.3032048 12.840599 5.2706472 12.822266 5.2382812 C 12.803932 5.2059019 12.784618 5.1726237 12.765625 5.140625 C 12.746632 5.1086257 12.728604 5.0765265 12.708984 5.0449219 C 12.689351 5.0133032 12.668697 4.9823825 12.648438 4.9511719 C 12.628178 4.9199479 12.608784 4.8901783 12.587891 4.859375 C 12.567004 4.8285717 12.544944 4.7979601 12.523438 4.7675781 C 12.501931 4.7371961 12.479151 4.7057286 12.457031 4.6757812 C 12.434925 4.6458339 12.413345 4.6173893 12.390625 4.5878906 C 12.367918 4.558392 12.345572 4.5290367 12.322266 4.5 C 12.298952 4.4709633 12.27388 4.440684 12.25 4.4121094 C 12.22612 4.383548 12.202194 4.3562103 12.177734 4.328125 C 12.153268 4.3000397 12.128536 4.2717373 12.103516 4.2441406 C 12.078496 4.216544 12.052917 4.1891894 12.027344 4.1621094 C 12.001777 4.135016 11.977292 4.1085952 11.951172 4.0820312 C 11.925059 4.0554539 11.897734 4.0299536 11.871094 4.0039062 C 11.844447 3.9778589 11.818176 3.9512852 11.791016 3.9257812 C 11.763842 3.9002772 11.736651 3.87457 11.708984 3.8496094 C 11.681304 3.8246487 11.65316 3.799794 11.625 3.7753906 C 11.596827 3.7509873 11.567729 3.726971 11.539062 3.703125 C 11.510396 3.6792923 11.482252 3.6560745 11.453125 3.6328125 C 11.423992 3.6095505 11.394841 3.5871171 11.365234 3.5644531 C 11.335641 3.5417751 11.305437 3.5181737 11.275391 3.4960938 C 11.245344 3.4740144 11.21604 3.4531093 11.185547 3.4316406 C 11.155054 3.410172 11.122704 3.3880582 11.091797 3.3671875 C 11.060877 3.3463302 11.031327 3.326886 11 3.3066406 C 10.968673 3.2864086 10.936037 3.2657004 10.904297 3.2460938 C 10.87257 3.2264738 10.840727 3.2084218 10.808594 3.1894531 C 10.776474 3.1704851 10.743431 3.1511425 10.710938 3.1328125 C 10.678431 3.1144825 10.646141 3.0958023 10.613281 3.078125 C 10.573343 3.0570503 10.534567 3.0376741 10.494141 3.0175781 C 10.453713 2.9974688 10.412 2.9781024 10.371094 2.9589844 C 10.330176 2.939853 10.289407 2.9204697 10.248047 2.9023438 C 10.206675 2.8842177 10.16484 2.8667434 10.123047 2.8496094 C 10.081252 2.8324887 10.038285 2.8149428 9.9960938 2.7988281 C 9.9538894 2.7827135 9.911714 2.7670491 9.8691406 2.7519531 C 9.8265539 2.7368571 9.7851162 2.7230477 9.7421875 2.7089844 C 9.6992457 2.694935 9.6565386 2.6809994 9.6132812 2.6679688 C 9.5700115 2.6549514 9.5259925 2.64283 9.4824219 2.6308594 C 9.4388506 2.6188887 9.3954198 2.6066278 9.3515625 2.5957031 C 9.3077184 2.5847785 9.2628533 2.5743038 9.21875 2.5644531 C 9.1746462 2.5545885 9.1302728 2.5459007 9.0859375 2.5371094 C 9.0416152 2.5283187 8.9976523 2.5194368 8.953125 2.5117188 C 8.9085842 2.5040034 8.863064 2.496881 8.8183594 2.4902344 C 8.7736549 2.4835924 8.7304022 2.4782296 8.6855469 2.4726562 C 8.6406919 2.4671016 8.5957593 2.4615179 8.5507812 2.4570312 C 8.5058029 2.4525506 8.4591358 2.4487125 8.4140625 2.4453125 C 8.3689886 2.4419258 8.3244522 2.4398067 8.2792969 2.4375 C 8.2341553 2.4351867 8.1897146 2.4328473 8.1445312 2.4316406 C 8.0993481 2.4304166 8.0530225 2.4298102 8.0078125 2.4296875 z " />
  <path
     fill="#7ccdf4"
     d="M 8.0119923,4.912715 C 7.817953,4.9060095 7.6363536,4.8595194 7.4835282,4.7349276 7.3069909,4.5910142 7.1951744,4.3680819 7.1753155,4.1427854 7.156092,3.9246632 7.2267356,3.6879735 7.3692524,3.520173 7.5303575,3.3304421 7.7597495,3.2562333 8.0009665,3.2351997 c 0.1815583,0.0094 0.368937,0.067891 0.5127041,0.1808649 C 8.6863139,3.5517438 8.801594,3.7864769 8.8253674,4.002072 8.849489,4.2206426 8.7651962,4.4487517 8.6264093,4.6169191 8.4711656,4.8050194 8.2498894,4.8887056 8.0119923,4.912715 Z"
     id="path14"
     style="stroke-width:0.0204378" />
  <path
     id="path15"
     style="stroke-width:0.0204378;fill:#ebebeb;fill-opacity:1"
     d="M 9.1308594 4.5703125 C 8.9829323 4.8839014 8.7547279 5.1155512 8.4238281 5.234375 C 8.3594147 5.2574876 8.2942817 5.275906 8.2285156 5.2949219 L 8.2226562 7.0566406 A 5.5049586 5.5049586 0 0 1 10.396484 6.0878906 C 10.380479 5.9381108 10.391354 5.7861018 10.433594 5.6386719 C 10.452354 5.5732067 10.480409 5.5095678 10.511719 5.4492188 C 10.192105 5.2340314 9.8698107 5.0244802 9.5429688 4.8203125 C 9.4158426 4.7397446 9.2700568 4.6255665 9.1308594 4.5703125 z " />
  <path
     id="path16"
     style="stroke-width:0.0204378;fill:#ebebeb;fill-opacity:1"
     d="M 6.8515625 4.5839844 C 6.5344554 4.782459 6.2207195 4.9916779 5.9082031 5.1972656 C 5.7713631 5.28727 5.6182271 5.3661463 5.4921875 5.4707031 C 5.6164235 5.7922001 5.6568999 6.1136015 5.5117188 6.4355469 C 5.491737 6.4798765 5.4657124 6.522345 5.4414062 6.5644531 C 5.6781967 6.7709171 5.8842683 7.0046254 6.1035156 7.2285156 C 6.3033138 7.4325542 6.5111946 7.627867 6.7089844 7.8339844 C 6.8231679 7.9663749 6.9523095 8.0857751 7.0742188 8.2109375 A 5.5049586 5.5049586 0 0 1 7.7851562 7.4121094 L 7.7832031 6.4667969 C 7.7845231 6.0797124 7.7929869 5.6894317 7.7792969 5.3027344 C 7.4155858 5.192104 7.2406309 5.1152635 6.9960938 4.8027344 C 6.9480959 4.7413862 6.9029005 4.6321864 6.8515625 4.5839844 z " />
  <path
     fill="#c5c6c6"
     d="M 2.4834079,8.9265148 C 2.4344267,8.5301975 2.3998529,8.1234654 2.4212079,7.7240705 2.4661723,6.8829691 2.7896326,5.7899936 3.2809613,5.102344 3.3464613,5.070141 3.3527933,4.9648303 3.411366,4.9292239 3.446104,4.9520719 3.45133,4.9863119 3.460511,5.0249559 3.469691,5.0636399 3.537918,5.1808128 3.5372,5.1961193 3.5369133,5.2019293 3.521645,5.2285463 3.518427,5.2339883 3.48373,5.2925853 3.442414,5.3468607 3.4108529,5.407414 3.3316629,5.5593577 3.2461612,5.8048113 3.273808,5.977646 c 0.00961,0.040539 0.006,0.090596 0.010698,0.1327852 0.014346,0.1286477 0.048961,0.246106 0.1047665,0.3632381 0.1344217,0.2821404 0.3978134,0.5132456 0.6924179,0.6171299 -0.00266,0.3905084 0.00348,0.7818323 -0.00414,1.1721777 L 2.973015,8.7314032 C 2.8116024,8.7981729 2.6507432,8.8762745 2.4834079,8.9265148 Z"
     id="path17"
     style="stroke-width:0.0204378" />
  <path
     id="path18"
     style="stroke-width:0.0204378;fill:#c5c6c6;fill-opacity:1"
     d="M 5.1523438 6.8671875 C 4.9312316 7.0482356 4.7842119 7.0822057 4.5058594 7.1210938 C 4.5188324 7.5055082 4.5045125 7.8907519 4.5078125 8.2753906 C 4.8534477 8.6803088 5.2536017 9.0484424 5.6308594 9.4238281 C 5.8190129 9.6127717 6.0083909 9.800055 6.1972656 9.9882812 A 5.5049586 5.5049586 0 0 1 6.8261719 8.5605469 C 6.6997313 8.4228021 6.5619785 8.2938505 6.4316406 8.1601562 C 6.0085782 7.7261946 5.5716763 7.304125 5.1523438 6.8671875 z " />
  <path
     id="path21"
     style="stroke-width:0.0204378;fill:#c5c6c6;fill-opacity:1"
     d="M 4.2363281 8.640625 C 4.03405 8.7379261 3.8199042 8.8144997 3.6132812 8.9023438 C 3.3843197 8.9996856 3.1626228 9.1077694 2.9355469 9.2089844 C 2.8236483 9.2588577 2.7047325 9.2977514 2.5957031 9.3535156 C 2.6910833 9.6567099 2.7948088 9.9588746 2.9277344 10.248047 C 3.287941 11.031775 3.8596993 11.772822 4.5390625 12.310547 C 4.8619696 12.56613 5.2094631 12.777797 5.5742188 12.96875 C 5.6064361 12.985517 5.6390843 13.001978 5.671875 13.017578 C 5.8835246 13.110722 6.0915706 13.190229 6.3027344 13.259766 A 5.5049586 5.5049586 0 0 1 5.9902344 11.466797 A 5.5049586 5.5049586 0 0 1 6.09375 10.460938 C 5.3342062 9.6921688 4.3036763 8.660308 4.2558594 8.6425781 C 4.2495064 8.6402302 4.2430881 8.6409516 4.2363281 8.640625 z " />
  <circle
     id="bubble"
     cx="11.5"
     cy="11.5"
     r="4.5"
     style="fill:#000000" />
  <g
     id="exclaim">
    <rect
       id="exclaim-top"
       x="11"
       y="9"
       width="1"
       height="3"
       style="fill:#ffffff" />
    <rect
       id="exclaim-bottom"
       x="11"
       y="13"
       width="1"
       height="1"
       style="fill:#ffffff" />
  </g>
</svg>
