<?xml version="1.0" encoding="UTF-8" standalone="no"?>
<svg
   viewBox="0 0 16 16"
   version="1.1"
   id="svg2"
   sodipodi:docname="sync.svg"
   inkscape:version="1.4 (86a8ad7, 2024-10-11)"
   xmlns:inkscape="http://www.inkscape.org/namespaces/inkscape"
   xmlns:sodipodi="http://sodipodi.sourceforge.net/DTD/sodipodi-0.dtd"
   xmlns="http://www.w3.org/2000/svg"
   xmlns:svg="http://www.w3.org/2000/svg">
  <sodipodi:namedview
     id="namedview2"
     pagecolor="#ffffff"
     bordercolor="#000000"
     borderopacity="0.25"
     inkscape:showpageshadow="2"
     inkscape:pageopacity="0.0"
     inkscape:pagecheckerboard="0"
     inkscape:deskcolor="#d1d1d1"
     inkscape:zoom="80.212426"
     inkscape:cx="-0.29297207"
     inkscape:cy="9.4062733"
     inkscape:window-width="3840"
     inkscape:window-height="2054"
     inkscape:window-x="-11"
     inkscape:window-y="-11"
     inkscape:window-maximized="1"
     inkscape:current-layer="svg2" />
  <defs
     id="defs2">
    <linearGradient
       id="grad"
       gradientUnits="userSpaceOnUse"
       x1="8"
       y1="0"
       x2="8"
       y2="16">
      <stop
         offset="0"
         style="stop-color:#26B6DB"
         id="stop1" />
      <stop
         offset="1"
         style="stop-color:#0882C8"
         id="stop2" />
    </linearGradient>
    <mask
       id="bitemask"
       maskUnits="userSpaceOnUse">
      <g
         id="g2">
        <rect
           id="mask-bg"
           x="0"
           y="0"
           width="16"
           height="16"
           style="fill:#ffffff" />
        <circle
           id="mask-subtract"
           cx="11.5"
           cy="11.5"
           r="5.5"
           style="fill:#000000" />
      </g>
    </mask>
    <linearGradient
       id="gradient_0"
       gradientUnits="userSpaceOnUse"
       x1="488.62427"
       y1="857.04407"
       x2="534.77094"
       y2="167.98694"
       gradientTransform="matrix(0.02049423,0,0,0.02038145,8.5052678,-6.4528129)">
      <stop
         offset="0"
         stop-color="#3DAADA"
         id="stop10" />
      <stop
         offset="1"
         stop-color="#5BCCE8"
         id="stop11" />
    </linearGradient>
    <linearGradient
       id="gradient_1"
       gradientUnits="userSpaceOnUse"
       x1="403.08145"
       y1="534.10596"
       x2="711.38446"
       y2="323.75085"
       gradientTransform="matrix(0.02049423,0,0,0.02038145,8.5052678,-6.4528129)">
      <stop
         offset="0"
         stop-color="#CFCFCE"
         id="stop12" />
      <stop
         offset="1"
         stop-color="white"
         id="stop13" />
    </linearGradient>
  </defs>
  <circle
     id="bubble"
     cx="11.5"
     cy="11.5"
     r="4.5"
     style="fill:#000000" />
  <g
     id="arrows"
     transform="rotate(0 11.5 11.5)">
    <path
       id="arrow-left"
       d="m 11.5,14 0,-1 c -1.5,0 -1.5,0 -1.5,-2 l 1,0 -1.5,-2 -1.5,2 1,0 c 0,3 0,3 2.5,3 z"
       style="fill:#ffffff" />
    <path
       id="arrow-right"
       d="m 11.5,9 0,1 c 1.5,0 1.5,0 1.5,2 l -1,0 1.5,2 1.5,-2 -1,0 C 14,9 14,9 11.5,9 Z"
       style="fill:#ffffff" />
  </g>
  <g
     id="g3"
     transform="translate(-10.970869,4.0143406)">
    <path
       id="path10"
       style="fill:#2c4268;fill-opacity:1;stroke-width:0.0204378"
       d="m 18.931807,-3.999687 c -0.08165,-9.758e-4 -0.162344,1.577e-4 -0.246094,0.00586 -0.0027,1.84e-4 -0.0071,-3.462e-4 -0.0098,0 -0.175529,0.027698 -0.350925,0.035468 -0.527339,0.054687 -0.337909,0.03685 -0.682506,0.086695 -1.013672,0.1640625 -0.52789,0.1233282 -1.172756,0.3588841 -1.658203,0.5996094 -0.208017,0.1031301 -0.40421,0.2235028 -0.603516,0.3417968 -0.234188,0.1389811 -0.468636,0.2843329 -0.685547,0.4492188 -0.176086,0.1338449 -0.338231,0.2908352 -0.503906,0.4375 -0.127146,0.1125668 -0.259042,0.2195151 -0.380859,0.3378906 -0.228757,0.22228 -0.473174,0.5158364 -0.66211,0.7734375 -0.316021,0.4309249 -0.620801,0.8901359 -0.859375,1.3691406 -0.765972,1.5378617 -0.928514,3.2846181 -0.662109,4.9648438 0.05747,0.3624024 0.173698,0.7154136 0.294922,1.0605466 0.0168,0.04888 0.03303,0.0979 0.05078,0.146485 0.01775,0.04856 0.03601,0.09828 0.05469,0.146484 0.01869,0.04823 0.03899,0.09474 0.05859,0.142578 0.01962,0.04786 0.04001,0.09512 0.06055,0.142578 0.02054,0.04746 0.04105,0.09551 0.0625,0.142578 0.02145,0.04705 0.04405,0.09398 0.06641,0.140625 0.02235,0.04665 0.0451,0.09246 0.06836,0.138672 0.02325,0.0462 0.04616,0.09291 0.07031,0.138672 0.02414,0.04575 0.0492,0.09145 0.07422,0.136719 0.02503,0.04529 0.05028,0.08997 0.07617,0.134765 0.02591,0.0448 0.05137,0.09047 0.07813,0.134766 0.02677,0.04428 0.05442,0.08708 0.08203,0.13086 0.02761,0.04377 0.05554,0.08763 0.08398,0.130859 0.02846,0.04324 0.05666,0.08623 0.08594,0.128906 0.02928,0.04269 0.05973,0.08485 0.08984,0.126953 0.0301,0.04213 0.06088,0.08348 0.0918,0.125 0.03091,0.04152 0.06204,0.08406 0.09375,0.125 0.03171,0.04093 0.0632,0.08078 0.0957,0.121094 0.0325,0.04033 0.06634,0.07947 0.09961,0.119141 0.03327,0.03969 0.06557,0.08009 0.09961,0.11914 0.03403,0.03904 0.06873,0.07685 0.103516,0.115235 0.03477,0.03838 0.06994,0.07753 0.105469,0.115234 0.03552,0.03772 0.07119,0.0743 0.107421,0.111328 0.03625,0.03703 0.07438,0.07501 0.111329,0.111328 0.03696,0.03633 0.07367,0.07182 0.111328,0.107422 0.03764,0.03561 0.07496,0.07058 0.113281,0.105469 0.03834,0.03488 0.07819,0.06937 0.117187,0.1035154 0.03899,0.03415 0.07754,0.06818 0.117188,0.101563 0.03966,0.03339 0.07886,0.06698 0.119141,0.09961 0.04029,0.03263 0.08213,0.06386 0.123046,0.0957 0.04091,0.03185 0.08152,0.06269 0.123047,0.09375 0.04152,0.03106 0.08288,0.06154 0.125,0.0918 0.05845,0.04105 0.118219,0.08157 0.177735,0.121094 0.05951,0.03952 0.11916,0.07923 0.179687,0.117188 0.06053,0.03795 0.122097,0.07495 0.183594,0.111328 0.06151,0.03638 0.123107,0.07266 0.185547,0.107422 0.06244,0.03476 0.126125,0.06843 0.189453,0.101562 0.06333,0.03314 0.127218,0.06424 0.191406,0.0957 0.06417,0.03147 0.128379,0.062 0.193359,0.0918 0.06499,0.0298 0.129567,0.05979 0.195313,0.08789 0.06573,0.0281 0.132749,0.05566 0.199219,0.08203 0.06646,0.02637 0.132093,0.05152 0.199218,0.07617 0.06714,0.02465 0.135372,0.04742 0.203125,0.07031 0.06775,0.0229 0.134798,0.04529 0.203125,0.06641 0.06834,0.02113 0.138171,0.04121 0.207032,0.06055 0.06886,0.01935 0.137679,0.0391 0.207031,0.05664 0.06934,0.01756 0.139195,0.03309 0.208984,0.04883 0.06979,0.01573 0.138812,0.03099 0.208985,0.04492 0.271179,0.05297 0.547766,0.08553 0.822265,0.115234 0.07351,0.0079 0.147026,0.027 0.220703,0.0332 0.195782,0.01651 0.602158,0.01831 0.841797,-0.002 a 5.5049586,5.5049586 0 0 1 -1.060545,-0.956981 c -0.01248,-0.0013 -0.02463,-0.0025 -0.03711,-0.0039 -0.05842,-0.0066 -0.117537,-0.01348 -0.175781,-0.02148 -0.05824,-0.008 -0.115803,-0.01596 -0.173829,-0.02539 -0.05804,-0.0094 -0.116048,-0.02042 -0.173828,-0.03125 -0.05778,-0.01085 -0.116334,-0.02292 -0.173828,-0.03516 -0.05749,-0.01225 -0.114709,-0.02346 -0.171875,-0.03711 -0.05718,-0.01366 -0.113112,-0.02793 -0.169922,-0.04297 -0.05682,-0.01504 -0.113494,-0.03239 -0.169922,-0.04883 -0.05643,-0.01643 -0.113917,-0.03297 -0.169921,-0.05078 -0.056,-0.0178 -0.110463,-0.03551 -0.166016,-0.05469 -0.05554,-0.01917 -0.110954,-0.04001 -0.166016,-0.06055 -0.05505,-0.02052 -0.111487,-0.04063 -0.166015,-0.0625 -0.05454,-0.02187 -0.108142,-0.04517 -0.16211,-0.06836 -0.05397,-0.02319 -0.106762,-0.04775 -0.160156,-0.07226 -0.05338,-0.02451 -0.107404,-0.04842 -0.160156,-0.07422 -0.05277,-0.02581 -0.10414,-0.05298 -0.15625,-0.08008 -0.0521,-0.02709 -0.104823,-0.05367 -0.15625,-0.08203 -0.05141,-0.02836 -0.101641,-0.05828 -0.152344,-0.08789 -0.0507,-0.02961 -0.102379,-0.059 -0.152344,-0.089841 -0.04995,-0.03083 -0.09926,-0.06365 -0.148437,-0.0957 -0.04917,-0.03207 -0.09812,-0.06442 -0.146484,-0.09766 -0.04838,-0.03325 -0.09506,-0.06714 -0.142579,-0.101563 -0.04753,-0.03443 -0.09591,-0.06989 -0.142578,-0.105468 -0.04666,-0.03557 -0.0929,-0.07072 -0.138672,-0.107422 -0.04577,-0.03671 -0.08991,-0.07352 -0.134765,-0.111328 -0.04484,-0.03782 -0.08891,-0.07633 -0.132813,-0.115235 -0.0439,-0.0389 -0.08793,-0.07918 -0.130859,-0.11914 -0.04292,-0.03996 -0.08502,-0.0801 -0.126953,-0.121094 -0.04192,-0.04101 -0.08411,-0.08299 -0.125,-0.125 -0.04089,-0.04201 -0.08125,-0.08395 -0.121094,-0.126953 -0.03882,-0.04162 -0.07746,-0.08441 -0.115234,-0.126953 -0.03778,-0.04254 -0.0746,-0.08545 -0.111328,-0.128907 -0.03673,-0.04344 -0.07178,-0.08653 -0.107422,-0.130859 -0.03565,-0.04432 -0.07091,-0.08959 -0.105469,-0.134765 -0.03454,-0.04518 -0.07008,-0.09071 -0.103516,-0.136719 -0.03343,-0.04601 -0.06537,-0.09186 -0.09766,-0.138672 -0.03228,-0.04679 -0.06457,-0.09501 -0.0957,-0.142578 -0.03112,-0.04758 -0.06185,-0.09426 -0.0918,-0.142578 -0.02996,-0.0483 -0.05914,-0.09745 -0.08789,-0.146485 -0.02876,-0.04903 -0.05644,-0.09872 -0.08398,-0.148437 -0.02754,-0.04972 -0.05376,-0.100038 -0.08008,-0.150391 -0.02632,-0.05037 -0.05305,-0.10135 -0.07813,-0.152344 -0.02507,-0.05099 -0.04845,-0.100763 -0.07227,-0.152343 -0.02381,-0.05158 -0.04777,-0.104104 -0.07031,-0.15625 -0.02253,-0.05215 -0.04515,-0.105524 -0.06641,-0.158203 -0.02125,-0.05268 -0.0406,-0.105024 -0.06055,-0.158204 -0.01996,-0.05318 -0.03996,-0.106509 -0.05859,-0.160156 -0.01864,-0.05364 -0.03541,-0.108016 -0.05273,-0.162109 -0.01731,-0.054085 -0.0348,-0.10763 -0.05078,-0.1621156 -0.01599,-0.0545 -0.03224,-0.1092092 -0.04687,-0.1640625 -0.01465,-0.054867 -0.02772,-0.110823 -0.04102,-0.1660157 -0.01328,-0.055207 -0.02518,-0.1105102 -0.03711,-0.1660156 -0.01194,-0.055506 -0.02459,-0.1102383 -0.03516,-0.1660156 -0.01056,-0.055777 -0.0201,-0.1119468 -0.0293,-0.1679688 -0.0092,-0.056021 -0.01758,-0.1117427 -0.02539,-0.1679687 -0.0078,-0.056226 -0.01505,-0.1135199 -0.02148,-0.1699219 -0.0064,-0.056389 -0.01254,-0.1114307 -0.01758,-0.1679687 -0.005,-0.056538 -0.0081,-0.1132752 -0.01172,-0.1699219 -0.0036,-0.056647 -0.0075,-0.1132072 -0.0098,-0.1699219 -0.0023,-0.056715 -0.003,-0.1131665 -0.0039,-0.1699219 -8.61e-4,-0.056756 -0.0025,-0.1151196 -0.002,-0.171875 5.33e-4,-0.056755 0.002,-0.1131932 0.0039,-0.1699218 0.002,-0.057503 0.0045,-0.1144264 0.0078,-0.171875 0.0034,-0.057435 0.0089,-0.1145217 0.01367,-0.171875 0.0048,-0.05734 0.0094,-0.114671 0.01563,-0.171875 0.0062,-0.057218 0.01389,-0.1148344 0.02148,-0.171875 0.0076,-0.057041 0.01443,-0.1130846 0.02344,-0.1699219 0.009,-0.056837 0.0189,-0.115269 0.0293,-0.171875 0.0104,-0.056606 0.02141,-0.1116481 0.0332,-0.1679687 0.01178,-0.056334 0.02589,-0.1138866 0.03906,-0.1699219 0.01317,-0.056022 0.02646,-0.1103196 0.04102,-0.1660157 0.01454,-0.055696 0.029,-0.1126534 0.04492,-0.1679687 0.0159,-0.055328 0.03351,-0.1091545 0.05078,-0.1640625 0.01727,-0.054921 0.03411,-0.1095898 0.05273,-0.1640625 0.01862,-0.054487 0.03865,-0.1100518 0.05859,-0.1640625 0.01995,-0.054011 0.04121,-0.1066483 0.0625,-0.1601562 0.02127,-0.053508 0.04187,-0.1071916 0.06445,-0.1601563 0.02259,-0.052978 0.04643,-0.1057958 0.07031,-0.1582031 0.0239,-0.052408 0.04905,-0.1044407 0.07422,-0.15625 0.02517,-0.05181 0.04974,-0.1031122 0.07617,-0.1542969 0.02644,-0.051185 0.05435,-0.1018251 0.08203,-0.1523437 0.02769,-0.050519 0.05506,-0.1005513 0.08398,-0.1503907 0.02892,-0.049826 0.0597,-0.099318 0.08984,-0.1484375 0.03014,-0.049119 0.06045,-0.098126 0.0918,-0.1464844 0.03134,-0.048372 0.06317,-0.096947 0.0957,-0.1445312 0.03252,-0.047584 0.06592,-0.093843 0.09961,-0.140625 0.03369,-0.046782 0.06674,-0.092732 0.101562,-0.1386719 0.03483,-0.045953 0.07147,-0.091635 0.107422,-0.1367187 0.03595,-0.045084 0.07232,-0.090565 0.109375,-0.1347656 0.03704,-0.044187 0.07515,-0.087583 0.113281,-0.1308594 0.03812,-0.04329 0.07605,-0.086567 0.115235,-0.1289063 0.03918,-0.042339 0.07893,-0.083639 0.11914,-0.125 0.04021,-0.041374 0.07987,-0.082665 0.121094,-0.1230469 0.04121,-0.040382 0.0828,-0.079777 0.125,-0.1191406 0.910888,-0.8352317 2.097085,-1.5039708 3.310548,-1.7753906 0.341413,-0.076369 0.692224,-0.1150701 1.041016,-0.1386719 0.236155,-0.015999 0.474208,-0.02962 0.710937,-0.019531 0.05009,0.00188 0.100357,0.00292 0.150391,0.00586 0.05005,0.00293 0.100425,0.00775 0.15039,0.011719 0.04997,0.00398 0.09857,0.00864 0.148438,0.013672 0.04987,0.00501 0.100644,0.00955 0.15039,0.015625 0.04976,0.00606 0.09883,0.012425 0.148438,0.019531 0.04961,0.00711 0.09898,0.015299 0.148437,0.023437 0.04945,0.00814 0.09917,0.016205 0.148438,0.025391 0.04927,0.00917 0.09937,0.019093 0.148437,0.029297 0.04906,0.010204 0.09764,0.02198 0.146485,0.033203 0.04883,0.011237 0.0979,0.022914 0.146484,0.035156 0.0486,0.012256 0.09622,0.023848 0.144531,0.037109 0.04833,0.013261 0.09651,0.026735 0.144532,0.041016 0.04803,0.014267 0.09487,0.029649 0.142578,0.044922 0.04771,0.015286 0.09715,0.03061 0.144531,0.046875 0.04738,0.016264 0.0936,0.033511 0.140625,0.050781 0.04703,0.017256 0.09398,0.0345 0.140625,0.052734 0.04664,0.018235 0.09241,0.037428 0.138672,0.056641 0.04625,0.019213 0.09283,0.038416 0.138672,0.058594 0.04583,0.020178 0.09132,0.041371 0.136719,0.0625 0.0454,0.021129 0.08982,0.042373 0.134765,0.064453 0.04495,0.02208 0.09031,0.045342 0.134766,0.068359 0.04446,0.023004 0.08885,0.046371 0.132812,0.070312 0.04397,0.023941 0.0874,0.047414 0.13086,0.072266 0.04345,0.024852 0.08795,0.05041 0.130859,0.076172 0.04292,0.025749 0.0846,0.051466 0.126953,0.078125 0.04237,0.026645 0.08517,0.054503 0.126953,0.082031 0.0418,0.027542 0.08185,0.055586 0.123047,0.083984 0.04119,0.028399 0.08247,0.056684 0.123047,0.085937 0.04059,0.029254 0.08115,0.059747 0.121094,0.089844 0.03997,0.030096 0.07983,0.060858 0.11914,0.091797 0.03931,0.030925 0.07854,0.062009 0.117188,0.09375 0.03864,0.031754 0.07727,0.06316 0.115234,0.095703 0.192788,0.1642541 0.388764,0.3351775 0.560547,0.52148432 0.03672,0.03916 0.07355,0.077213 0.109375,0.1171875 0.03582,0.039975 0.07058,0.080304 0.105469,0.1210938 0.03489,0.040777 0.0696,0.083435 0.103516,0.125 0.03395,0.041565 0.06663,0.082675 0.09961,0.125 0.03298,0.042325 0.06564,0.085847 0.09766,0.1289062 0.032,0.043073 0.0647,0.085127 0.0957,0.1289063 0.031,0.043779 0.05985,0.08834 0.08984,0.1328125 0.02999,0.044472 0.06088,0.089628 0.08984,0.1347656 0.02897,0.045152 0.05607,0.090942 0.08398,0.1367188 0.02791,0.04579 0.05517,0.092257 0.08203,0.1386718 0.02686,0.046415 0.0543,0.091659 0.08008,0.1386719 0.02579,0.047 0.05148,0.094994 0.07617,0.1425781 0.02471,0.047584 0.04867,0.094437 0.07227,0.1425782 0.0236,0.048127 0.04587,0.097827 0.06836,0.14648428 0.02248,0.048657 0.04504,0.097338 0.06641,0.1464844 0.02135,0.04916 0.04228,0.098815 0.0625,0.1484375 0.02023,0.049635 0.03952,0.098367 0.05859,0.1484375 0.01907,0.050071 0.03676,0.1018524 0.05469,0.1523437 0.01793,0.050505 0.03597,0.099505 0.05273,0.1503907 0.01677,0.050886 0.03326,0.1030442 0.04883,0.1542969 0.01559,0.051252 0.03052,0.1026908 0.04492,0.1542968 0.0144,0.051593 0.02779,0.1023789 0.04102,0.1542969 0.01321,0.051905 0.0251,0.10406 0.03711,0.15625 0.01203,0.052204 0.02434,0.1057411 0.03516,0.1582031 0.01081,0.052449 0.02164,0.1035574 0.03125,0.15625 0.0096,0.052693 0.01896,0.1053198 0.02734,0.1582032 0.0084,0.052897 0.0143,0.1070829 0.02149,0.1601562 0.0072,0.053073 0.01555,0.1069336 0.02148,0.1601562 0.0019,0.017107 0.0041,0.03366 0.0059,0.050781 a 5.5049586,5.5049586 0 0 1 0.964844,1.0527344 c 0.0112,-0.3663835 -0.01021,-0.7322819 -0.0352,-1.097654 C 26.925711,2.6328985 26.793096,2.065882 26.615247,1.5217993 26.239322,0.371715 25.748178,-0.4995932 24.9297,-1.3942164 c -0.157334,-0.1719785 -0.317686,-0.3469761 -0.494141,-0.5 -0.38193,-0.3312189 -0.789654,-0.6455473 -1.222656,-0.9082031 -0.100812,-0.061144 -0.209496,-0.1123648 -0.3125,-0.1699219 -0.152743,-0.085357 -0.303775,-0.1747347 -0.462891,-0.2480468 -0.221954,-0.1022537 -0.448281,-0.1860285 -0.677734,-0.2695313 -0.104049,-0.037848 -0.205083,-0.084757 -0.310547,-0.1191406 -0.57144,-0.1863067 -1.186909,-0.288136 -1.785156,-0.3398437 -0.248375,-0.021477 -0.487474,-0.047854 -0.732422,-0.050781 z m 0.136719,2.0117187 c -0.08977,0.00134 -0.181079,0.00442 -0.269532,0.00586 -0.170532,0.00277 -0.340667,0.022037 -0.509765,0.042969 -0.100572,0.012623 -0.200988,0.027285 -0.300782,0.044922 -0.09981,0.017637 -0.198092,0.037937 -0.296875,0.060547 -0.09878,0.022595 -0.19741,0.048656 -0.294921,0.076171 -0.09753,0.027515 -0.195021,0.057492 -0.291016,0.089844 -0.09601,0.032352 -0.19091,0.066408 -0.285156,0.1035156 -0.09425,0.037108 -0.187046,0.077372 -0.279297,0.1191406 -0.09225,0.041782 -0.183413,0.084526 -0.273438,0.1308594 -0.09002,0.04632 -0.17806,0.095707 -0.265625,0.1464844 -0.131757,0.077857 -0.258275,0.1677539 -0.384765,0.2539062 -0.29938,0.203896 -0.583428,0.4251738 -0.835938,0.6855469 -0.517766,0.5339327 -1.041017,1.2815213 -1.320312,1.9726562 -0.08177,0.2023878 -0.140536,0.414239 -0.203125,0.6230469 -0.104295,0.3479318 -0.187093,0.683963 -0.220703,1.046875 -0.02576,0.2780437 -0.04462,0.56841 -0.0332,0.8476562 0.0054,0.1318068 0.02758,0.2626431 0.0293,0.3945313 v 0.011719 c 0.02355,0.1780116 0.0527,0.3672057 0.105468,0.5390626 0.03859,0.2494481 0.127594,0.5015095 0.212891,0.7382812 0.05855,0.1625007 0.118959,0.3314247 0.191406,0.4882807 0.08034,0.173955 0.184769,0.343191 0.283203,0.507813 0.480037,0.802785 1.020923,1.372184 1.777344,1.923828 0.548711,0.400153 1.206924,0.682537 1.871094,0.861328 A 5.5049586,5.5049586 0 0 1 17.299,9.2522669 c -0.211008,-0.0695 -0.41936,-0.14911 -0.630859,-0.242188 -0.03279,-0.0156 -0.06544,-0.03206 -0.09766,-0.04883 -0.364757,-0.190953 -0.712249,-0.402618 -1.035157,-0.658201 -0.679363,-0.537725 -1.251121,-1.278772 -1.611328,-2.0625 -0.132925,-0.2891724 -0.236651,-0.5913371 -0.332031,-0.8945314 0.10903,-0.055764 0.227945,-0.094658 0.339844,-0.1445312 0.227076,-0.101215 0.448773,-0.2092988 0.677734,-0.3066406 0.206623,-0.087844 0.420769,-0.1644177 0.623047,-0.2617188 0.0068,3.267e-4 0.01318,-3.869e-4 0.01953,0.00195 0.05107,0.018938 1.075425,1.0469384 1.837891,1.820313 A 5.5049586,5.5049586 0 0 1 17.193526,5.9788286 C 17.004978,5.7909264 16.814948,5.6049457 16.627119,5.4163286 16.249862,5.0409429 15.849708,4.6728093 15.504072,4.2678911 c -0.0033,-0.3846387 0.01102,-0.7698823 -0.002,-1.1542968 0.278353,-0.038888 0.425372,-0.072858 0.646485,-0.2539063 0.419332,0.4369375 0.856234,0.8590071 1.279297,1.2929687 0.130253,0.1336074 0.266205,0.2646994 0.392578,0.4023438 A 5.5049586,5.5049586 0 0 1 18.068526,4.2053911 C 17.946611,4.0802224 17.819433,3.9588815 17.705244,3.8264849 17.507455,3.6203675 17.299574,3.4250547 17.099776,3.2210161 16.880528,2.9971259 16.674457,2.7634176 16.437666,2.5569536 c 0.02431,-0.042108 0.05033,-0.084576 0.07031,-0.1289062 0.14518,-0.3219454 0.104704,-0.6433468 -0.01953,-0.9648438 0.12604,-0.1045568 0.279176,-0.1834335 0.416016,-0.2734375 0.312516,-0.2055877 0.626252,-0.4148066 0.943359,-0.6132812 0.05134,0.048202 0.09653,0.1574018 0.144532,0.21875 0.244537,0.3125291 0.419492,0.3893696 0.783203,0.5 0.01369,0.3866973 0.0052,0.776978 0.0039,1.1640625 l 0.002,0.9453125 a 5.5049586,5.5049586 0 0 1 0.4375,-0.3554688 l 0.0059,-1.7617187 c 0.06576,-0.019016 0.130898,-0.037434 0.195311,-0.060547 0.3309,-0.1188238 0.559104,-0.3504736 0.707031,-0.6640625 0.139198,0.055254 0.284984,0.1694321 0.41211,0.25 0.326842,0.2041677 0.649133,0.4137189 0.96875,0.6289063 -0.03132,0.060349 -0.05937,0.1239881 -0.07813,0.1894531 -0.04231,0.1476703 -0.05127,0.2992033 -0.03516,0.4492187 a 5.5049586,5.5049586 0 0 1 1.095703,-0.125 5.5049586,5.5049586 0 0 1 1.238281,0.1425782 c 0.01905,-0.1618062 0.006,-0.3268696 -0.04492,-0.4902344 -0.0895,-0.2871337 -0.315572,-0.5447793 -0.583984,-0.6816406 -0.0177,-0.00904 -0.03462,-0.017252 -0.05274,-0.025391 -0.01813,-0.00814 -0.03617,-0.016209 -0.05469,-0.023437 -0.01851,-0.00723 -0.03779,-0.015191 -0.05664,-0.021484 -0.01885,-0.0063 -0.0375,-0.010272 -0.05664,-0.015625 -0.01914,-0.00534 -0.03919,-0.011238 -0.05859,-0.015625 -0.01939,-0.00439 -0.039,-0.00829 -0.05859,-0.011719 -0.01958,-0.00341 -0.03885,-0.00537 -0.05859,-0.00781 -0.01973,-0.00243 -0.03875,-0.00441 -0.05859,-0.00586 -0.01984,-0.00145 -0.04067,-0.00344 -0.06055,-0.00391 -0.01988,-4.608e-4 -0.04067,-5.298e-4 -0.06055,0 -0.01988,5.333e-4 -0.03875,0.00239 -0.05859,0.00391 -0.01983,0.00152 -0.03887,0.00336 -0.05859,0.00586 -0.01973,0.00251 -0.04097,0.00433 -0.06055,0.00781 -0.01957,0.00349 -0.03725,0.00921 -0.05664,0.013672 -0.01937,0.00446 -0.03947,0.00827 -0.05859,0.013672 -0.01913,0.00542 -0.03781,0.011218 -0.05664,0.017578 -0.15254,0.0506883 -0.306785,0.1285782 -0.429771,0.2324215 C 21.525305,0.9596544 21.303416,0.8310263 21.09001,0.6917193 20.805304,0.5058609 20.526713,0.304116 20.236494,0.1272661 c -0.0125,-0.4090353 -0.10061,-0.699929 -0.410156,-0.9882812 -0.01437,-0.01333 -0.02991,-0.0244867 -0.04492,-0.0371094 -0.015,-0.0126233 -0.03126,-0.025234 -0.04687,-0.0371094 -0.01562,-0.0118753 -0.0307,-0.0240549 -0.04687,-0.0351562 -0.01618,-0.0111014 -0.03212,-0.0209507 -0.04883,-0.03125 -0.01671,-0.010299 -0.03359,-0.021779 -0.05078,-0.03125 -0.01719,-0.00948 -0.0351,-0.016763 -0.05273,-0.025391 -0.01764,-0.00863 -0.0347,-0.017632 -0.05273,-0.025391 -0.01805,-0.00776 -0.03628,-0.014609 -0.05469,-0.021484 -0.01839,-0.00687 -0.03792,-0.013551 -0.05664,-0.019531 -0.01872,-0.00597 -0.03765,-0.012525 -0.05664,-0.017578 -0.01899,-0.00505 -0.03743,-0.00954 -0.05664,-0.013672 -0.01921,-0.00413 -0.03921,-0.00659 -0.05859,-0.00977 -0.0194,-0.00319 -0.03907,-0.00559 -0.05859,-0.00781 -0.01952,-0.00224 -0.03897,-0.00457 -0.05859,-0.00586 -0.01961,-0.00129 -0.03893,-0.00163 -0.05859,-0.00195 -0.01965,-3.396e-4 -0.03895,-6.248e-4 -0.05859,0 -0.336104,0.013716 -0.655285,0.1475856 -0.882812,0.3964838 -0.256751,0.2808973 -0.326903,0.5615544 -0.324218,0.9316407 -0.213489,0.1147884 -0.411352,0.26321 -0.613282,0.3964843 C 16.847798,0.739229 16.543783,0.9281772 16.242354,1.1175005 16.021938,0.9043309 15.740395,0.7982206 15.43376,0.8010943 c -0.309442,0.002915 -0.604426,0.1135725 -0.820313,0.3378906 -0.224186,0.23296 -0.303642,0.5204805 -0.34375,0.8320312 0.0096,0.040539 0.007,0.090623 0.01172,0.1328125 0.01435,0.1286477 0.04771,0.2461492 0.103516,0.3632813 0.134422,0.2821404 0.398755,0.5113501 0.693359,0.6152344 -0.0027,0.3905084 0.0037,0.7834827 -0.0039,1.1738281 l -1.105465,0.4667969 c -0.161412,0.06677 -0.320946,0.1450721 -0.488281,0.1953124 -0.04898,-0.3963172 -0.08385,-0.8017769 -0.0625,-1.2011718 0.04496,-0.8411014 0.368046,-1.9353973 0.859375,-2.6230469 0.395641,-0.7321423 1.172573,-1.4637526 1.878906,-1.8925781 0.380312,-0.2309014 0.818107,-0.4202962 1.244141,-0.5488282 0.04334,-0.012772 0.08527,-0.025369 0.128906,-0.037109 0.04364,-0.011727 0.0889,-0.022537 0.132813,-0.033203 0.04391,-0.010679 0.0867,-0.021643 0.130859,-0.03125 0.04416,-0.00962 0.08844,-0.018811 0.132812,-0.027344 0.04438,-0.00855 0.09018,-0.015964 0.134766,-0.023437 0.04457,-0.00747 0.08807,-0.015098 0.132813,-0.021484 0.04475,-0.0064 0.08988,-0.012265 0.134765,-0.017578 0.0449,-0.00531 0.08977,-0.00945 0.134766,-0.013672 0.04501,-0.00422 0.08967,-0.00858 0.134765,-0.011719 0.04509,-0.00315 0.09156,-0.00576 0.136719,-0.00781 0.04516,-0.00205 0.08957,-0.00294 0.134766,-0.00391 0.0452,-9.623e-4 0.08957,-0.00209 0.134765,-0.00195 0.04521,1.267e-4 0.09154,7.331e-4 0.136719,0.00195 0.04518,0.00121 0.08962,0.00355 0.134766,0.00586 0.04516,0.00231 0.08969,0.00443 0.134765,0.00781 0.04507,0.0034 0.09174,0.00723 0.136719,0.011719 0.04498,0.00448 0.08991,0.010068 0.134766,0.015625 0.04486,0.00557 0.08811,0.010934 0.132812,0.017578 0.04471,0.00664 0.09023,0.013767 0.134766,0.021484 0.04453,0.00772 0.08849,0.016599 0.132812,0.025391 0.04434,0.00879 0.08871,0.017479 0.132813,0.027344 0.0441,0.00985 0.08897,0.020326 0.132812,0.03125 0.04386,0.010924 0.08729,0.023186 0.13086,0.035156 0.04357,0.011971 0.08759,0.024092 0.130859,0.037109 0.04326,0.01303 0.08596,0.026966 0.128906,0.041016 0.04293,0.014063 0.08437,0.027873 0.126954,0.042969 0.04257,0.015096 0.08475,0.03076 0.126953,0.046875 0.04219,0.016115 0.08519,0.033667 0.126953,0.050781 0.04179,0.017134 0.08363,0.034608 0.125,0.052734 0.04136,0.018126 0.08213,0.037509 0.123047,0.056641 0.04091,0.019117 0.08262,0.038484 0.123047,0.058594 0.04042,0.020096 0.0792,0.039472 0.11914,0.060547 0.03285,0.017677 0.06515,0.036357 0.09766,0.054687 0.03249,0.018329 0.06554,0.037672 0.09766,0.056641 0.03213,0.018968 0.06398,0.03702 0.0957,0.056641 0.03174,0.019607 0.06438,0.040315 0.0957,0.060547 0.03133,0.020246 0.06088,0.03969 0.0918,0.060547 0.03091,0.020871 0.0613,0.042985 0.0918,0.064453 0.03049,0.021469 0.06175,0.042373 0.0918,0.064453 0.03005,0.02208 0.06025,0.045681 0.08984,0.068359 0.02961,0.022664 0.05876,0.045097 0.08789,0.068359 0.02913,0.023262 0.05727,0.04648 0.08594,0.070312 0.02867,0.023847 0.05776,0.047862 0.08594,0.072266 0.02816,0.024403 0.0563,0.049258 0.08398,0.074219 0.02767,0.024961 0.05486,0.050668 0.08203,0.076172 0.02717,0.025504 0.05344,0.050125 0.08008,0.076172 0.02664,0.026047 0.05396,0.053501 0.08008,0.080078 0.02612,0.026563 0.05061,0.052984 0.07617,0.080078 0.02558,0.02708 0.05116,0.054435 0.07617,0.082031 0.02502,0.027597 0.04975,0.055899 0.07422,0.083984 0.02446,0.028085 0.04839,0.055423 0.07227,0.083984 0.02389,0.028575 0.04896,0.058854 0.07227,0.087891 0.02331,0.029037 0.04565,0.058392 0.06836,0.087891 0.02272,0.029499 0.0443,0.057943 0.06641,0.087891 0.02212,0.029947 0.0449,0.061415 0.06641,0.091797 0.0215,0.030382 0.04356,0.060994 0.06445,0.091797 0.02089,0.030803 0.04029,0.060572 0.06055,0.091797 0.02026,0.031211 0.04091,0.062131 0.06055,0.09375 0.01962,0.031605 0.03765,0.063704 0.05664,0.095703 0.01899,0.031999 0.03831,0.065277 0.05664,0.097656 0.01833,0.032365 0.03701,0.064924 0.05469,0.097656 0.01767,0.032733 0.03377,0.06457 0.05078,0.097656 0.01703,0.033072 0.03444,0.066197 0.05078,0.099609 0.01634,0.033412 0.03315,0.067838 0.04883,0.1015625 0.09279,0.2022176 0.165331,0.4107442 0.234375,0.6210938 a 5.5049586,5.5049586 0 0 1 0.498047,0.1953125 c -0.008,-0.030015 -0.015,-0.059945 -0.02344,-0.089844 -0.02182,-0.077354 -0.04558,-0.1539976 -0.07031,-0.2304687 C 24.62244,1.9958943 24.587646,1.8663178 24.537276,1.7425005 24.467002,1.5697678 24.378982,1.4030318 24.291182,1.2385943 23.967927,0.6332654 23.57292,0.113285 23.078291,-0.3629683 c -0.190494,-0.1834126 -0.400434,-0.343963 -0.615234,-0.4980468 -0.05666,-0.041279 -0.113768,-0.0818524 -0.171875,-0.1210938 -0.05811,-0.0392412 -0.116295,-0.0780724 -0.175781,-0.1152344 -0.05947,-0.037149 -0.120868,-0.072393 -0.181641,-0.1074218 -0.06079,-0.035015 -0.121607,-0.068721 -0.183594,-0.1015625 -0.062,-0.032841 -0.124366,-0.06509 -0.1875,-0.095703 -0.06314,-0.030614 -0.127219,-0.059533 -0.191406,-0.087891 -0.06419,-0.028357 -0.128186,-0.05597 -0.193359,-0.082031 -0.06517,-0.026061 -0.131207,-0.050495 -0.197266,-0.074219 -0.06607,-0.023737 -0.132353,-0.046999 -0.199219,-0.068359 -0.06688,-0.021373 -0.133567,-0.041565 -0.201172,-0.060547 -0.06759,-0.018982 -0.136845,-0.036171 -0.205078,-0.052734 -0.06825,-0.016563 -0.136299,-0.03273 -0.205078,-0.046875 -0.06879,-0.014131 -0.137774,-0.025424 -0.207031,-0.037109 -0.06924,-0.011672 -0.139359,-0.023977 -0.208985,-0.033203 -0.06963,-0.00921 -0.139071,-0.016698 -0.208984,-0.023437 -0.06993,-0.00674 -0.13888,-0.011372 -0.208984,-0.015625 -0.08822,-0.00542 -0.177811,-0.00524 -0.267578,-0.00391 z m -0.07227,1.2148438 c 0.181558,0.0094 0.369905,0.068666 0.513672,0.1816406 0.172643,0.1356792 0.288727,0.3703424 0.3125,0.5859375 C 19.846553,0.2130242 19.762,0.4415206 19.623213,0.609688 19.467969,0.7977883 19.245876,0.8806005 19.007979,0.9046099 18.813939,0.8979044 18.63346,0.8514673 18.480635,0.7268755 18.304098,0.5829621 18.1919,0.3603751 18.172041,0.1350786 c -0.01922,-0.2181222 0.05084,-0.4552464 0.19336,-0.6230469 0.161105,-0.1897309 0.389642,-0.2641226 0.630859,-0.2851562 z" />
    <path
       id="path11"
       style="fill:url(#gradient_0);stroke-width:0.0204378"
       d="m 18.861494,-3.0563276 c -0.118718,0.00414 -0.237391,0.011531 -0.355468,0.019531 -0.348792,0.023602 -0.699603,0.062303 -1.041016,0.1386719 -1.213463,0.2714198 -2.399665,0.9402318 -3.310547,1.7753906 -0.0422,0.039363 -0.08379,0.078758 -0.125,0.1191406 -0.04122,0.040383 -0.08088,0.081673 -0.121094,0.1230469 -0.04021,0.041361 -0.07996,0.082661 -0.11914,0.125 -0.03918,0.042339 -0.07712,0.085616 -0.115235,0.1289063 -0.03813,0.043277 -0.07624,0.086673 -0.113281,0.1308594 -0.03705,0.0442 -0.07343,0.089682 -0.109375,0.1347656 -0.03595,0.045084 -0.07259,0.088812 -0.107422,0.1347656 -0.03483,0.04594 -0.06787,0.093843 -0.101562,0.140625 -0.03369,0.046782 -0.06709,0.093041 -0.09961,0.140625 -0.03253,0.047584 -0.06436,0.096159 -0.0957,0.1445312 -0.03134,0.048358 -0.06166,0.097365 -0.0918,0.1464844 -0.03014,0.049119 -0.06092,0.098612 -0.08984,0.1484375 -0.02892,0.04984 -0.05629,0.099872 -0.08398,0.1503907 -0.02768,0.050519 -0.05559,0.101159 -0.08203,0.1523437 -0.02644,0.051185 -0.051,0.1024875 -0.07617,0.1542969 -0.02517,0.05181 -0.05032,0.1038426 -0.07422,0.15625 -0.02388,0.052408 -0.04773,0.1052251 -0.07031,0.1582031 -0.02258,0.052965 -0.04318,0.1066482 -0.06445,0.1601563 -0.02129,0.053508 -0.04255,0.1061455 -0.0625,0.1601562 -0.01995,0.054011 -0.03997,0.1095758 -0.05859,0.1640625 -0.01862,0.054473 -0.03546,0.1091412 -0.05273,0.1640625 -0.01727,0.054908 -0.03488,0.1087338 -0.05078,0.1640625 -0.01592,0.055316 -0.03039,0.1122734 -0.04492,0.1679687 -0.01455,0.055696 -0.02784,0.1099937 -0.04102,0.1660157 -0.01317,0.056035 -0.02729,0.1135872 -0.03906,0.1699219 -0.01179,0.056321 -0.02281,0.1113627 -0.0332,0.1679687 -0.0104,0.056606 -0.02031,0.1150377 -0.0293,0.171875 -0.009,0.056837 -0.01584,0.1128812 -0.02344,0.1699219 -0.0076,0.057041 -0.01529,0.1146576 -0.02148,0.171875 -0.0062,0.057204 -0.01084,0.114535 -0.01563,0.171875 -0.0048,0.057354 -0.01031,0.1144403 -0.01367,0.171875 -0.0034,0.057449 -0.0059,0.1143723 -0.0078,0.171875 -0.0019,0.056729 -0.0034,0.1131665 -0.0039,0.1699218 -5.19e-4,0.056756 0.0011,0.1131666 0.002,0.1699219 8.74e-4,0.056756 0.0017,0.1151604 0.0039,0.171875 0.0023,0.056715 0.0061,0.1132752 0.0098,0.1699219 0.0037,0.056647 0.0067,0.1133839 0.01172,0.1699219 0.005,0.056538 0.01116,0.1115801 0.01758,0.1679687 0.0064,0.056403 0.01367,0.1136966 0.02148,0.1699219 0.0078,0.056226 0.01621,0.1119474 0.02539,0.1679687 0.0092,0.056022 0.01874,0.1121921 0.0293,0.1679688 0.01056,0.055778 0.02322,0.1105103 0.03516,0.1660156 0.01193,0.055505 0.02383,0.110809 0.03711,0.1660156 0.01329,0.055193 0.02637,0.111149 0.04102,0.1660157 0.01463,0.054853 0.03089,0.1095618 0.04687,0.1640625 0.01599,0.054485 0.03347,0.1080296 0.05078,0.1621096 0.01732,0.05409 0.0341,0.108462 0.05273,0.162109 0.01864,0.05365 0.03863,0.106976 0.05859,0.160156 0.01995,0.05318 0.0393,0.105523 0.06055,0.158204 0.02126,0.05268 0.04388,0.106056 0.06641,0.158203 0.02254,0.05215 0.0465,0.10467 0.07031,0.15625 0.02381,0.05158 0.04719,0.10135 0.07227,0.152343 0.02507,0.051 0.05181,0.101977 0.07813,0.152344 0.02631,0.05035 0.05253,0.100671 0.08008,0.150391 0.02754,0.04971 0.05522,0.09941 0.08398,0.148437 0.02875,0.04903 0.05793,0.09818 0.08789,0.146485 0.02995,0.04831 0.06067,0.09499 0.0918,0.142578 0.03114,0.04757 0.06342,0.09579 0.0957,0.142578 0.03228,0.04681 0.06422,0.09267 0.09766,0.138672 0.03343,0.04601 0.06898,0.09154 0.103515,0.136719 0.03455,0.04518 0.06982,0.09044 0.105469,0.134765 0.03565,0.04434 0.0707,0.08742 0.107422,0.130859 0.03673,0.04346 0.07355,0.08637 0.111328,0.128907 0.03778,0.04254 0.07642,0.08533 0.115235,0.126953 0.03984,0.04301 0.0802,0.08494 0.121093,0.126953 0.04089,0.04201 0.08308,0.08399 0.125,0.125 0.04193,0.041 0.08404,0.08113 0.126953,0.121094 0.04293,0.03996 0.08696,0.08024 0.13086,0.11914 0.0439,0.0389 0.08797,0.07742 0.132812,0.115235 0.04486,0.03782 0.089,0.07462 0.134766,0.111328 0.04577,0.0367 0.09201,0.07185 0.138672,0.107422 0.04667,0.03557 0.09505,0.07104 0.142578,0.105468 0.04752,0.03442 0.09421,0.06832 0.142578,0.101563 0.04838,0.03325 0.09731,0.0656 0.146484,0.09766 0.04917,0.03205 0.09849,0.06487 0.148438,0.0957 0.04997,0.03085 0.101641,0.060239 0.152344,0.08984 0.0507,0.02961 0.10093,0.05758 0.152343,0.08594 0.05143,0.02836 0.104155,0.05689 0.15625,0.08398 0.05211,0.02709 0.103485,0.05426 0.15625,0.08008 0.05275,0.0258 0.106776,0.04971 0.160157,0.07422 0.05339,0.02451 0.106188,0.04907 0.160156,0.07226 0.05397,0.0232 0.107567,0.0465 0.162109,0.06836 0.05453,0.02187 0.110969,0.04198 0.166016,0.0625 0.05506,0.02053 0.110476,0.04137 0.166016,0.06055 0.05555,0.01917 0.110011,0.03687 0.166015,0.05469 0.056,0.0178 0.113495,0.03435 0.169922,0.05078 0.05643,0.01644 0.113098,0.03183 0.169922,0.04687 0.05681,0.01505 0.112743,0.03127 0.169922,0.04492 0.05716,0.01366 0.114381,0.02487 0.171875,0.03711 0.05749,0.01225 0.116048,0.02432 0.173828,0.03516 0.05778,0.01083 0.115788,0.02184 0.173828,0.03125 0.05803,0.0094 0.115584,0.0174 0.173828,0.02539 0.05824,0.008 0.117359,0.01495 0.175781,0.02148 0.01248,0.0014 0.02463,0.0026 0.03711,0.0039 A 5.5049586,5.5049586 0 0 1 17.474776,9.7268755 c -0.664173,-0.178765 -1.322383,-0.461175 -1.871094,-0.861328 -0.756422,-0.551644 -1.297308,-1.121043 -1.777344,-1.923828 -0.09843,-0.164622 -0.202866,-0.333858 -0.283203,-0.507813 -0.07245,-0.156856 -0.132854,-0.32578 -0.191406,-0.488281 -0.0853,-0.2367717 -0.1743,-0.4888331 -0.212891,-0.7382812 -0.05277,-0.1718569 -0.08192,-0.361051 -0.105469,-0.5390626 V 4.656563 c -0.0017,-0.1318883 -0.02393,-0.2627245 -0.0293,-0.3945313 -0.01141,-0.2792461 0.0074,-0.5696125 0.0332,-0.8476562 0.03361,-0.362912 0.116408,-0.6989432 0.220703,-1.046875 0.06259,-0.2088079 0.121353,-0.4206591 0.203125,-0.6230469 0.279295,-0.6911349 0.802546,-1.4387235 1.320312,-1.9726562 0.25251,-0.2603731 0.536558,-0.4816509 0.835938,-0.6855469 0.12649,-0.0861523 0.253008,-0.1760491 0.384765,-0.2539062 0.08756,-0.050777 0.175601,-0.1001642 0.265625,-0.1464844 0.09003,-0.046334 0.181186,-0.089078 0.273438,-0.1308594 0.09225,-0.041768 0.185051,-0.082033 0.279297,-0.1191406 0.09425,-0.037108 0.189147,-0.071164 0.285156,-0.1035156 0.096,-0.032352 0.19349,-0.062329 0.291016,-0.089844 0.09751,-0.027515 0.196139,-0.053576 0.294921,-0.076172 0.09878,-0.02261 0.197069,-0.04291 0.296875,-0.060547 0.09979,-0.017637 0.20021,-0.032302 0.300782,-0.044922 0.169098,-0.020932 0.339233,-0.040199 0.509765,-0.042969 0.176907,-0.00288 0.360675,-0.012796 0.53711,-0.00195 0.0701,0.00425 0.139058,0.00889 0.208984,0.015625 0.06991,0.00674 0.139359,0.014225 0.208984,0.023437 0.06963,0.00923 0.139742,0.021531 0.208985,0.033203 0.06926,0.011685 0.138239,0.022978 0.207031,0.037109 0.06878,0.014145 0.136833,0.030312 0.205078,0.046875 0.06823,0.016563 0.137489,0.033752 0.205078,0.052734 0.0676,0.018982 0.134293,0.039173 0.201172,0.060547 0.06687,0.02136 0.133146,0.044622 0.199219,0.068359 0.06606,0.023724 0.132094,0.048158 0.197266,0.074219 0.06517,0.026061 0.129171,0.053674 0.193359,0.082031 0.06419,0.028357 0.128273,0.057277 0.191406,0.087891 0.06314,0.030613 0.1255,0.062862 0.1875,0.095703 0.06199,0.032841 0.122807,0.066547 0.183594,0.1015625 0.06077,0.035029 0.122167,0.070273 0.181641,0.1074218 0.05949,0.037163 0.117674,0.075994 0.175781,0.1152344 0.05811,0.039241 0.115215,0.079814 0.171875,0.1210938 0.214801,0.1540838 0.424741,0.3146342 0.615234,0.4980468 0.494629,0.4762533 0.889635,0.9962337 1.212891,1.6015626 0.0878,0.1644374 0.17582,0.3311735 0.246094,0.5039062 0.05037,0.1238173 0.08517,0.2534158 0.125,0.3808594 0.02473,0.076471 0.04849,0.1531143 0.07031,0.2304687 0.0084,0.029899 0.01544,0.059829 0.02344,0.089844 a 5.5049586,5.5049586 0 0 1 1.279296,0.8066406 c -0.0018,-0.017121 -0.004,-0.033674 -0.0059,-0.050781 -0.006,-0.053223 -0.01236,-0.1070829 -0.01953,-0.1601562 -0.0072,-0.053073 -0.01505,-0.1072596 -0.02344,-0.1601562 -0.0084,-0.052883 -0.01772,-0.1055105 -0.02734,-0.1582032 -0.0096,-0.052693 -0.02044,-0.103802 -0.03125,-0.15625 -0.01082,-0.052461 -0.02118,-0.1059991 -0.0332,-0.1582031 -0.01201,-0.05219 -0.02585,-0.1043453 -0.03906,-0.15625 -0.01323,-0.051919 -0.02662,-0.1027049 -0.04102,-0.1542969 -0.01441,-0.051606 -0.02933,-0.1030442 -0.04492,-0.1542968 -0.01557,-0.051252 -0.03206,-0.1034109 -0.04883,-0.1542969 -0.01677,-0.050886 -0.03481,-0.099885 -0.05273,-0.1503907 -0.01793,-0.050491 -0.03561,-0.102273 -0.05469,-0.1523437 -0.01907,-0.050071 -0.03836,-0.098802 -0.05859,-0.1484375 -0.02022,-0.049622 -0.04115,-0.099278 -0.0625,-0.1484375 -0.02137,-0.049146 -0.04393,-0.097827 -0.06641,-0.1464844 -0.02249,-0.048657 -0.04477,-0.098357 -0.06836,-0.1464843 -0.0236,-0.048141 -0.04757,-0.094994 -0.07227,-0.1425782 -0.02469,-0.047583 -0.05039,-0.095578 -0.07617,-0.1425781 -0.02579,-0.047013 -0.05127,-0.092257 -0.07813,-0.1386719 -0.02686,-0.046415 -0.05607,-0.092895 -0.08399,-0.1386718 -0.02791,-0.045791 -0.05502,-0.091568 -0.08398,-0.1367188 -0.02897,-0.045138 -0.05986,-0.090294 -0.08984,-0.1347656 -0.02999,-0.044472 -0.05884,-0.089033 -0.08984,-0.1328125 -0.031,-0.043779 -0.0637,-0.085834 -0.0957,-0.1289063 -0.03201,-0.043059 -0.06468,-0.086581 -0.09766,-0.1289062 -0.03298,-0.042325 -0.06566,-0.083435 -0.09961,-0.125 -0.03394,-0.041564 -0.06862,-0.084223 -0.103516,-0.125 -0.03489,-0.04079 -0.06964,-0.081119 -0.105469,-0.1210938 -0.03582,-0.039975 -0.07265,-0.078028 -0.109375,-0.1171875 -0.171744,-0.1863084 -0.36772,-0.3572318 -0.560508,-0.5214859 -0.03797,-0.032543 -0.07659,-0.063949 -0.115234,-0.095703 -0.03865,-0.031741 -0.07788,-0.062825 -0.117188,-0.09375 -0.0393,-0.030939 -0.07917,-0.0617 -0.11914,-0.091797 -0.03995,-0.030097 -0.0805,-0.06059 -0.121094,-0.089844 -0.04058,-0.029255 -0.08185,-0.057539 -0.123047,-0.085937 -0.04119,-0.028398 -0.08125,-0.056442 -0.123047,-0.083984 -0.04178,-0.027529 -0.08459,-0.055386 -0.126953,-0.082031 -0.04236,-0.026659 -0.08404,-0.052376 -0.126953,-0.078125 -0.04292,-0.025762 -0.08741,-0.05132 -0.130859,-0.076172 -0.04346,-0.024852 -0.08689,-0.048324 -0.13086,-0.072266 -0.04397,-0.023941 -0.08835,-0.047308 -0.132812,-0.070312 -0.04446,-0.023017 -0.08981,-0.046279 -0.134766,-0.068359 -0.04494,-0.02208 -0.08937,-0.043324 -0.134765,-0.064453 -0.0454,-0.021129 -0.09089,-0.042323 -0.136719,-0.0625 -0.04584,-0.020178 -0.09243,-0.039381 -0.138672,-0.058594 -0.04626,-0.019213 -0.09202,-0.038406 -0.138672,-0.056641 -0.04665,-0.018235 -0.0936,-0.035478 -0.140625,-0.052734 -0.04703,-0.01727 -0.09324,-0.034517 -0.140625,-0.050781 -0.04738,-0.016278 -0.09682,-0.031602 -0.144531,-0.046875 -0.04771,-0.015273 -0.09455,-0.030655 -0.142578,-0.044922 -0.04802,-0.014282 -0.09621,-0.027755 -0.144532,-0.041017 -0.04831,-0.013261 -0.09593,-0.024853 -0.144531,-0.037109 -0.04858,-0.012243 -0.09765,-0.02392 -0.146484,-0.035156 -0.04885,-0.011223 -0.09742,-0.022998 -0.146485,-0.033203 -0.04906,-0.010205 -0.09917,-0.020125 -0.148437,-0.029297 -0.04927,-0.00919 -0.09899,-0.017252 -0.148438,-0.025391 -0.04946,-0.00814 -0.09883,-0.016331 -0.148437,-0.023437 -0.04961,-0.00711 -0.09868,-0.013471 -0.148438,-0.019531 -0.04975,-0.00607 -0.100521,-0.010611 -0.15039,-0.015625 -0.04987,-0.00503 -0.09847,-0.00969 -0.148438,-0.013672 -0.04997,-0.00397 -0.100344,-0.00878 -0.15039,-0.011719 -0.05003,-0.00293 -0.100303,-0.00398 -0.150391,-0.00586 -0.118364,-0.00504 -0.236751,-0.00414 -0.355469,-3e-7 z" />
    <path
       id="path13"
       style="fill:url(#gradient_1);stroke-width:0.0204378"
       d="m 19.004072,-1.577812 c -0.0452,-1.4e-4 -0.08957,9.865e-4 -0.134765,0.00195 -0.0452,9.6e-4 -0.08961,0.00185 -0.134766,0.00391 -0.04516,0.00205 -0.09163,0.00466 -0.136719,0.00781 -0.0451,0.00314 -0.08976,0.00749 -0.134765,0.011719 -0.04499,0.00423 -0.08987,0.00836 -0.134766,0.013672 -0.04488,0.00531 -0.09002,0.011178 -0.134765,0.017578 -0.04475,0.00639 -0.08824,0.014011 -0.132813,0.021484 -0.04458,0.00747 -0.09039,0.014891 -0.134766,0.023437 -0.04438,0.00853 -0.08865,0.017724 -0.132812,0.027344 -0.04416,0.00961 -0.08695,0.02057 -0.130859,0.03125 -0.04391,0.010667 -0.08917,0.021477 -0.132813,0.033203 -0.04364,0.011739 -0.08557,0.024337 -0.128906,0.037109 -0.426034,0.1285282 -0.863829,0.3179295 -1.244141,0.5488309 -0.706333,0.4288255 -1.483265,1.1604357 -1.878906,1.8925781 0.0655,-0.032202 0.07229,-0.136269 0.130859,-0.171875 0.03474,0.022848 0.03965,0.05706 0.04883,0.095703 0.0092,0.038684 0.07689,0.1546159 0.07617,0.1699219 -2.87e-4,0.00581 -0.01631,0.033622 -0.01953,0.039063 -0.0347,0.058596 -0.07586,0.1132744 -0.107422,0.1738277 -0.07919,0.1519437 -0.164365,0.3974778 -0.136719,0.5703125 0.04011,-0.3115508 0.119564,-0.5990713 0.34375,-0.8320312 0.215887,-0.2243182 0.510871,-0.334976 0.820313,-0.3378906 0.306635,-0.002874 0.588178,0.1032367 0.808594,0.3164062 0.301429,-0.1893232 0.605444,-0.3782714 0.902343,-0.5742188 0.20193,-0.1332742 0.399793,-0.2816959 0.613282,-0.3964843 -0.0027,-0.3700863 0.06747,-0.6507434 0.324218,-0.9316407 0.227527,-0.2488981 0.546707,-0.3827642 0.882813,-0.3964843 0.01965,-6.248e-4 0.03895,-3.396e-4 0.05859,0 0.01966,3.266e-4 0.03899,6.598e-4 0.05859,0.00195 0.01962,0.00129 0.03907,0.00362 0.05859,0.00586 0.01952,0.00223 0.03919,0.00462 0.05859,0.00781 0.01939,0.00318 0.03938,0.00563 0.05859,0.00977 0.01921,0.00413 0.03765,0.00862 0.05664,0.013672 0.01899,0.00505 0.03792,0.011611 0.05664,0.017578 0.01872,0.00598 0.03825,0.012656 0.05664,0.019531 0.0184,0.00688 0.03664,0.013726 0.05469,0.021484 0.01804,0.00776 0.0351,0.016763 0.05273,0.025391 0.01764,0.00863 0.03555,0.015907 0.05273,0.025391 0.01719,0.00947 0.03407,0.020951 0.05078,0.03125 0.01671,0.010299 0.03265,0.020149 0.04883,0.03125 0.01618,0.011101 0.03126,0.023281 0.04687,0.035156 0.01562,0.011876 0.03187,0.024487 0.04687,0.037109 0.01501,0.012623 0.03055,0.02378 0.04492,0.037109 0.309545,0.2883566 0.397655,0.5792459 0.410156,0.9882812 0.290219,0.1768498 0.56881,0.3785949 0.853516,0.5644532 0.213406,0.1393071 0.435296,0.2679351 0.654297,0.3984374 0.122987,-0.1038433 0.277186,-0.1817428 0.429687,-0.2324218 0.01883,-0.00636 0.03751,-0.012158 0.05664,-0.017578 0.01913,-0.0054 0.03922,-0.00921 0.05859,-0.013672 0.01939,-0.00446 0.03707,-0.010179 0.05664,-0.013672 0.01958,-0.00348 0.04082,-0.0053 0.06055,-0.00781 0.01973,-0.0025 0.03877,-0.00434 0.05859,-0.00586 0.01984,-0.00152 0.04067,-0.00338 0.06055,-0.00391 0.01988,-5.312e-4 0.03871,-4.622e-4 0.05859,0 0.01988,4.6e-4 0.04071,0.00245 0.06055,0.00391 0.01984,0.00145 0.03887,0.00343 0.05859,0.00586 0.01974,0.00244 0.03901,0.0044 0.05859,0.00781 0.01959,0.00343 0.03921,0.00733 0.05859,0.011719 0.0194,0.00439 0.03945,0.010285 0.05859,0.015625 0.01914,0.00535 0.03779,0.00932 0.05664,0.015625 0.01885,0.00629 0.03813,0.014256 0.05664,0.021484 0.01851,0.00723 0.03655,0.015299 0.05469,0.023437 0.01812,0.00814 0.03504,0.016355 0.05274,0.025391 0.268412,0.1368613 0.494484,0.3945069 0.583984,0.6816406 0.05091,0.1633487 0.06591,0.3284435 0.04687,0.4902344 a 5.5049586,5.5049586 0 0 1 0.53125,0.1523437 C 24.192481,2.0387523 24.116857,1.8306134 24.02355,1.6272642 24.00788,1.5935402 23.99106,1.5591142 23.97472,1.5257017 23.95838,1.4922897 23.94096,1.4591647 23.92394,1.4260927 23.90693,1.3930067 23.89084,1.3611687 23.87316,1.3284367 23.85548,1.2957037 23.83681,1.2631467 23.81847,1.2307807 23.80014,1.1984017 23.78082,1.1651227 23.76183,1.1331247 23.74284,1.1011257 23.72481,1.0690257 23.70519,1.0374217 23.68556,1.0058027 23.6649,0.9748827 23.64464,0.9436717 23.62438,0.9124477 23.60499,0.8826777 23.58409,0.8518747 23.5632,0.8210717 23.54114,0.7904597 23.51964,0.7600777 23.49813,0.7296957 23.47535,0.6982277 23.45323,0.6682807 23.43112,0.6383337 23.40954,0.6098887 23.38682,0.5803897 23.36414,0.5508925 23.34179,0.5215372 23.31849,0.4925005 23.29518,0.4634638 23.2701,0.4331845 23.24622,0.4046099 c -0.02388,-0.028561 -0.04781,-0.055899 -0.07227,-0.083984 -0.02447,-0.028085 -0.0492,-0.056388 -0.07422,-0.083984 -0.02502,-0.027597 -0.0506,-0.054951 -0.07617,-0.082031 -0.02557,-0.027093 -0.05005,-0.053514 -0.07617,-0.080078 -0.02611,-0.026577 -0.05344,-0.052078 -0.08008,-0.078125 -0.02665,-0.026047 -0.05292,-0.052621 -0.08008,-0.078125 -0.02717,-0.025504 -0.05437,-0.051211 -0.08203,-0.076172 -0.02768,-0.024961 -0.05582,-0.049815 -0.08398,-0.074219 -0.02817,-0.024403 -0.05727,-0.04842 -0.08594,-0.072266 -0.02867,-0.023833 -0.05681,-0.047051 -0.08594,-0.070312 -0.02913,-0.023262 -0.05828,-0.045695 -0.08789,-0.068359 -0.02959,-0.022678 -0.0598,-0.046279 -0.08984,-0.068359 -0.03005,-0.022079 -0.05935,-0.042985 -0.08984,-0.064453 -0.03049,-0.021469 -0.06284,-0.043582 -0.09375,-0.064453 -0.03092,-0.020857 -0.06047,-0.040301 -0.0918,-0.060547 -0.03133,-0.020232 -0.06396,-0.04094 -0.0957,-0.060547 -0.03173,-0.01962 -0.06357,-0.037672 -0.0957,-0.056641 -0.03212,-0.018968 -0.06516,-0.038311 -0.09766,-0.056641 -0.03251,-0.01833 -0.0648,-0.03701 -0.09766,-0.054687 -0.03994,-0.021075 -0.07871,-0.040451 -0.11914,-0.060547 -0.04043,-0.020109 -0.08214,-0.039476 -0.123047,-0.058594 -0.04092,-0.019131 -0.08169,-0.038515 -0.123047,-0.056641 -0.04137,-0.018126 -0.08321,-0.0356 -0.125,-0.052734 -0.0418,-0.017121 -0.08476,-0.034667 -0.126953,-0.050781 -0.0422,-0.016116 -0.08438,-0.03178 -0.126952,-0.046876 -0.04259,-0.015096 -0.08402,-0.028905 -0.126954,-0.042969 -0.04294,-0.014049 -0.08565,-0.027985 -0.128906,-0.041016 -0.04327,-0.013017 -0.08729,-0.025139 -0.130859,-0.037109 -0.04357,-0.011971 -0.087,-0.024232 -0.13086,-0.035156 -0.04384,-0.010925 -0.08871,-0.021399 -0.132812,-0.03125 -0.0441,-0.00986 -0.08848,-0.018552 -0.132813,-0.027344 -0.04432,-0.00879 -0.08828,-0.017673 -0.132812,-0.025391 -0.04454,-0.00772 -0.09006,-0.014838 -0.134766,-0.021484 -0.0447,-0.00664 -0.08796,-0.012005 -0.132812,-0.017578 -0.04485,-0.00555 -0.08979,-0.011138 -0.134766,-0.015625 -0.04498,-0.00448 -0.09164,-0.00832 -0.136719,-0.011719 -0.04507,-0.00339 -0.08961,-0.00551 -0.134765,-0.00781 -0.04514,-0.00231 -0.08958,-0.00465 -0.134766,-0.00586 -0.04518,-0.00122 -0.09151,-0.00183 -0.136719,-0.00195 z" />
    <path
       fill="#7ccdf4"
       d="M 19.008252,0.9052155 C 18.814213,0.89851 18.632614,0.8520199 18.479788,0.7274281 18.303251,0.5835147 18.191434,0.3605824 18.171575,0.1352859 c -0.01922,-0.2181222 0.05142,-0.4548119 0.193937,-0.6226124 0.161105,-0.1897309 0.390497,-0.2639397 0.631714,-0.2849733 0.181559,0.0094 0.368937,0.067891 0.512705,0.1808649 0.172643,0.1356792 0.287923,0.3704123 0.311696,0.5860074 0.02412,0.2185706 -0.06017,0.4466797 -0.198958,0.6148471 -0.155243,0.1881003 -0.37652,0.2717865 -0.614417,0.2957959 z"
       id="path14"
       style="stroke-width:0.0204378" />
    <path
       id="path15"
       style="fill:#ebebeb;fill-opacity:1;stroke-width:0.0204378"
       d="m 20.127119,0.562813 c -0.147927,0.3135889 -0.376131,0.5452387 -0.707031,0.6640625 -0.06441,0.023113 -0.129546,0.041531 -0.195312,0.060547 l -0.0059,1.7617187 a 5.5049586,5.5049586 0 0 1 2.173827,-0.96875 c -0.016,-0.1497798 -0.0051,-0.3017888 0.03711,-0.4492187 0.01876,-0.065465 0.04682,-0.1291041 0.07813,-0.1894531 -0.319618,-0.2151874 -0.641912,-0.4247386 -0.968754,-0.6289063 -0.127126,-0.080568 -0.272912,-0.194746 -0.41211,-0.25 z" />
    <path
       id="path16"
       style="fill:#ebebeb;fill-opacity:1;stroke-width:0.0204378"
       d="m 17.847822,0.5764849 c -0.317107,0.1984746 -0.630843,0.4076935 -0.943359,0.6132812 -0.13684,0.090004 -0.289976,0.1688807 -0.416016,0.2734375 0.124236,0.321497 0.164713,0.6428984 0.01953,0.9648438 -0.01998,0.04433 -0.04601,0.086798 -0.07031,0.1289062 0.23679,0.206464 0.442862,0.4401723 0.662109,0.6640625 0.199798,0.2040386 0.407679,0.3993514 0.605469,0.6054688 0.114183,0.1323905 0.243325,0.2517907 0.365234,0.3769531 a 5.5049586,5.5049586 0 0 1 0.710938,-0.7988281 l -0.002,-0.9453125 c 0.0013,-0.3870845 0.0098,-0.7773652 -0.0039,-1.1640625 -0.363711,-0.1106304 -0.538666,-0.1874709 -0.783203,-0.5 -0.048,-0.061348 -0.09319,-0.170548 -0.144531,-0.21875 z" />
    <path
       fill="#c5c6c6"
       d="m 13.479668,4.9190153 c -0.04898,-0.3963173 -0.08356,-0.8030494 -0.0622,-1.2024443 0.04496,-0.8411014 0.368425,-1.9340769 0.859753,-2.6217265 0.0655,-0.032203 0.07183,-0.1375137 0.130405,-0.1731201 0.03474,0.022848 0.03996,0.057088 0.04914,0.095732 0.0092,0.038684 0.07741,0.1558569 0.07669,0.1711634 -2.87e-4,0.00581 -0.01555,0.032427 -0.01877,0.037869 -0.0347,0.058597 -0.07601,0.1128724 -0.107574,0.1734257 -0.07919,0.1519437 -0.164692,0.3973973 -0.137045,0.570232 0.0096,0.040539 0.006,0.090596 0.0107,0.1327852 0.01435,0.1286477 0.04896,0.246106 0.104767,0.3632381 0.134421,0.2821404 0.397813,0.5132456 0.692417,0.6171299 -0.0027,0.3905084 0.0035,0.7818323 -0.0041,1.1721777 l -1.104535,0.4684263 c -0.161413,0.06677 -0.322272,0.1448713 -0.489607,0.1951116 z"
       id="path17"
       style="stroke-width:0.0204378" />
    <path
       id="path18"
       style="fill:#c5c6c6;fill-opacity:1;stroke-width:0.0204378"
       d="m 16.148604,2.859688 c -0.221112,0.1810481 -0.368132,0.2150182 -0.646485,0.2539063 0.01297,0.3844144 -0.0014,0.7696581 0.0019,1.1542968 0.345636,0.4049182 0.74579,0.7730518 1.123047,1.1484375 0.188154,0.1889436 0.377532,0.3762269 0.566406,0.5644531 a 5.5049586,5.5049586 0 0 1 0.62891,-1.4277343 C 17.695991,4.4153026 17.558239,4.286351 17.427901,4.1526567 17.004838,3.7186951 16.567936,3.2966255 16.148604,2.859688 Z" />
    <path
       id="path21"
       style="fill:#c5c6c6;fill-opacity:1;stroke-width:0.0204378"
       d="m 15.232588,4.6331255 c -0.202278,0.097301 -0.416424,0.1738747 -0.623047,0.2617188 -0.228961,0.097342 -0.450658,0.2054256 -0.677734,0.3066406 -0.111899,0.049873 -0.230814,0.088767 -0.339844,0.1445312 0.09538,0.3031943 0.199106,0.605359 0.332031,0.8945314 0.360207,0.783728 0.931965,1.524775 1.611328,2.0625 0.322908,0.255583 0.670401,0.46725 1.035157,0.658203 0.03222,0.01677 0.06487,0.03323 0.09766,0.04883 0.211649,0.09314 0.419695,0.172651 0.630859,0.242188 a 5.5049586,5.5049586 0 0 1 -0.3125,-1.792971 5.5049586,5.5049586 0 0 1 0.103516,-1.005859 C 16.33047,5.6846693 15.29994,4.6528085 15.252123,4.6350786 c -0.0064,-0.00235 -0.01277,-0.00163 -0.01953,-0.00195 z" />
  </g>
</svg>
