<?xml version="1.0" encoding="utf-8"?>
<!-- Generator: Adobe Illustrator 18.1.1, SVG Export Plug-In . SVG Version: 6.00 Build 0)  -->
<svg version="1.1" id="Layer_1" xmlns="http://www.w3.org/2000/svg" xmlns:xlink="http://www.w3.org/1999/xlink" x="0px" y="0px"
	 viewBox="0 0 429 117.3" enable-background="new 0 0 429 117.3" xml:space="preserve">
<g>
	<linearGradient id="SVGID_1_" gradientUnits="userSpaceOnUse" x1="58.666" y1="117.332" x2="58.666" y2="-9.094947e-13">
		<stop  offset="0" style="stop-color:#0882C8"/>
		<stop  offset="1" style="stop-color:#26B6DB"/>
	</linearGradient>
	<circle fill="url(#SVGID_1_)" cx="58.7" cy="58.7" r="58.7"/>
	<g>
		<circle fill="none" stroke="#FFFFFF" stroke-width="6" stroke-miterlimit="10" cx="58.7" cy="58.5" r="43.7"/>
		<g>
			<path fill="#FFFFFF" d="M94.7,47.8c4.7,1.6,9.8-0.9,11.4-5.6c1.6-4.7-0.9-9.8-5.6-11.4c-4.7-1.6-9.8,0.9-11.4,5.6
				C87.5,41.1,90,46.2,94.7,47.8z"/>
			<line fill="none" stroke="#FFFFFF" stroke-width="6" stroke-miterlimit="10" x1="97.6" y1="39.4" x2="67.5" y2="64.4"/>
		</g>
		<g>
			<path fill="#FFFFFF" d="M77.6,91c-0.4,4.9,3.2,9.3,8.2,9.8c5,0.4,9.3-3.2,9.8-8.2c0.4-4.9-3.2-9.3-8.2-9.8
				C82.4,82.4,78,86,77.6,91z"/>
			<line fill="none" stroke="#FFFFFF" stroke-width="6" stroke-miterlimit="10" x1="86.5" y1="91.8" x2="67.5" y2="64.4"/>
		</g>
		<path fill="#FFFFFF" d="M60,69.3c2.7,4.2,8.3,5.4,12.4,2.7c4.2-2.7,5.4-8.3,2.7-12.4c-2.7-4.2-8.3-5.4-12.4-2.7
			C58.5,59.5,57.3,65.1,60,69.3z"/>
		<g>
			<path fill="#FFFFFF" d="M21.2,61.4c-4.3-2.5-9.8-1.1-12.3,3.1c-2.5,4.3-1.1,9.8,3.1,12.3c4.3,2.5,9.8,1.1,12.3-3.1
				C26.8,69.5,25.4,64,21.2,61.4z"/>
			<line fill="none" stroke="#FFFFFF" stroke-width="6" stroke-miterlimit="10" x1="16.6" y1="69.1" x2="67.5" y2="64.4"/>
		</g>
	</g>
</g>
<g>
	<path fill="#0891D1" d="M163.8,50.2c-0.6-0.7-6.3-4.1-11.4-4.1c-3.4,0-5.2,1.2-5.2,3.5c0,2.9,3.2,3.7,8.9,5.2
		c8.2,2.2,13.3,5,13.3,12.9c0,9.7-7.8,13-16,13c-6.2,0-13.1-2-18.2-5.3l4.3-8.6c0.8,0.8,7.5,5,14,5c3.5,0,5.2-1.1,5.2-3.2
		c0-3.2-4.4-4-10.3-5.8c-7.9-2.4-11.5-5.3-11.5-11.8c0-9,7.2-13.9,15.7-13.9c6.1,0,11.6,2.5,15.4,4.7L163.8,50.2z"/>
	<path fill="#0891D1" d="M175,85.1c1.7,0.5,3.3,0.8,4.4,0.8c2,0,3.3-1.5,4.2-5.5l-11.9-31.5h9.8l7.4,23.3l6.3-23.3h8.9l-12.1,36.6
		c-1.7,5.3-6.2,8.7-11.8,8.8c-1.7,0-3.5-0.2-5.3-0.9V85.1z"/>
	<path fill="#0891D1" d="M239.3,80.3h-9.6V62.6c0-4.1-1.7-5.9-4.3-5.9c-2.6,0-5.8,2.3-7,5.6v18.1h-9.6V48.8h8.6v5.3
		c2.3-3.7,6.8-5.9,12.2-5.9c8.2,0,9.5,6.7,9.5,11.9V80.3z"/>
	<path fill="#0891D1" d="M261.6,48.2c7.2,0,12.3,3.4,14.8,8.3l-9.4,2.8c-1.2-1.9-3.1-3-5.5-3c-4,0-7,3.2-7,8.2c0,5,3.1,8.3,7,8.3
		c2.4,0,4.6-1.3,5.5-3.1l9.4,2.9c-2.3,4.9-7.6,8.3-14.8,8.3c-10.6,0-16.9-7.7-16.9-16.4S250.9,48.2,261.6,48.2z"/>
	<path fill="#0891D1" d="M302.1,78.7c-2.6,1.1-6.2,2.3-9.7,2.3c-4.7,0-8.8-2.3-8.8-8.4V56.1h-4v-7.3h4v-10h9.6v10h6.4v7.3h-6.4v13.1
		c0,2.1,1.2,2.9,2.8,2.9c1.4,0,3-0.6,4.2-1.1L302.1,78.7z"/>
	<path fill="#0891D1" d="M337.2,80.3h-9.6V62.6c0-4.1-1.8-5.9-4.6-5.9c-2.3,0-5.5,2.2-6.7,5.6v18.1h-9.6V36.5h9.6v17.6
		c2.3-3.7,6.3-5.9,10.9-5.9c8.5,0,9.9,6.5,9.9,11.9V80.3z"/>
	<path fill="#0891D1" d="M343.4,45.2v-8.7h9.6v8.7H343.4z M343.4,80.3V48.8h9.6v31.5H343.4z"/>
	<path fill="#0891D1" d="M389.9,80.3h-9.6V62.6c0-4.1-1.7-5.9-4.3-5.9c-2.6,0-5.8,2.3-7,5.6v18.1h-9.6V48.8h8.6v5.3
		c2.3-3.7,6.8-5.9,12.2-5.9c8.2,0,9.5,6.7,9.5,11.9V80.3z"/>
	<path fill="#0891D1" d="M395.5,64.6c0-9.2,6-16.3,14.6-16.3c4.7,0,8.4,2.2,10.6,5.8v-5.2h8.3v29.3c0,9.6-7.5,15.5-18.2,15.5
		c-6.8,0-11.5-2.3-15-6.3l5.1-5.2c2.3,2.6,6,4.3,9.9,4.3c4.6,0,8.6-2.4,8.6-8.3v-3.1c-1.9,3.5-5.9,5.3-10,5.3
		C401.1,80.5,395.5,73.3,395.5,64.6z M419.4,68.5v-6.6c-1.3-3.3-4.2-5.5-7.1-5.5c-4.1,0-7,4-7,8.4c0,4.6,3.2,8,7.5,8
		C415.7,72.8,418.1,71,419.4,68.5z"/>
</g>
</svg>
