<?xml version="1.0" encoding="UTF-8" standalone="no"?>
<svg
   xmlns:dc="http://purl.org/dc/elements/1.1/"
   xmlns:cc="http://creativecommons.org/ns#"
   xmlns:rdf="http://www.w3.org/1999/02/22-rdf-syntax-ns#"
   xmlns:svg="http://www.w3.org/2000/svg"
   xmlns="http://www.w3.org/2000/svg"
   xmlns:sodipodi="http://sodipodi.sourceforge.net/DTD/sodipodi-0.dtd"
   xmlns:inkscape="http://www.inkscape.org/namespaces/inkscape"
   inkscape:version="1.0beta2 (2b71d25, 2019-12-03)"
   sodipodi:docname="logo-square.svg"
   xml:space="preserve"
   enable-background="new 0 0 117.3 117.3"
   viewBox="0 0 117.3 117.3"
   y="0px"
   x="0px"
   id="Layer_1"
   version="1.1"><metadata
   id="metadata108"><rdf:RDF><cc:Work
       rdf:about=""><dc:format>image/svg+xml</dc:format><dc:type
         rdf:resource="http://purl.org/dc/dcmitype/StillImage" /><dc:title></dc:title></cc:Work></rdf:RDF></metadata><defs
   id="defs106" /><sodipodi:namedview
   inkscape:current-layer="Layer_1"
   inkscape:window-maximized="1"
   inkscape:window-y="23"
   inkscape:window-x="0"
   inkscape:cy="44.850001"
   inkscape:cx="69.431252"
   inkscape:zoom="2.3188405"
   showgrid="false"
   id="namedview104"
   inkscape:window-height="755"
   inkscape:window-width="1280"
   inkscape:pageshadow="2"
   inkscape:pageopacity="0"
   guidetolerance="10"
   gridtolerance="10"
   objecttolerance="10"
   borderopacity="1"
   inkscape:document-rotation="0"
   bordercolor="#666666"
   pagecolor="#ffffff" />
<g
   id="g101">
	<linearGradient
   y2="0"
   x2="58.666"
   y1="117.332"
   x1="58.666"
   gradientUnits="userSpaceOnUse"
   id="SVGID_1_">
		<stop
   id="stop70"
   style="stop-color:#0882C8"
   offset="0" />
		<stop
   id="stop72"
   style="stop-color:#26B6DB"
   offset="1" />
	</linearGradient>
	<path
   sodipodi:nodetypes="cccccccccc"
   inkscape:connector-curvature="0"
   d="M 117.4,58.700001 118.2375,117.80625 58.700001,117.4 0.02499974,117.80625 0,58.700001 0.02499974,0.45624975 58.700001,0 m 0,0 L 117.80625,0.45624925 117.4,58.700001"
   style="fill:url(#SVGID_1_)"
   id="circle75" />
	<g
   id="g99">
		<path
   inkscape:connector-curvature="0"
   d="M 102.4,58.5 A 43.700001,43.700001 0 0 1 58.700001,102.2 43.700001,43.700001 0 0 1 15,58.5 43.700001,43.700001 0 0 1 58.700001,14.799999 43.700001,43.700001 0 0 1 102.4,58.5"
   style="fill:none;stroke:#ffffff;stroke-width:6;stroke-miterlimit:10"
   id="circle77" />
		<g
   id="g83">
			<path
   inkscape:connector-curvature="0"
   id="path79"
   d="m 94.7,47.8 c 4.7,1.6 9.8,-0.9 11.4,-5.6 1.6,-4.7 -0.9,-9.8 -5.6,-11.4 -4.7,-1.6 -9.8,0.9 -11.4,5.6 -1.6,4.7 0.9,9.8 5.6,11.4 z"
   fill="#FFFFFF" />
			<path
   inkscape:connector-curvature="0"
   d="m 97.599998,39.400002 -30.099998,25"
   style="fill:none;stroke:#ffffff;stroke-width:6;stroke-miterlimit:10"
   id="line81" />
		</g>
		<g
   id="g89">
			<path
   inkscape:connector-curvature="0"
   id="path85"
   d="m 77.6,91 c -0.4,4.9 3.2,9.3 8.2,9.8 5,0.4 9.3,-3.2 9.8,-8.2 C 96,87.7 92.4,83.3 87.4,82.8 82.4,82.4 78,86 77.6,91 Z"
   fill="#FFFFFF" />
			<path
   inkscape:connector-curvature="0"
   d="M 86.5,91.800003 67.5,64.400002"
   style="fill:none;stroke:#ffffff;stroke-width:6;stroke-miterlimit:10"
   id="line87" />
		</g>
		<path
   inkscape:connector-curvature="0"
   id="path91"
   d="m 60,69.3 c 2.7,4.2 8.3,5.4 12.4,2.7 4.2,-2.7 5.4,-8.3 2.7,-12.4 -2.7,-4.2 -8.3,-5.4 -12.4,-2.7 -4.2,2.6 -5.4,8.2 -2.7,12.4 z"
   fill="#FFFFFF" />
		<g
   id="g97">
			<path
   inkscape:connector-curvature="0"
   id="path93"
   d="m 21.2,61.4 c -4.3,-2.5 -9.8,-1.1 -12.3,3.1 -2.5,4.3 -1.1,9.8 3.1,12.3 4.3,2.5 9.8,1.1 12.3,-3.1 2.5,-4.2 1.1,-9.7 -3.1,-12.3 z"
   fill="#FFFFFF" />
			<path
   inkscape:connector-curvature="0"
   d="M 16.6,69.099998 67.5,64.400002"
   style="fill:none;stroke:#ffffff;stroke-width:6;stroke-miterlimit:10"
   id="line95" />
		</g>
	</g>
</g>
</svg>
