<?xml version="1.0" encoding="utf-8"?>
<!-- Generator: Adobe Illustrator 18.1.1, SVG Export Plug-In . SVG Version: 6.00 Build 0)  -->
<svg version="1.1" id="Layer_1" xmlns="http://www.w3.org/2000/svg" xmlns:xlink="http://www.w3.org/1999/xlink" x="0px" y="0px"
	 viewBox="0 0 241.9 181.8" enable-background="new 0 0 241.9 181.8" xml:space="preserve">
<g>
	<linearGradient id="SVGID_1_" gradientUnits="userSpaceOnUse" x1="120.9619" y1="117.332" x2="120.9619" y2="9.094947e-13">
		<stop  offset="0" style="stop-color:#0882C8"/>
		<stop  offset="1" style="stop-color:#26B6DB"/>
	</linearGradient>
	<circle fill="url(#SVGID_1_)" cx="121" cy="58.7" r="58.7"/>
	<g>
		<circle fill="none" stroke="#FFFFFF" stroke-width="6" stroke-miterlimit="10" cx="121" cy="58.5" r="43.7"/>
		<g>
			<path fill="#FFFFFF" d="M157,47.8c4.7,1.6,9.8-0.9,11.4-5.6c1.6-4.7-0.9-9.8-5.6-11.4c-4.7-1.6-9.8,0.9-11.4,5.6
				C149.8,41.1,152.3,46.2,157,47.8z"/>
			<line fill="none" stroke="#FFFFFF" stroke-width="6" stroke-miterlimit="10" x1="159.9" y1="39.4" x2="129.8" y2="64.4"/>
		</g>
		<g>
			<path fill="#FFFFFF" d="M139.9,91c-0.4,4.9,3.2,9.3,8.2,9.8c5,0.4,9.3-3.2,9.8-8.2c0.4-4.9-3.2-9.3-8.2-9.8
				C144.7,82.4,140.3,86,139.9,91z"/>
			<line fill="none" stroke="#FFFFFF" stroke-width="6" stroke-miterlimit="10" x1="148.8" y1="91.8" x2="129.8" y2="64.4"/>
		</g>
		<path fill="#FFFFFF" d="M122.3,69.3c2.7,4.2,8.3,5.4,12.4,2.7c4.2-2.7,5.4-8.3,2.7-12.4c-2.7-4.2-8.3-5.4-12.4-2.7
			C120.7,59.5,119.6,65.1,122.3,69.3z"/>
		<g>
			<path fill="#FFFFFF" d="M83.5,61.4c-4.3-2.5-9.8-1.1-12.3,3.1c-2.5,4.3-1.1,9.8,3.1,12.3c4.3,2.5,9.8,1.1,12.3-3.1
				C89.1,69.5,87.7,64,83.5,61.4z"/>
			<line fill="none" stroke="#FFFFFF" stroke-width="6" stroke-miterlimit="10" x1="78.9" y1="69.1" x2="129.8" y2="64.4"/>
		</g>
	</g>
</g>
<g>
	<path fill="#0891D1" d="M23.6,145.6c-0.5-0.5-5.2-3.4-9.4-3.4c-2.8,0-4.3,1-4.3,2.9c0,2.4,2.6,3,7.3,4.3c6.7,1.8,11,4.1,11,10.6
		c0,8-6.4,10.7-13.2,10.7c-5.1,0-10.8-1.6-15-4.3l3.6-7.1c0.6,0.7,6.2,4.1,11.6,4.1c2.9,0,4.3-0.9,4.3-2.6c0-2.6-3.6-3.3-8.4-4.7
		c-6.5-2-9.5-4.4-9.5-9.7c0-7.4,5.9-11.4,12.9-11.4c5,0,9.6,2,12.6,3.9L23.6,145.6z"/>
	<path fill="#0891D1" d="M32.8,174.3c1.4,0.4,2.7,0.6,3.6,0.6c1.7,0,2.7-1.2,3.5-4.5L30,144.5h8.1l6.1,19.2l5.2-19.2h7.4l-9.9,30.1
		c-1.4,4.3-5.1,7.2-9.7,7.2c-1.4,0-2.9-0.2-4.3-0.7V174.3z"/>
	<path fill="#0891D1" d="M85.7,170.4h-7.9v-14.6c0-3.4-1.4-4.9-3.5-4.9c-2.2,0-4.8,1.9-5.7,4.6v14.9h-7.9v-25.9h7.1v4.3
		c1.9-3.1,5.6-4.8,10.1-4.8c6.8,0,7.9,5.5,7.9,9.8V170.4z"/>
	<path fill="#0891D1" d="M104.1,144c5.9,0,10.1,2.8,12.2,6.9l-7.7,2.3c-1-1.6-2.6-2.5-4.5-2.5c-3.3,0-5.8,2.7-5.8,6.7
		c0,4.1,2.6,6.8,5.8,6.8c2,0,3.8-1,4.5-2.6l7.7,2.4c-1.9,4-6.2,6.9-12.2,6.9c-8.7,0-13.9-6.3-13.9-13.5
		C90.2,150.2,95.3,144,104.1,144z"/>
	<path fill="#0891D1" d="M137.4,169c-2.2,0.9-5.1,1.9-8,1.9c-3.9,0-7.2-1.9-7.2-6.9v-13.5H119v-6h3.3v-8.2h7.9v8.2h5.3v6h-5.3v10.8
		c0,1.7,1,2.4,2.3,2.4c1.1,0,2.5-0.5,3.5-0.9L137.4,169z"/>
	<path fill="#0891D1" d="M166.3,170.4h-7.9v-14.6c0-3.4-1.5-4.9-3.8-4.9c-1.9,0-4.5,1.8-5.5,4.6v14.9h-7.9v-36.1h7.9v14.5
		c1.9-3.1,5.2-4.8,9-4.8c7,0,8.1,5.3,8.1,9.8V170.4z"/>
	<path fill="#0891D1" d="M171.5,141.5v-7.2h7.9v7.2H171.5z M171.5,170.4v-25.9h7.9v25.9H171.5z"/>
	<path fill="#0891D1" d="M209.7,170.4h-7.9v-14.6c0-3.4-1.4-4.9-3.5-4.9c-2.2,0-4.8,1.9-5.7,4.6v14.9h-7.9v-25.9h7.1v4.3
		c1.9-3.1,5.6-4.8,10.1-4.8c6.8,0,7.9,5.5,7.9,9.8V170.4z"/>
	<path fill="#0891D1" d="M214.3,157.4c0-7.6,4.9-13.4,12.1-13.4c3.9,0,6.9,1.8,8.7,4.7v-4.2h6.9v24.2c0,7.9-6.2,12.8-15,12.8
		c-5.6,0-9.4-1.9-12.3-5.2l4.2-4.3c1.9,2.2,4.9,3.6,8.1,3.6c3.8,0,7.1-2,7.1-6.9v-2.5c-1.6,2.9-4.8,4.4-8.2,4.4
		C219,170.5,214.3,164.6,214.3,157.4z M234,160.6v-5.4c-1-2.7-3.5-4.5-5.9-4.5c-3.4,0-5.8,3.3-5.8,6.9c0,3.8,2.6,6.6,6.2,6.6
		C231,164.2,232.9,162.7,234,160.6z"/>
</g>
</svg>
