<?xml version="1.0" encoding="UTF-8" standalone="no"?>
<svg
   xmlns:dc="http://purl.org/dc/elements/1.1/"
   xmlns:cc="http://creativecommons.org/ns#"
   xmlns:rdf="http://www.w3.org/1999/02/22-rdf-syntax-ns#"
   xmlns:svg="http://www.w3.org/2000/svg"
   xmlns="http://www.w3.org/2000/svg"
   xmlns:sodipodi="http://sodipodi.sourceforge.net/DTD/sodipodi-0.dtd"
   xmlns:inkscape="http://www.inkscape.org/namespaces/inkscape"
   version="1.1"
   id="Layer_1"
   x="0px"
   y="0px"
   viewBox="0 0 438 117.4"
   enable-background="new 0 0 429 117.3"
   xml:space="preserve"
   sodipodi:docname="logo-horizontal.svg"
   width="438"
   height="117.4"
   inkscape:version="1.0beta2 (2b71d25, 2019-12-03)"><metadata
   id="metadata68"><rdf:RDF><cc:Work
       rdf:about=""><dc:format>image/svg+xml</dc:format><dc:type
         rdf:resource="http://purl.org/dc/dcmitype/StillImage" /><dc:title></dc:title></cc:Work></rdf:RDF></metadata><defs
   id="defs66">
	
	
	
	
	
	
	
	
	
</defs><sodipodi:namedview
   pagecolor="#ffffff"
   bordercolor="#666666"
   inkscape:document-rotation="0"
   borderopacity="1"
   objecttolerance="10"
   gridtolerance="10"
   guidetolerance="10"
   inkscape:pageopacity="0"
   inkscape:pageshadow="2"
   inkscape:window-width="1280"
   inkscape:window-height="755"
   id="namedview64"
   showgrid="false"
   units="mm"
   fit-margin-top="0"
   fit-margin-left="0"
   fit-margin-right="0"
   fit-margin-bottom="0"
   inkscape:zoom="1.4557606"
   inkscape:cx="401.85626"
   inkscape:cy="141.61488"
   inkscape:window-x="0"
   inkscape:window-y="24"
   inkscape:window-maximized="0"
   inkscape:current-layer="Layer_1" />
<g
   id="g41">
	<linearGradient
   id="SVGID_1_"
   gradientUnits="userSpaceOnUse"
   x1="58.666"
   y1="117.332"
   x2="58.666"
   y2="-9.094947e-13">
		<stop
   offset="0"
   style="stop-color:#0882C8"
   id="stop10" />
		<stop
   offset="1"
   style="stop-color:#26B6DB"
   id="stop12" />
	</linearGradient>
	<circle
   fill="url(#SVGID_1_)"
   cx="58.700001"
   cy="58.700001"
   r="58.700001"
   id="circle15"
   style="fill:url(#SVGID_1_)" />
	<g
   id="g39">
		<circle
   fill="none"
   stroke="#FFFFFF"
   stroke-width="6"
   stroke-miterlimit="10"
   cx="58.700001"
   cy="58.5"
   r="43.700001"
   id="circle17" />
		<g
   id="g23">
			<path
   fill="#FFFFFF"
   d="m 94.7,47.8 c 4.7,1.6 9.8,-0.9 11.4,-5.6 1.6,-4.7 -0.9,-9.8 -5.6,-11.4 -4.7,-1.6 -9.8,0.9 -11.4,5.6 -1.6,4.7 0.9,9.8 5.6,11.4 z"
   id="path19"
   inkscape:connector-curvature="0" />
			<line
   fill="none"
   stroke="#FFFFFF"
   stroke-width="6"
   stroke-miterlimit="10"
   x1="97.599998"
   y1="39.400002"
   x2="67.5"
   y2="64.400002"
   id="line21" />
		</g>
		<g
   id="g29">
			<path
   fill="#FFFFFF"
   d="m 77.6,91 c -0.4,4.9 3.2,9.3 8.2,9.8 5,0.4 9.3,-3.2 9.8,-8.2 C 96,87.7 92.4,83.3 87.4,82.8 82.4,82.4 78,86 77.6,91 Z"
   id="path25"
   inkscape:connector-curvature="0" />
			<line
   fill="none"
   stroke="#FFFFFF"
   stroke-width="6"
   stroke-miterlimit="10"
   x1="86.5"
   y1="91.800003"
   x2="67.5"
   y2="64.400002"
   id="line27" />
		</g>
		<path
   fill="#FFFFFF"
   d="m 60,69.3 c 2.7,4.2 8.3,5.4 12.4,2.7 4.2,-2.7 5.4,-8.3 2.7,-12.4 -2.7,-4.2 -8.3,-5.4 -12.4,-2.7 -4.2,2.6 -5.4,8.2 -2.7,12.4 z"
   id="path31"
   inkscape:connector-curvature="0" />
		<g
   id="g37">
			<path
   fill="#FFFFFF"
   d="m 21.2,61.4 c -4.3,-2.5 -9.8,-1.1 -12.3,3.1 -2.5,4.3 -1.1,9.8 3.1,12.3 4.3,2.5 9.8,1.1 12.3,-3.1 2.5,-4.2 1.1,-9.7 -3.1,-12.3 z"
   id="path33"
   inkscape:connector-curvature="0" />
			<line
   fill="none"
   stroke="#FFFFFF"
   stroke-width="6"
   stroke-miterlimit="10"
   x1="16.6"
   y1="69.099998"
   x2="67.5"
   y2="64.400002"
   id="line35" />
		</g>
	</g>
</g>
<path
   inkscape:connector-curvature="0"
   id="path43"
   d="m 172.8,50.2 c -0.6,-0.7 -6.3,-4.1 -11.4,-4.1 -3.4,0 -5.2,1.2 -5.2,3.5 0,2.9 3.2,3.7 8.9,5.2 8.2,2.2 13.3,5 13.3,12.9 0,9.7 -7.8,13 -16,13 -6.2,0 -13.1,-2 -18.2,-5.3 l 4.3,-8.6 c 0.8,0.8 7.5,5 14,5 3.5,0 5.2,-1.1 5.2,-3.2 0,-3.2 -4.4,-4 -10.3,-5.8 -7.9,-2.4 -11.5,-5.3 -11.5,-11.8 0,-9 7.2,-13.9 15.7,-13.9 6.1,0 11.6,2.5 15.4,4.7 z"
   fill="#0891D1" /><path
   inkscape:connector-curvature="0"
   id="path45"
   d="m 184,85.1 c 1.7,0.5 3.3,0.8 4.4,0.8 2,0 3.3,-1.5 4.2,-5.5 L 180.7,48.9 h 9.8 l 7.4,23.3 6.3,-23.3 h 8.9 L 201,85.5 c -1.7,5.3 -6.2,8.7 -11.8,8.8 -1.7,0 -3.5,-0.2 -5.3,-0.9 v -8.3 z"
   fill="#0891D1" /><path
   inkscape:connector-curvature="0"
   id="path47"
   d="m 248.3,80.3 h -9.6 V 62.6 c 0,-4.1 -1.7,-5.9 -4.3,-5.9 -2.6,0 -5.8,2.3 -7,5.6 v 18.1 h -9.6 V 48.8 h 8.6 v 5.3 c 2.3,-3.7 6.8,-5.9 12.2,-5.9 8.2,0 9.5,6.7 9.5,11.9 v 20.2 z"
   fill="#0891D1" /><path
   inkscape:connector-curvature="0"
   id="path49"
   d="m 270.6,48.2 c 7.2,0 12.3,3.4 14.8,8.3 l -9.4,2.8 c -1.2,-1.9 -3.1,-3 -5.5,-3 -4,0 -7,3.2 -7,8.2 0,5 3.1,8.3 7,8.3 2.4,0 4.6,-1.3 5.5,-3.1 l 9.4,2.9 c -2.3,4.9 -7.6,8.3 -14.8,8.3 -10.6,0 -16.9,-7.7 -16.9,-16.4 0,-8.7 6.2,-16.3 16.9,-16.3 z"
   fill="#0891D1" /><path
   inkscape:connector-curvature="0"
   id="path51"
   d="m 311.1,78.7 c -2.6,1.1 -6.2,2.3 -9.7,2.3 -4.7,0 -8.8,-2.3 -8.8,-8.4 V 56.1 h -4 v -7.3 h 4 v -10 h 9.6 v 10 h 6.4 v 7.3 h -6.4 v 13.1 c 0,2.1 1.2,2.9 2.8,2.9 1.4,0 3,-0.6 4.2,-1.1 z"
   fill="#0891D1" /><path
   inkscape:connector-curvature="0"
   id="path53"
   d="m 346.2,80.3 h -9.6 V 62.6 c 0,-4.1 -1.8,-5.9 -4.6,-5.9 -2.3,0 -5.5,2.2 -6.7,5.6 v 18.1 h -9.6 V 36.5 h 9.6 v 17.6 c 2.3,-3.7 6.3,-5.9 10.9,-5.9 8.5,0 9.9,6.5 9.9,11.9 v 20.2 z"
   fill="#0891D1" /><path
   inkscape:connector-curvature="0"
   id="path55"
   d="m 352.4,45.2 v -8.7 h 9.6 v 8.7 z m 0,35.1 V 48.8 h 9.6 v 31.5 z"
   fill="#0891D1" /><path
   inkscape:connector-curvature="0"
   id="path57"
   d="m 398.9,80.3 h -9.6 V 62.6 c 0,-4.1 -1.7,-5.9 -4.3,-5.9 -2.6,0 -5.8,2.3 -7,5.6 v 18.1 h -9.6 V 48.8 h 8.6 v 5.3 c 2.3,-3.7 6.8,-5.9 12.2,-5.9 8.2,0 9.5,6.7 9.5,11.9 v 20.2 z"
   fill="#0891D1" /><path
   inkscape:connector-curvature="0"
   id="path59"
   d="m 404.5,64.6 c 0,-9.2 6,-16.3 14.6,-16.3 4.7,0 8.4,2.2 10.6,5.8 v -5.2 h 8.3 v 29.3 c 0,9.6 -7.5,15.5 -18.2,15.5 -6.8,0 -11.5,-2.3 -15,-6.3 l 5.1,-5.2 c 2.3,2.6 6,4.3 9.9,4.3 4.6,0 8.6,-2.4 8.6,-8.3 v -3.1 c -1.9,3.5 -5.9,5.3 -10,5.3 -8.3,0.1 -13.9,-7.1 -13.9,-15.8 z m 23.9,3.9 v -6.6 c -1.3,-3.3 -4.2,-5.5 -7.1,-5.5 -4.1,0 -7,4 -7,8.4 0,4.6 3.2,8 7.5,8 2.9,0 5.3,-1.8 6.6,-4.3 z"
   fill="#0891D1" />
<path
   fill="#0891D1"
   d="m 130,45.2 v -8.7 h 9.6 v 8.7 z m 0,35.099995 V 48.8 h 9.6 v 31.499995 z"
   id="path55-8"
   inkscape:connector-curvature="0" /></svg>
