<?xml version="1.0" encoding="UTF-8" standalone="no"?>
<svg
   width="1384.1604"
   height="1390.1855"
   version="1.1"
   id="svg31"
   xmlns="http://www.w3.org/2000/svg"
   xmlns:svg="http://www.w3.org/2000/svg">
  <path
     fill="#2c4268"
     d="m 729.69052,1388.3482 c -18.68882,2.5435 -61.31293,2.1642 -80.17545,0.569 -6.372,-0.5388 -12.6146,-2.166 -18.97242,-2.8572 -23.74033,-2.5825 -47.68449,-5.3954 -71.13768,-10.002 q -9.10335,-1.8168 -18.15708,-3.8693 -9.05372,-2.0525 -18.04896,-4.3425 -8.99701,-2.2883 -17.9302,-4.8122 -8.9332,-2.5223 -17.79905,-5.2784 -8.86407,-2.7544 -17.6537,-5.741 -8.78963,-2.9866 -17.4995,-6.2019 -8.70809,-3.2152 -17.32934,-6.6556 -8.62302,-3.4403 -17.15032,-7.1057 -8.52908,-3.6655 -16.96067,-7.5525 -8.42982,-3.887 -16.75506,-7.992 -8.32702,-4.105 -16.54237,-8.4281 -8.21536,-4.3212 -16.3155,-8.8552 -8.10014,-4.5357 -16.07976,-9.2806 -7.97784,-4.7449 -15.82984,-9.6953 -7.85199,-4.9523 -15.57283,-10.1066 -7.72083,-5.1561 -15.30342,-10.5107 -5.46449,-3.9473 -10.851,-7.9991 -5.3865,-4.0518 -10.69325,-8.2065 -5.30852,-4.1546 -10.5355,-8.4103 -5.22521,-4.2557 -10.37067,-8.6124 -5.14367,-4.3549 -10.20228,-8.8091 -5.0586,-4.4542 -10.03212,-9.0041 -4.97175,-4.5517 -9.85488,-9.1973 -4.8849,-4.6439 -9.6794,-9.3834 -4.79273,-4.7378 -9.49507,-9.5678 -4.70056,-4.8299 -9.30896,-9.7503 -4.60839,-4.9185 -9.11931,-9.9257 -4.51268,-5.0072 -8.92788,-10.0995 -4.41519,-5.0941 -8.73113,-10.2714 -4.31594,-5.1756 -8.53263,-10.4363 -4.21668,-5.2589 -8.33056,-10.5975 -4.11388,-5.3404 -8.12318,-10.7571 -4.01108,-5.4166 -7.91581,-10.9112 -3.9065,-5.4929 -7.70488,-11.062 -3.79838,-5.5672 -7.49042,-11.2072 -3.69026,-5.64 -7.2724,-11.3491 -3.58214,-5.7108 -7.054393,-11.4873 -3.470477,-5.7782 -6.831061,-11.622 -3.358812,-5.8438 -6.605959,-11.7514 -3.245374,-5.9059 -6.377311,-11.8737 -3.133709,-5.9697 -6.150436,-11.996 -3.016727,-6.02817 -5.916471,-12.11303 -2.899745,-6.08486 -5.682507,-12.22288 -2.782762,-6.13981 -5.44677,-12.33101 -2.664007,-6.1912 -5.20926,-12.43381 -2.54348,-6.24083 -4.968205,-12.53129 -2.422953,-6.28869 -4.725378,-12.62346 -2.302426,-6.33654 -4.482552,-12.71385 C 25.371636,888.35498 15.281022,857.66838 10.311044,826.15227 -12.729164,680.03244 1.3636657,528.06881 67.609358,394.32962 88.242565,352.67326 114.70008,312.66707 142.03141,275.19194 c 16.34031,-22.40212 37.36346,-47.82097 57.14765,-67.15142 10.53551,-10.29444 21.95901,-19.6424 32.95535,-29.43169 14.32857,-12.75463 28.37177,-26.36535 43.60075,-38.00509 18.75971,-14.3392 39.01361,-26.98393 59.26751,-39.07034 17.23718,-10.287354 34.2847,-20.736006 52.27517,-29.704654 41.98426,-20.934525 97.75648,-41.486198 143.41151,-52.211354 28.64118,-6.728258 58.35647,-10.9892519 87.58079,-14.1938596 15.25734,-1.6714298 30.52708,-2.3343298 45.7082,-4.74310295 0.23396,-0.0301318 0.46616,-0.0762158 0.70189,-0.0921679 28.97263,-1.98338275 56.06291,1.48177655 84.70409,3.97208285 51.73988,4.496731 105.02003,13.3678936 154.44153,29.5699506 9.12108,2.99014 17.79373,7.033121 26.79251,10.324579 19.84446,7.261769 39.39647,14.585573 58.59221,23.478005 13.76133,6.375539 26.90063,14.08574 40.11073,21.508802 8.9084,5.005427 18.2333,9.406446 26.9521,14.723829 37.4485,22.84169 72.6939,50.14466 105.7254,78.94891 15.2609,13.30763 29.134,28.61105 42.7411,43.56707 70.7868,77.80036 113.3063,153.51453 145.8185,253.5309 15.3815,47.31582 26.9255,96.63098 30.3109,146.41761 2.2262,32.73379 4.1068,65.62533 2.9281,98.44597 -3.6637,102.11319 -33.2017,201.07672 -79.5799,291.55723 -17.7423,34.6144 -34.7526,60.3558 -57.6741,91.5565 -6.73,9.1618 -13.0648,19.0823 -20.6102,27.5847 -28.5596,32.1844 -58.679,64.3652 -91.466,92.246 -54.2195,46.1034 -114.9174,80.0088 -179.62463,108.8006 -3.1727,1.4109 -5.7729,4.0749 -8.94206,5.4043 -6.81865,2.8607 -17.16273,5.3883 -24.71873,8.0434 -15.00742,5.2695 -30.15486,10.7571 -45.476,15.0092 -47.1758,13.0896 -97.19462,19.9597 -146.01526,23.0703 z M 283.4879,443.13253 c -42.49296,59.80103 -70.4677,154.85097 -74.35647,227.99685 -1.84691,34.73312 1.14323,70.10433 5.37941,104.56982 14.47214,-4.36911 28.38418,-11.16118 42.34407,-16.96776 l 95.52673,-40.73645 c 0.65936,-33.94615 0.12762,-67.97738 0.35804,-101.93772 -25.47911,-9.03423 -48.25877,-29.13215 -59.88433,-53.66831 -4.82641,-10.18633 -7.8201,-20.40102 -9.06082,-31.58879 -0.40589,-3.66899 -0.0939,-8.02215 -0.92522,-11.54757 3.4687,-27.09383 10.32635,-52.04652 29.71529,-72.30574 18.67109,-19.50769 44.24237,-29.0258 71.00475,-29.27926 26.51954,-0.24992 50.79693,8.8942 69.85974,27.43236 26.06934,-16.46438 52.41341,-32.92876 78.09104,-49.96919 17.46405,-11.59012 34.46903,-24.51844 52.93274,-34.50094 -0.23219,-32.18432 5.82253,-56.56274 28.02791,-80.99078 19.67785,-21.64528 47.32469,-33.29035 76.39303,-34.48321 q 2.5488,-0.0815 5.09759,-0.0372 2.55057,0.0425 5.09405,0.21092 2.54526,0.16838 5.0781,0.46084 2.53285,0.29068 5.04974,0.70721 2.51512,0.41476 5.0072,0.95358 2.49208,0.53883 4.9558,1.19819 2.46372,0.65935 4.89199,1.43746 2.42827,0.77988 4.814,1.67675 2.3875,0.89686 4.72892,1.90894 2.33965,1.01207 4.6279,2.13758 2.28824,1.12552 4.518,2.36269 2.22975,1.23541 4.39747,2.57893 2.16772,1.34353 4.26631,2.79163 2.09859,1.4481 4.12452,2.99723 2.02592,1.54913 3.97208,3.19574 1.94793,1.64662 3.81256,3.3854 c 26.77124,25.07677 34.45131,50.37509 35.53251,85.94659 25.0998,15.37963 49.20703,32.9004 73.83004,49.06346 18.45663,12.11477 37.71795,23.26708 56.65846,34.61615 10.63653,-9.03069 23.87504,-15.80326 37.06037,-20.21137 q 2.44245,-0.82951 4.92389,-1.53672 2.48144,-0.70544 4.99479,-1.2868 2.51512,-0.58137 5.05329,-1.03689 2.53993,-0.45375 5.09936,-0.78166 2.55944,-0.32613 5.13128,-0.52465 2.57361,-0.19851 5.15254,-0.26764 2.57893,-0.0691 5.15783,-0.009 2.579,0.0603 5.1526,0.24992 2.5736,0.18965 5.133,0.50692 2.5612,0.31904 5.1012,0.76393 2.5417,0.44666 5.0568,1.01916 2.5169,0.57251 5.0001,1.26909 2.4832,0.69835 4.9292,1.52077 2.446,0.82065 4.8477,1.76359 2.4017,0.94295 4.7537,2.00466 2.3503,1.0617 4.6456,2.24039 c 23.2139,11.90207 42.7216,34.35559 50.462,59.326 8.3784,27.03356 5.6878,54.65913 -7.6322,79.68981 -12.6093,23.69779 -35.0948,40.71518 -60.5012,48.54945 q 0.5388,30.87625 0.3137,61.75605 c -0.1223,13.25446 -0.8791,26.70388 0.032,39.92643 12.0474,7.47624 27.6504,11.87549 40.8357,17.40733 31.3602,13.15697 62.357,26.68616 94.045,39.01894 4.0412,-16.97662 5.1614,-34.95646 6.1469,-52.33897 2.9387,-51.80724 0.028,-101.52828 -14.8869,-151.3929 -8.2366,-27.53871 -17.0564,-54.75661 -29.0116,-80.95534 q -2.033,-4.39925 -4.1529,-8.75773 -2.1199,-4.35847 -4.3283,-8.67264 -2.2068,-4.31594 -4.5003,-8.5858 -2.2936,-4.26985 -4.6722,-8.49185 -2.3787,-4.22378 -4.8424,-8.39792 -2.4637,-4.17414 -5.009,-8.29688 -2.547,-4.12452 -5.1755,-8.19586 -2.6286,-4.07311 -5.3387,-8.09128 -2.7101,-4.01817 -5.4999,-7.98139 -2.7899,-3.96322 -5.6595,-7.86972 -2.8678,-3.9065 -5.8154,-7.75451 -2.9459,-3.84801 -5.9697,-7.63576 -3.0238,-3.78775 -6.1221,-7.51523 -3.0982,-3.72571 -6.2709,-7.38939 -3.1745,-3.66367 -6.4199,-7.26354 -3.2454,-3.59986 -6.5634,-7.13238 -3.3163,-3.53428 -6.7052,-6.99944 -3.3872,-3.46693 -6.8435,-6.86474 -3.4563,-3.3978 -6.9799,-6.72471 -3.5255,-3.32691 -7.1147,-6.58292 -3.591,-3.25601 -7.244,-6.43934 -3.6548,-3.18334 -7.37346,-6.29401 -3.71862,-3.1089 -7.49751,-6.14335 -3.77888,-3.03445 -7.6198,-5.99091 -3.83915,-2.95824 -7.73679,-5.83848 -3.89764,-2.88025 -7.85377,-5.68074 -3.95613,-2.80049 -7.96544,-5.52298 -4.01107,-2.72073 -8.07533,-5.3617 -4.06425,-2.63919 -8.18167,-5.19685 -4.11565,-2.55943 -8.28448,-5.03378 -4.16705,-2.47436 -8.38196,-4.86541 -4.21668,-2.39105 -8.47945,-4.69702 -5.1809,-2.74908 -10.42561,-5.37055 -5.24471,-2.62324 -10.55145,-5.11709 -5.30852,-2.49563 -10.67376,-4.86009 -5.36701,-2.36446 -10.78896,-4.59953 -5.42196,-2.2333 -10.89531,-4.33544 -5.47513,-2.10214 -10.99812,-4.07134 -5.52476,-1.9692 -11.09383,-3.8037 -5.57084,-1.83272 -11.18245,-3.53251 -5.61338,-1.69802 -11.26575,-3.25956 -5.65238,-1.56153 -11.34197,-2.98659 -5.68783,-1.42506 -11.40933,-2.71009 -5.7215,-1.28681 -11.47313,-2.43359 -5.74986,-1.14678 -11.52631,-2.15354 -5.77822,-1.00676 -11.57771,-1.87349 -5.79949,-0.86673 -11.61847,-1.59344 -5.81899,-0.72494 -11.65393,-1.30985 -5.83494,-0.58491 -11.68228,-1.02802 -5.84735,-0.44135 -11.70533,-0.74267 -5.85621,-0.30131 -11.71773,-0.45906 -5.86153,-0.15952 -11.7266,-0.17548 -5.86329,-0.0177 -11.72659,0.10812 -5.8633,0.12585 -11.72128,0.39349 -5.85798,0.26764 -11.7071,0.67885 -5.85089,0.40944 -11.68937,0.96068 -5.83671,0.55123 -11.66102,1.24426 -5.82253,0.69303 -11.62733,1.52786 -5.80481,0.83306 -11.58657,1.80791 -5.78354,0.97486 -11.54049,2.08973 -5.75695,1.11311 -11.48554,2.36801 -5.72859,1.25313 -11.42528,2.64628 -5.69669,1.39138 -11.35792,2.92102 -5.66124,1.5314 -11.28348,3.19751 C 516.70474,241.8554 478.93716,258.4793 446.04562,278.5595 384.95779,315.85206 317.70534,379.4621 283.488,443.13241 Z m -107.4997,310.76364 -0.005,-1.02626 c -0.14889,-11.46958 -2.10214,-22.87182 -2.56652,-34.33432 -0.98726,-24.28447 0.63986,-49.42505 2.86784,-73.60494 2.90683,-31.56043 10.07821,-60.91059 19.09825,-91.16826 5.4131,-18.15885 10.49829,-36.54103 17.5704,-54.14156 24.15509,-60.10412 69.37763,-125.1339 114.15706,-171.56704 21.83848,-22.64318 46.37464,-41.87968 72.26674,-59.61137 10.93962,-7.49219 21.8438,-15.33001 33.23894,-22.10081 q 11.3597,-6.62368 23.03844,-12.666 11.67873,-6.04408 23.64638,-11.4944 11.96765,-5.44854 24.19408,-10.28913 12.22643,-4.84059 24.68151,-9.06082 12.4533,-4.22022 25.10512,-7.80945 12.65005,-3.58924 25.46494,-6.53684 12.81488,-2.94937 25.7627,-5.25002 12.94605,-2.30066 25.99313,-3.94727 c 14.62457,-1.82032 29.36611,-3.58392 44.11475,-3.82497 15.29988,-0.24992 31.07477,-1.0617 46.33388,-0.11875 q 9.09449,0.55478 18.16594,1.43392 9.06968,0.87914 18.10214,2.08086 9.03245,1.2035 18.01528,2.72605 8.9846,1.52431 17.90894,3.36767 8.92256,1.84513 17.776,4.00576 8.85166,2.16063 17.62002,4.63676 8.77014,2.47612 17.44633,5.2642 8.67442,2.78631 17.24603,5.8828 8.56985,3.09471 17.02448,6.49429 8.45464,3.39958 16.78165,7.0987 8.32702,3.69913 16.51756,7.69248 8.19053,3.99335 16.23396,8.27739 8.04165,4.28403 15.92732,8.85166 7.88391,4.5694 15.59942,9.41531 7.7173,4.84768 15.25557,9.96654 7.53827,5.11887 14.88866,10.5036 c 18.57716,13.3998 36.69696,27.44654 53.17196,43.39691 42.7784,41.41707 76.9922,86.49605 104.9492,139.13811 7.5932,14.30021 15.0996,28.77766 21.1773,43.79926 4.3567,10.76769 7.4816,22.09549 10.9272,33.18045 q 3.2082,9.97541 6.0388,20.06602 2.8306,10.08884 5.2784,20.27872 2.4478,10.1881 4.5109,20.46305 2.0614,10.27317 3.7346,20.61902 1.6732,10.34408 2.9565,20.74488 1.2814,10.39902 2.1712,20.84058 0.8898,10.44156 1.3861,20.90971 0.4945,10.46638 0.5955,20.94516 c 0.2996,20.25922 -2.866,41.81233 -5.4733,61.93507 -15.3424,118.43578 -63.3867,215.07384 -147.0291,300.10581 q -5.9147,5.9839 -12.0209,11.7745 -6.1061,5.7888 -12.3948,11.3774 -6.2904,5.5903 -12.7581,10.9733 -6.466,5.383 -13.1038,10.555 -6.63788,5.1703 -13.43881,10.1243 -6.80093,4.954 -13.7596,9.6865 -6.95691,4.7325 -14.06447,9.2363 -7.1058,4.5038 -14.35516,8.7772 -7.24936,4.2716 -14.63343,8.3075 -7.38229,4.0359 -14.89221,7.8307 -7.50991,3.7967 -15.13858,7.3469 -7.62866,3.5502 -15.36722,6.8523 -7.73856,3.3021 -15.5817,6.3525 -7.84136,3.0504 -15.77844,5.8456 -7.9353,2.7952 -15.95923,5.3333 -8.02215,2.5382 -16.1223,4.814 c -23.55599,6.5812 -47.78729,10.6773 -71.78463,15.2999 q -1.41265,-66.6463 -0.33145,-133.2979 l 0.23751,-46.6086 c 0.0248,-9.7272 0.51756,-19.9171 -0.6434,-29.5717 0.0496,-13.00098 -0.54769,-26.1739 0.93232,-39.10577 q 7.1111,-7.07921 14.09282,-14.28603 c 10.95558,-6.46593 29.35549,-29.72415 39.79882,-39.92466 l 88.94559,-87.92642 c 32.43602,-31.65437 65.63065,-63.21302 96.24989,-96.6168 0.11344,-19.41375 -0.75684,-38.90372 -0.888,-58.32811 -0.0993,-14.52708 0.95536,-29.9723 -0.73911,-44.37177 -4.37443,-1.98515 -10.25014,-2.12872 -14.99147,-3.06458 -14.41719,-2.8448 -27.82053,-8.35006 -39.56662,-17.23717 -18.26875,13.86064 -34.3875,32.40588 -50.60906,48.64871 -33.23008,33.27262 -66.05603,67.3003 -100.8512,98.92808 q 2.95115,4.70588 5.22522,9.77512 2.27406,5.06746 3.82851,10.40079 c 8.23662,27.5139 4.15996,61.41751 -9.59787,86.52086 -16.40766,29.93863 -42.48055,42.9343 -73.85487,51.94549 0.60264,12.06336 -0.45552,24.18699 0.22688,36.27517 q -0.42539,14.15309 -0.2641,28.3115 c -1.57571,45.37849 -0.52287,91.07249 -0.52465,136.47769 l 0.18789,202.2855 c 142.93117,-3.5786 282.79244,-62.9915 389.08333,-157.8783 q 8.0026,-7.2778 15.7341,-14.8426 7.7315,-7.5649 15.1829,-15.4062 7.4496,-7.8432 14.6086,-15.9522 7.159,-8.109 14.0166,-16.475 6.8577,-8.3642 13.4051,-16.9748 6.5475,-8.6106 12.7759,-17.4535 6.2285,-8.8428 12.1307,-17.9089 5.9023,-9.0643 11.4679,-18.3396 c 13.538,-22.05652 26.6489,-43.98894 37.7977,-67.38896 34.2049,-71.78108 51.5715,-152.72224 55.7492,-231.84486 0.6434,-12.21579 0.1045,-24.66378 -0.062,-36.89375 q -0.1365,-6.98349 -0.4307,-13.96344 -0.296,-6.97818 -0.7497,-13.94926 -0.4556,-6.96932 -1.0688,-13.92799 -0.6133,-6.95868 -1.3861,-13.89963 -0.7728,-6.94273 -1.7033,-13.86596 -0.9323,-6.92323 -2.0206,-13.82341 -1.0883,-6.89842 -2.3361,-13.77202 -1.2461,-6.8736 -2.6481,-13.71529 -1.4038,-6.84347 -2.9635,-13.65326 -1.558,-6.80802 -3.272,-13.57882 -1.7157,-6.77257 -3.5839,-13.5026 -1.8682,-6.7318 -3.8906,-13.41752 -2.0206,-6.68572 -4.1954,-13.32358 -2.1748,-6.63787 -4.5003,-13.2261 -2.3254,-6.58646 -4.7998,-13.11798 -2.4743,-6.53151 -5.0993,-13.00631 -2.6233,-6.47302 -5.3936,-12.88578 -2.7722,-6.41099 -5.6879,-12.75817 -2.9174,-6.34718 -5.9785,-12.62523 -3.061,-6.27983 -6.2656,-12.48698 -3.2029,-6.20716 -6.5475,-12.3381 -3.3446,-6.13271 -6.8293,-12.18743 -3.4846,-6.05473 -7.1058,-12.02792 -3.6211,-5.97141 -7.3787,-11.8613 -3.7576,-5.88811 -7.6482,-11.68937 -3.8905,-5.80126 -7.9122,-11.51213 -4.0218,-5.71087 -8.1729,-11.32956 -4.1528,-5.61693 -8.4316,-11.13814 -4.2787,-5.52122 -8.6832,-10.94317 -4.4028,-5.42196 -8.9297,-10.74111 -4.5268,-5.32092 -9.1742,-10.5355 -4.6474,-5.21458 -9.4118,-10.32281 c -14.8568,-16.20205 -31.8777,-30.93474 -48.5512,-45.219 q -4.9257,-4.24504 -9.9382,-8.38728 -5.0143,-4.14046 -10.1137,-8.17458 -5.0993,-4.03589 -10.2838,-7.96189 -5.1827,-3.926 -10.4486,-7.74211 -5.2642,-3.8161 -10.6082,-7.52055 -5.344,-3.70444 -10.7659,-7.29721 -5.4202,-3.59101 -10.9166,-7.0668 -5.4946,-3.47757 -11.0619,-6.83638 -5.5673,-3.36058 -11.20373,-6.60241 -5.63819,-3.24183 -11.34197,-6.36491 -5.70378,-3.12307 -11.47136,-6.12385 -5.76759,-3.00254 -11.59898,-5.88279 -5.82962,-2.88025 -11.71951,-5.63642 -5.88988,-2.75618 -11.83471,-5.38828 -5.9466,-2.63211 -11.94638,-5.13836 -6.00155,-2.50626 -12.05273,-4.8849 -6.05118,-2.37865 -12.15198,-4.62967 -6.10081,-2.2528 -12.2477,-4.37443 -6.14689,-2.12164 -12.33633,-4.11565 -6.18943,-1.99225 -12.41962,-3.85333 -6.2302,-1.86286 -12.49939,-3.59278 -6.26742,-1.72992 -12.57206,-3.32868 -6.30287,-1.596984 -12.63764,-3.062808 -6.33654,-1.464052 -12.70145,-2.79517 -6.3649,-1.331117 -12.75639,-2.527528 -6.39149,-1.198183 -12.80603,-2.259886 -6.4163,-1.061704 -12.8521,-1.9887 -6.43581,-0.926997 -12.8911,-1.717514 -6.45353,-0.79229 -12.92301,-1.446327 -6.46948,-0.655811 -12.95137,-1.175141 -6.48188,-0.517559 -12.9744,-0.90041 -6.49075,-0.382851 -12.98859,-0.627451 c -20.47368,-0.877368 -41.09448,0.306636 -61.51854,1.698017 -30.1655,2.052508 -60.52597,5.522985 -90.05338,12.164393 C 454.17048,119.53982 351.73115,177.6127 272.95239,250.24811 q -5.47512,5.13482 -10.82086,10.40257 -5.34752,5.26775 -10.56387,10.66489 -5.21635,5.39537 -10.29976,10.91836 -5.08342,5.52298 -10.02858,11.17004 -4.94694,5.64529 -9.75207,11.40933 -4.80692,5.76581 -9.47026,11.64683 -4.66334,5.88102 -9.18134,11.87548 -4.518,5.99269 -8.88889,12.09527 -4.37088,6.10258 -8.58934,12.30973 -4.22023,6.20716 -8.28625,12.51712 -4.06602,6.30818 -7.97607,12.71562 -3.91005,6.40745 -7.66234,12.90706 -3.7523,6.50138 -7.34508,13.09139 -3.591,6.59 -7.02071,13.26686 -3.42971,6.67686 -6.69458,13.43525 -3.26488,6.75839 -6.36491,13.59477 -3.09826,6.83637 -6.02813,13.7472 -2.92988,6.90905 -5.6896,13.88899 -2.76149,6.97995 -5.34929,14.02548 -2.58779,7.04553 -5.00365,14.15309 -2.41586,7.10579 -4.65625,14.27008 -2.24039,7.16251 -4.30353,14.37997 -2.06492,7.21568 -3.950818,14.48099 -1.88767,7.26532 -3.596322,14.57317 -1.708651,7.30962 -3.236512,14.65824 -1.529633,7.34685 -2.878475,14.73092 -1.348842,7.38407 -2.51512,14.79827 -1.168052,7.4142 -2.153539,14.85498 -0.985488,7.44079 -1.788412,14.90462 -0.802925,7.46206 -1.423286,14.94184 -0.620361,7.48155 -1.056386,14.97374 -0.436025,7.49396 -0.689487,14.99501 -0.248144,7.40002 -0.31727,14.80359 -0.06735,7.40356 0.04431,14.80713 0.113438,7.40356 0.405894,14.80181 0.294228,7.39825 0.767475,14.78764 0.475019,7.38938 1.129057,14.76459 0.654038,7.3752 1.487094,14.73091 0.834828,7.35748 1.848676,14.69192 1.013847,7.33444 2.20494,14.6423 1.192865,7.30785 2.562977,14.5838 1.370112,7.27595 2.919242,14.51644 1.547357,7.2405 3.270188,14.44201 1.724604,7.19973 3.624681,14.35692 1.898303,7.15543 3.972083,14.26476 2.07378,7.10757 4.31949,14.16196 2.24748,7.05616 4.66511,14.05383 2.41764,6.99768 5.0072,13.93508 2.58779,6.93741 5.34397,13.80924 2.75794,6.87183 5.68073,13.67453 2.92456,6.8027 6.01396,13.53096 3.0894,6.72826 6.34186,13.3803 3.25246,6.65204 6.66622,13.22255 3.41376,6.56874 6.98704,13.05417 3.57328,6.48543 7.30431,12.88049 3.72925,6.3968 7.61626,12.6979 3.88523,6.3028 7.92289,12.51 4.03944,6.2054 8.22776,12.3097 4.18833,6.1062 8.52554,12.1077 4.33721,6.0016 8.81798,11.895 4.48256,5.8934 9.1069,11.6752 4.62435,5.7835 9.38872,11.4501 4.76438,5.6683 9.66523,11.2179 4.90085,5.5495 9.93641,10.9786 5.16849,5.6098 10.47347,11.0903 5.30497,5.4804 10.74288,10.8297 5.43968,5.3475 11.00697,10.5603 5.56907,5.2128 11.26399,10.2874 5.69491,5.0745 11.51212,10.0073 5.81899,4.9327 11.75673,9.7219 5.93774,4.7874 11.99069,9.4277 6.05473,4.6403 12.22111,9.1318 6.16462,4.4896 12.4409,8.8268 6.27451,4.3354 12.65359,8.5185 6.37909,4.1812 12.8592,8.2029 6.48189,4.0235 13.05949,7.8857 6.57759,3.8622 13.24736,7.5613 6.67154,3.6991 13.42993,7.2334 6.76016,3.5343 13.6054,6.902 6.84347,3.3659 13.76847,6.5634 6.92678,3.1975 13.92799,6.2231 7.00122,3.0256 14.07688,5.8775 7.07389,2.8536 14.21513,5.53 7.14301,2.6782 14.34806,5.1792 7.20683,2.5009 14.47214,4.8228 7.26531,2.3237 14.58557,4.4666 7.32026,2.1447 14.69192,4.1068 7.36989,1.9621 14.78764,3.7435 7.41597,1.7813 14.87448,3.3783 7.45851,1.5969 14.95425,3.0114 7.49573,1.4126 15.02514,2.6409 7.52764,1.2301 15.08364,2.2723 7.55599,1.044 15.13503,1.9001 7.57904,0.8561 15.17758,1.5261 7.59853,0.67 15.21125,1.1539 7.61271,0.4821 15.23429,0.7781 c -1.223,-80.9004 1.30985,-161.7937 0.48388,-242.6764 -0.26409,-25.729 0.51047,-51.926 -1.17868,-77.58056 0.22155,-27.04597 1.01562,-54.294 0.69126,-81.32224 -30.81599,-8.41032 -58.63121,-23.56308 -74.97861,-52.22199 -13.58413,-23.81831 -18.81643,-55.05615 -11.41109,-81.72813 2.21025,-7.96012 5.76758,-15.57638 9.0484,-23.14124 -12.37886,-14.3516 -26.39015,-27.4554 -39.58789,-41.06789 -36.58889,-37.73922 -74.39724,-74.45928 -110.66354,-112.45727 -19.12307,15.74476 -31.81743,18.77389 -55.89098,22.15575 1.12197,33.43037 -0.14357,66.98303 0.1418,100.4329 29.89253,35.21346 64.46968,67.15674 97.09713,99.8019 q 71.58257,72.28092 143.96983,143.75714 l 0.0496,28.56674 c -2.13936,17.01559 -1.03689,45.69049 -1.01739,63.52679 l 0.0603,97.285 c 0.0142,18.3697 0.57605,36.9327 -0.20383,55.2794 -0.34563,0.1153 -0.67531,0.3085 -1.03866,0.3439 -6.49075,0.6399 -27.51212,-4.1263 -34.82884,-5.6559 -68.50203,-14.3268 -138.8102,-41.5518 -195.55197,-83.1603 -65.41972,-47.9734 -112.19494,-97.5491 -153.71127,-167.36276 -8.51313,-14.31616 -17.45342,-28.98858 -24.40146,-44.11653 -6.26565,-13.64085 -11.50504,-28.34695 -16.56896,-42.47877 -7.37697,-20.59067 -15.19884,-42.37421 -18.53638,-64.06734 -4.56409,-14.94539 -6.92678,-31.48067 -8.96333,-46.96133 z m 515.71319,-473.1387 c -20.86186,1.82918 -40.701,8.2827 -54.63431,24.78253 -12.32569,14.59267 -18.43536,35.17625 -16.77279,54.14511 1.71751,19.59278 11.38806,38.97994 26.65603,51.49528 13.21723,10.83505 28.923,14.87803 45.70465,15.46117 20.57472,-2.08796 39.71197,-9.36568 53.13835,-25.72371 12.0031,-14.62457 19.29323,-34.46194 17.20704,-53.4698 -2.05605,-18.74908 -12.02614,-39.1625 -26.95734,-50.96177 -12.43381,-9.82475 -28.63941,-14.91171 -44.34163,-15.72881 z m 97.74053,116.11385 c -12.79362,27.27107 -32.50692,47.45585 -61.12505,57.78929 -5.57085,2.00997 -11.3278,3.60696 -17.01562,5.26066 l -0.52819,234.04625 c 17.42682,1.8345 40.23129,10.11543 52.86539,22.65559 15.10313,-11.76914 29.43701,-25.48798 42.78009,-39.221 35.1213,-35.23118 70.97462,-69.62577 106.54966,-104.38194 -13.89431,-25.20615 -18.85897,-55.31139 -10.87581,-83.33043 1.6218,-5.69315 4.05893,-11.07433 6.76725,-16.32259 Q 867.39648,445.2967 824.9957,418.66372 c -10.99457,-7.00654 -23.51523,-16.98726 -35.55378,-21.7924 z m -197.2039,1.24782 c -27.42527,17.26021 -54.43225,35.36412 -81.46049,53.24292 -11.83471,7.82718 -25.17425,14.72205 -36.07488,23.81477 10.74466,27.95879 14.2045,55.83781 1.64839,83.83559 -1.72815,3.8551 -3.85687,7.54004 -5.95901,11.20195 20.479,17.95502 38.28691,38.30108 57.24869,57.77156 17.27971,17.74409 35.28259,34.77212 52.3886,52.69701 11.85066,13.81632 25.37808,26.06048 37.71263,39.41951 15.79262,-15.01983 33.58812,-24.58225 55.22631,-27.6681 l -0.16661,-130.61081 c 0.11343,-33.66256 0.95358,-67.6867 -0.23042,-101.31559 -31.45585,-9.62091 -46.66888,-16.22155 -67.81787,-43.40045 -4.1511,-5.33511 -8.07533,-14.7965 -12.51534,-18.98836 z m 93.76136,329.18127 c -18.64982,2.30065 -35.69025,9.57305 -47.4842,24.65314 -12.9106,16.51047 -19.40667,37.02492 -16.67885,57.91868 2.46727,18.91392 13.57173,36.79804 28.7883,48.13647 13.88545,10.34585 30.53416,14.85498 47.69867,13.99534 18.58247,-1.29389 36.41873,-11.0566 48.55831,-25.06081 12.53129,-14.45618 18.20139,-33.3772 16.75152,-52.33188 -1.46937,-19.21347 -11.28702,-36.88844 -25.81765,-49.36833 -12.9425,-11.1151 -34.25456,-18.46549 -51.23119,-17.99756 -0.19497,0.005 -0.38994,0.0372 -0.58491,0.055 z m -319.93257,23.56662 c -17.49418,8.46173 -35.92777,15.04996 -53.79771,22.68927 -19.80192,8.46526 -39.09692,17.89298 -58.73578,26.69502 -9.67763,4.3372 -19.9065,7.71374 -29.33598,12.56319 8.24903,26.36712 17.20172,52.74132 28.6979,77.88898 31.15275,68.15641 80.56362,132.52331 139.3189,179.28611 27.92688,22.2266 58.12782,40.6514 89.67407,57.2575 q 4.17946,2.1873 8.43336,4.222 c 34.01351,15.0518 66.63386,26.1261 102.769,34.8324 1.11134,-62.7734 0.4183,-125.6355 0.68063,-188.41956 -21.07278,-22.68217 -219.78681,-224.63449 -225.94788,-226.9316 -0.54947,-0.20383 -1.1716,-0.0549 -1.75651,-0.0833 z m 650.78169,1.64308 -137.30712,136.95798 c -29.52918,29.14279 -60.22819,57.66344 -88.35713,88.15507 -2.79163,16.37576 -0.95358,35.11064 -0.84369,51.78424 l 0.61327,94.1087 c 0.10635,13.7827 1.14678,27.7479 0.63099,41.4968 l 0.93055,1.1947 c 6.10435,0.5725 13.40157,-2.2191 19.256,-3.7931 29.75961,-8.0044 57.65104,-18.2014 85.38117,-31.6703 21.49817,-9.9453 40.4564,-21.7073 60.18565,-34.7331 16.03545,-10.5869 31.93973,-21.2855 46.64051,-33.7051 34.1908,-28.884 62.621,-63.54094 87.501,-100.56408 5.6737,-8.44223 11.6965,-16.87737 16.7285,-25.71485 14.3126,-25.12639 26.2236,-52.64206 36.1422,-79.80324 5.2696,-14.42782 9.4792,-29.77201 12.9036,-44.74575 -22.7194,-7.59322 -44.9425,-18.73313 -67.038,-28.10413 -24.3908,-10.34408 -49.4676,-19.40135 -73.3675,-30.86384 z"
     id="path10"
     style="stroke-width:1.77246" />
  <defs
     id="defs11">
    <linearGradient
       id="gradient_0"
       gradientUnits="userSpaceOnUse"
       x1="488.62427"
       y1="857.04407"
       x2="534.77094"
       y2="167.98694"
       gradientTransform="matrix(1.77246,0,0,1.77246,-215.70419,-213.24486)">
      <stop
         offset="0"
         stop-color="#3DAADA"
         id="stop10" />
      <stop
         offset="1"
         stop-color="#5BCCE8"
         id="stop11" />
    </linearGradient>
  </defs>
  <path
     fill="url(#gradient_0)"
     d="m 754.7017,1209.9519 c 23.99734,-4.6226 48.22864,-8.7187 71.78463,-15.2999 q 8.10015,-2.2758 16.1223,-4.814 8.02393,-2.5381 15.95923,-5.3333 7.93708,-2.7952 15.77844,-5.8456 7.84314,-3.0504 15.5817,-6.3525 7.73856,-3.3021 15.36722,-6.8523 7.62867,-3.5502 15.13858,-7.3451 7.50992,-3.7966 14.89221,-7.8325 7.38407,-4.0359 14.63343,-8.3075 7.24759,-4.2734 14.35516,-8.7772 7.10756,-4.5038 14.06447,-9.2363 6.95867,-4.7307 13.7596,-9.6865 6.80093,-4.954 13.43883,-10.1243 6.6378,-5.172 13.1038,-10.555 6.4677,-5.383 12.7564,-10.9733 6.2904,-5.5886 12.3965,-11.3774 6.1062,-5.7906 12.0209,-11.7745 c 83.6424,-85.03197 131.6867,-181.67003 147.0291,-300.10581 2.6073,-20.12274 5.7729,-41.67585 5.4733,-61.93507 q -0.101,-10.47878 -0.5955,-20.94516 -0.4963,-10.46815 -1.3861,-20.90971 -0.8898,-10.44156 -2.1712,-20.84058 -1.2833,-10.4008 -2.9565,-20.74488 -1.6732,-10.34585 -3.7346,-20.61902 -2.0631,-10.27495 -4.5109,-20.46305 -2.4478,-10.18988 -5.2784,-20.27872 -2.8306,-10.09061 -6.0388,-20.06602 c -3.4456,-11.08496 -6.5705,-22.41276 -10.9272,-33.18045 -6.0777,-15.0216 -13.5841,-29.49905 -21.1773,-43.79926 -27.957,-52.64206 -62.1708,-97.72104 -104.9492,-139.13811 -16.475,-15.95037 -34.5948,-29.99711 -53.17198,-43.39691 q -7.35039,-5.38473 -14.88866,-10.5036 -7.53827,-5.11886 -15.25557,-9.96654 -7.71551,-4.84591 -15.59942,-9.41531 -7.88567,-4.56763 -15.92732,-8.85166 -8.04343,-4.28404 -16.23396,-8.27739 -8.19054,-3.99335 -16.51756,-7.69248 -8.32701,-3.69912 -16.78165,-7.0987 -8.45463,-3.39958 -17.02448,-6.49429 -8.57161,-3.09649 -17.24603,-5.8828 -8.67619,-2.78808 -17.44633,-5.2642 -8.76836,-2.47613 -17.62002,-4.63676 -8.85344,-2.16063 -17.776,-4.00576 -8.92434,-1.84336 -17.90894,-3.36767 -8.98283,-1.52255 -18.01528,-2.72605 -9.03246,-1.20172 -18.10214,-2.08086 -9.07145,-0.87914 -18.16594,-1.43392 c -15.25911,-0.94295 -31.034,-0.13117 -46.33388,0.11875 -14.74864,0.24105 -29.49018,2.00465 -44.11475,3.82497 q -13.04708,1.64661 -25.99313,3.94727 -12.94782,2.30065 -25.7627,5.25002 -12.81489,2.9476 -25.46494,6.53684 -12.65182,3.58923 -25.10512,7.80945 -12.45508,4.22023 -24.68151,9.06082 -12.22643,4.84059 -24.19408,10.28913 -11.96765,5.45032 -23.64638,11.4944 -11.67874,6.04232 -23.03844,12.666 c -11.39514,6.7708 -22.29932,14.60862 -33.23894,22.10081 -25.8921,17.73169 -50.42826,36.96819 -72.26674,59.61137 -44.77943,46.43314 -90.00197,111.46292 -114.15706,171.56704 -7.07211,17.60053 -12.1573,35.98271 -17.5704,54.14156 -9.02004,30.25767 -16.19142,59.60783 -19.09825,91.16826 -2.22798,24.17989 -3.8551,49.32047 -2.86784,73.60494 0.46438,11.4625 2.41763,22.86474 2.56652,34.33432 l 0.005,1.02626 c 2.03655,15.48066 4.39924,32.01594 8.96333,46.96133 3.33754,21.69313 11.15941,43.47667 18.53638,64.06734 5.06392,14.13182 10.30331,28.83792 16.56896,42.47877 6.94804,15.12795 15.88833,29.80037 24.40146,44.11653 41.51633,69.81366 88.29155,119.38936 153.71127,167.36276 56.74177,41.6085 127.04994,68.8335 195.55197,83.1603 7.31672,1.5296 28.33809,6.2958 34.82884,5.6559 0.36335,-0.035 0.69303,-0.2286 1.03866,-0.3439 0.77988,-18.3467 0.21801,-36.9097 0.20383,-55.2794 l -0.0603,-97.285 c -0.0195,-17.8363 -1.12197,-46.5112 1.01739,-63.52679 1.14856,-4.16528 0.79406,-8.68682 0.79584,-12.9815 l 5.98737,-0.0159 c 4.61016,2.40523 8.92433,5.52476 13.67984,7.63044 6.92146,3.06636 12.82021,0.93941 19.48466,-1.47114 l 1.03157,0.54237 -1.09538,4.3443 1.65016,-0.82419 c 1.68915,25.65451 0.91459,51.85151 1.17868,77.58051 0.82597,80.8828 -1.70688,161.7761 -0.48388,242.6765 q -7.62158,-0.2961 -15.23429,-0.7781 -7.61272,-0.4839 -15.21125,-1.1539 -7.59854,-0.6701 -15.17758,-1.5262 -7.57904,-0.8561 -15.13503,-1.9001 -7.556,-1.0422 -15.08364,-2.2723 -7.52941,-1.2283 -15.02514,-2.6409 -7.49574,-1.4145 -14.95425,-3.0114 -7.45851,-1.597 -14.87448,-3.3783 -7.41775,-1.7814 -14.78764,-3.7435 -7.37166,-1.9621 -14.69192,-4.1068 -7.32026,-2.1429 -14.58557,-4.4648 -7.26531,-2.3237 -14.47214,-4.8246 -7.20505,-2.501 -14.34806,-5.1792 -7.14124,-2.6764 -14.21513,-5.53 -7.07566,-2.8519 -14.07688,-5.8775 -7.00121,-3.0256 -13.92799,-6.2231 -6.925,-3.1975 -13.76847,-6.5634 -6.84524,-3.3677 -13.6054,-6.902 -6.75839,-3.5343 -13.42993,-7.2334 -6.66977,-3.6991 -13.24736,-7.5613 -6.5776,-3.8622 -13.05949,-7.8857 -6.48011,-4.0217 -12.8592,-8.2029 -6.37908,-4.1813 -12.65536,-8.5185 -6.27451,-4.3372 -12.43913,-8.8268 -6.16638,-4.4915 -12.22111,-9.1318 -6.05295,-4.6403 -11.99069,-9.4277 -5.93774,-4.7892 -11.75673,-9.7219 -5.81721,-4.9328 -11.51212,-10.0073 -5.69492,-5.0746 -11.26399,-10.2874 -5.56729,-5.2128 -11.00697,-10.5603 -5.43791,-5.3493 -10.74288,-10.8297 -5.30498,-5.4805 -10.47347,-11.0903 -5.03556,-5.4291 -9.93641,-10.9786 -4.90085,-5.5496 -9.66523,-11.2179 -4.76437,-5.6666 -9.38872,-11.4501 -4.62434,-5.7818 -9.1069,-11.6752 -4.48077,-5.8934 -8.81798,-11.895 -4.33721,-6.0015 -8.52554,-12.1077 -4.18832,-6.1043 -8.22776,-12.3097 -4.03766,-6.2072 -7.92289,-12.51 -3.88701,-6.3011 -7.61626,-12.6979 -3.73103,-6.39501 -7.30431,-12.88044 -3.57328,-6.48543 -6.98704,-13.05417 -3.41376,-6.57051 -6.66622,-13.22255 -3.25246,-6.65204 -6.34186,-13.3803 -3.0894,-6.72826 -6.01396,-13.53096 -2.92279,-6.8027 -5.68073,-13.67453 -2.75618,-6.87183 -5.34397,-13.80924 -2.58956,-6.9374 -5.0072,-13.93508 -2.41763,-6.99767 -4.66511,-14.05383 -2.24571,-7.05439 -4.31949,-14.16196 -2.07378,-7.10933 -3.972082,-14.26476 -1.900077,-7.15719 -3.624681,-14.35692 -1.722831,-7.20151 -3.270188,-14.44201 -1.54913,-7.24049 -2.919242,-14.51644 -1.370112,-7.27595 -2.562977,-14.5838 -1.191093,-7.30786 -2.20494,-14.6423 -1.013848,-7.33444 -1.848676,-14.69192 -0.833056,-7.35571 -1.487094,-14.73091 -0.654038,-7.37521 -1.129057,-14.76459 -0.473247,-7.38939 -0.767475,-14.78764 -0.292456,-7.39825 -0.405894,-14.80181 -0.111665,-7.40357 -0.04431,-14.80713 0.06913,-7.40357 0.31727,-14.80359 0.253462,-7.50105 0.689487,-14.99501 0.436025,-7.49219 1.056386,-14.97374 0.620361,-7.47978 1.423286,-14.94184 0.802924,-7.46383 1.788412,-14.90462 0.985487,-7.44078 2.153539,-14.85498 1.166278,-7.4142 2.51512,-14.79827 1.348842,-7.38407 2.878475,-14.73092 1.527861,-7.34862 3.236512,-14.65824 1.708652,-7.30785 3.596322,-14.57317 1.885897,-7.26531 3.950817,-14.48099 2.06314,-7.21746 4.30353,-14.37997 2.24039,-7.16429 4.65625,-14.27008 2.41586,-7.10756 5.00365,-14.15309 2.5878,-7.04553 5.34929,-14.02548 2.75972,-6.97994 5.6896,-13.88899 2.92987,-6.91083 6.02813,-13.7472 3.10003,-6.83638 6.36491,-13.59477 3.26487,-6.75839 6.69458,-13.43525 3.42971,-6.67686 7.02071,-13.26686 3.59278,-6.59001 7.34508,-13.09139 3.75229,-6.49961 7.66234,-12.90706 3.91005,-6.40744 7.97607,-12.71562 4.06602,-6.30996 8.28625,-12.51712 4.21846,-6.20715 8.58934,-12.30973 4.37089,-6.10258 8.88889,-12.09527 4.518,-5.99446 9.18134,-11.87548 4.66334,-5.88102 9.47026,-11.64683 4.80513,-5.76404 9.75207,-11.40933 4.94516,-5.64706 10.02858,-11.17004 5.08341,-5.52299 10.29976,-10.91836 5.21635,-5.39714 10.56387,-10.66489 5.34574,-5.26775 10.82086,-10.40257 c 78.77912,-72.63546 181.21845,-130.70834 286.1658,-154.312185 29.52741,-6.641408 59.88788,-10.111885 90.05338,-12.164393 20.42406,-1.391381 41.04486,-2.575385 61.51854,-1.698017 q 6.49784,0.2446 12.98859,0.627451 6.49252,0.382851 12.9744,0.90041 6.48189,0.51933 12.95137,1.175141 6.46948,0.654037 12.92301,1.446327 6.45529,0.790517 12.8911,1.717514 6.4358,0.926996 12.8521,1.9887 6.41454,1.061703 12.80603,2.259886 6.39149,1.196411 12.75639,2.527528 6.36491,1.331118 12.70145,2.79517 6.33477,1.465824 12.63764,3.062808 6.30464,1.59876 12.57206,3.32868 6.26919,1.72992 12.49939,3.59278 6.23019,1.86108 12.41962,3.85333 6.18944,1.99224 12.33633,4.11565 6.14689,2.12163 12.2477,4.37443 6.1008,2.25102 12.15198,4.62967 6.05118,2.37864 12.05273,4.8849 5.99978,2.50625 11.94638,5.13836 5.94483,2.6321 11.83471,5.38828 5.88989,2.75617 11.71951,5.63642 5.83139,2.88025 11.59898,5.88279 5.76758,3.00078 11.47136,6.12385 5.70378,3.12308 11.34197,6.36491 5.63645,3.24183 11.20375,6.60241 5.5673,3.35881 11.0619,6.83638 5.4964,3.47579 10.9166,7.0668 5.4219,3.59277 10.7659,7.29721 5.344,3.70445 10.6082,7.52055 5.2659,3.81611 10.4486,7.74211 5.1845,3.926 10.2838,7.96189 5.0994,4.03412 10.1137,8.17458 5.0125,4.14224 9.9382,8.38728 c 16.6735,14.28426 33.6944,29.01695 48.5512,45.219 q 4.7644,5.10823 9.4118,10.32281 4.6474,5.21458 9.1742,10.5355 4.5269,5.31915 8.9297,10.74111 4.4045,5.42195 8.6832,10.94317 4.2788,5.52121 8.4316,11.13814 4.1511,5.61869 8.1729,11.32956 4.0217,5.71087 7.9122,11.51213 3.8906,5.80126 7.6482,11.68937 3.7576,5.88989 7.3787,11.86308 3.6212,5.97141 7.1058,12.02614 3.4847,6.05472 6.8293,12.18743 3.3446,6.13094 6.5475,12.3381 3.2046,6.20715 6.2656,12.48698 3.0611,6.27805 5.9785,12.62523 2.9157,6.34718 5.6879,12.75817 2.7703,6.41276 5.3936,12.88578 2.625,6.4748 5.0993,13.00631 2.4744,6.53152 4.7998,13.11798 2.3255,6.58823 4.5003,13.2261 2.1748,6.63786 4.1954,13.32358 2.0224,6.68572 3.8906,13.41752 1.8682,6.73003 3.5839,13.5026 1.714,6.7708 3.272,13.57882 1.5597,6.80979 2.9635,13.65326 1.402,6.84169 2.6481,13.71529 1.2478,6.8736 2.3361,13.77202 1.0883,6.90018 2.0206,13.82341 0.9305,6.92323 1.7033,13.86596 0.7728,6.94095 1.3861,13.89963 0.6132,6.95867 1.0688,13.92799 0.4537,6.97108 0.7497,13.94926 0.2942,6.97995 0.4307,13.96344 c 0.1666,12.22997 0.7055,24.67796 0.062,36.89375 -4.1777,79.12262 -21.5443,160.06378 -55.7492,231.84486 -11.1488,23.40002 -24.2597,45.33244 -37.7977,67.38896 q -5.5656,9.2753 -11.4679,18.3396 -5.9022,9.0661 -12.1307,17.9089 -6.2284,8.8429 -12.7759,17.4535 -6.5474,8.6106 -13.4051,16.9748 -6.8576,8.366 -14.0166,16.475 -7.159,8.109 -14.6086,15.9522 -7.4514,7.8413 -15.1829,15.4062 -7.7315,7.5648 -15.7341,14.8426 c -106.29091,94.8868 -246.15218,154.2997 -389.08335,157.8783 l -0.18789,-202.2855 c 0.002,-45.4052 -1.05106,-91.0992 0.52465,-136.47769 q 0.32968,21.46272 0.36158,42.92719 c 0.0142,8.9545 -0.56009,17.7937 0.57074,26.7092 0.7462,-16.0851 0.4307,-32.3208 0.43425,-48.42536 0.002,-5.98737 -0.8047,-13.16938 0.18256,-19.02381 0.23929,-1.4162 0.79229,-2.77745 1.96389,-3.66191 4.06602,-3.06813 31.70576,-4.21668 37.53007,-3.95436 0.0159,12.14136 -1.33821,69.57974 0.31018,75.60604 0.28536,-13.157 -0.74975,-27.1275 0.70898,-40.1214 1.16096,9.6546 0.66822,19.8445 0.6434,29.5717 l -0.23751,46.6086 q -1.0812,66.6516 0.33145,133.2979 z"
     id="path11"
     style="fill:url(#gradient_0);stroke-width:1.77246" />
  <defs
     id="defs13">
    <linearGradient
       id="gradient_1"
       gradientUnits="userSpaceOnUse"
       x1="403.08145"
       y1="534.10596"
       x2="711.38446"
       y2="323.75085"
       gradientTransform="matrix(1.77246,0,0,1.77246,-215.70419,-213.24486)">
      <stop
         offset="0"
         stop-color="#CFCFCE"
         id="stop12" />
      <stop
         offset="1"
         stop-color="white"
         id="stop13" />
    </linearGradient>
  </defs>
  <path
     fill="url(#gradient_1)"
     d="m 283.4879,443.13253 c 34.21734,-63.67031 101.46979,-127.28035 162.55762,-164.57291 32.89154,-20.0802 70.65912,-36.7041 107.50502,-47.88124 q 5.62224,-1.66611 11.28348,-3.19751 5.66123,-1.52964 11.35792,-2.92102 5.69669,-1.39315 11.42528,-2.64628 5.72859,-1.2549 11.48554,-2.36801 5.75695,-1.11487 11.54049,-2.08973 5.78176,-0.97485 11.58657,-1.80791 5.8048,-0.83483 11.62733,-1.52786 5.82431,-0.69303 11.66102,-1.24426 5.83848,-0.55124 11.68937,-0.96068 5.84912,-0.41121 11.7071,-0.67885 5.85798,-0.26764 11.72128,-0.39349 5.8633,-0.12584 11.72659,-0.10812 5.86507,0.016 11.7266,0.17548 5.86152,0.15775 11.71773,0.45906 5.85798,0.30132 11.70533,0.74267 5.84734,0.44311 11.68228,1.02802 5.83494,0.58491 11.65393,1.30985 5.81898,0.72671 11.61847,1.59344 5.79949,0.86673 11.57771,1.87349 5.77645,1.00676 11.52631,2.15354 5.75163,1.14678 11.47313,2.43359 5.7215,1.28503 11.40933,2.71009 5.68959,1.42506 11.34197,2.98659 5.65237,1.56154 11.26575,3.25956 5.61161,1.69979 11.18245,3.53251 5.56907,1.8345 11.09383,3.8037 5.52299,1.9692 10.99812,4.07134 5.47335,2.10214 10.89531,4.33544 5.42195,2.23507 10.78896,4.59953 5.36524,2.36446 10.67376,4.86009 5.30674,2.49385 10.55145,5.11709 5.24471,2.62147 10.42561,5.37055 4.26277,2.30597 8.47945,4.69702 4.21491,2.39105 8.38196,4.86541 4.16883,2.47435 8.28448,5.03378 4.11742,2.55766 8.18167,5.19685 4.06426,2.64097 8.07533,5.3617 4.00931,2.72249 7.96544,5.52298 3.95613,2.80049 7.85377,5.68074 3.89764,2.88024 7.73679,5.83848 3.84092,2.95646 7.6198,5.99091 3.77889,3.03445 7.49751,6.14335 3.71866,3.11067 7.37346,6.29401 3.653,3.18333 7.244,6.43934 3.5892,3.25601 7.1147,6.58292 3.5236,3.32691 6.9799,6.72471 3.4563,3.39781 6.8435,6.86474 3.3889,3.46516 6.7052,6.99944 3.318,3.53252 6.5634,7.13238 3.2454,3.59987 6.4199,7.26354 3.1727,3.66368 6.2709,7.38939 3.0983,3.72748 6.1221,7.51523 3.0238,3.78775 5.9697,7.63576 2.9476,3.84801 5.8154,7.75451 2.8696,3.9065 5.6595,7.86972 2.7898,3.96322 5.4999,7.98139 2.7101,4.01817 5.3387,8.09128 2.6285,4.07134 5.1755,8.19586 2.5453,4.12274 5.009,8.29688 2.4637,4.17414 4.8424,8.39792 2.3786,4.222 4.6722,8.49185 2.2935,4.26986 4.5003,8.5858 2.2084,4.31417 4.3283,8.67264 2.1199,4.35848 4.1529,8.75773 c 11.9552,26.19873 20.775,53.41663 29.0116,80.95534 14.9152,49.86462 17.8256,99.58566 14.8869,151.3929 -0.9855,17.38251 -2.1057,35.36235 -6.1469,52.33897 -31.688,-12.33278 -62.6848,-25.86197 -94.045,-39.01894 -13.1853,-5.53184 -28.7883,-9.93109 -40.8357,-17.40733 -0.911,-13.22255 -0.1542,-26.67197 -0.032,-39.92643 q 0.2251,-30.8798 -0.3137,-61.75605 c 25.4064,-7.83427 47.8919,-24.85166 60.5012,-48.54945 13.32,-25.03068 16.0106,-52.65625 7.6322,-79.68981 -7.7404,-24.97041 -27.2481,-47.42393 -50.462,-59.326 q -2.2953,-1.17869 -4.6456,-2.24039 -2.352,-1.06171 -4.7537,-2.00466 -2.4017,-0.94294 -4.8477,-1.76359 -2.446,-0.82242 -4.9292,-1.52077 -2.4832,-0.69658 -5.0001,-1.26909 -2.5151,-0.5725 -5.0568,-1.01916 -2.54,-0.44489 -5.1012,-0.76393 -2.5594,-0.31727 -5.133,-0.50692 -2.5736,-0.18966 -5.1526,-0.24992 -2.5789,-0.0603 -5.15783,0.009 -2.57893,0.0691 -5.15254,0.26764 -2.57184,0.19852 -5.13128,0.52465 -2.55943,0.32791 -5.09936,0.78166 -2.53817,0.45552 -5.05329,1.03689 -2.51335,0.58136 -4.99479,1.2868 -2.48144,0.70721 -4.92389,1.53672 c -13.18533,4.40811 -26.42384,11.18068 -37.06037,20.21137 -18.94051,-11.34907 -38.20183,-22.50138 -56.65846,-34.61615 -24.62301,-16.16306 -48.73024,-33.68383 -73.83004,-49.06346 -1.0812,-35.5715 -8.76127,-60.86982 -35.53251,-85.94659 q -1.86463,-1.73878 -3.81256,-3.3854 -1.94616,-1.64661 -3.97208,-3.19574 -2.02593,-1.54913 -4.12452,-2.99723 -2.09859,-1.4481 -4.26631,-2.79163 -2.16772,-1.34352 -4.39747,-2.57893 -2.22976,-1.23717 -4.518,-2.36269 -2.28825,-1.12551 -4.6279,-2.13758 -2.34142,-1.01208 -4.72892,-1.90894 -2.38573,-0.89687 -4.814,-1.67675 -2.42827,-0.77811 -4.89199,-1.43746 -2.46372,-0.65936 -4.9558,-1.19819 -2.49208,-0.53882 -5.0072,-0.95358 -2.51689,-0.41653 -5.04974,-0.70721 -2.53284,-0.29246 -5.0781,-0.46084 -2.54348,-0.16839 -5.09405,-0.21092 -2.54879,-0.0443 -5.09759,0.0372 c -29.06834,1.19286 -56.71518,12.83793 -76.39303,34.48321 -22.20538,24.42804 -28.2601,48.80646 -28.02791,80.99078 -18.46371,9.9825 -35.46869,22.91082 -52.93274,34.50094 -25.67763,17.04043 -52.0217,33.50481 -78.09104,49.96919 -19.06281,-18.53816 -43.3402,-27.68228 -69.85974,-27.43236 -26.76238,0.25346 -52.33366,9.77157 -71.00475,29.27926 -19.38894,20.25922 -26.24659,45.21191 -29.71529,72.30574 -2.39105,-15.03046 5.00365,-36.3762 11.85244,-49.58989 2.72959,-5.26598 6.30287,-9.98604 9.30364,-15.08186 0.27828,-0.47325 1.59876,-2.78808 1.62357,-3.29323 0.062,-1.33112 -5.83848,-11.52099 -6.63254,-14.88512 -0.79406,-3.36059 -1.24604,-6.33832 -4.25036,-8.32525 -5.06569,3.09649 -5.61338,12.25479 -11.27816,15.05528 z"
     id="path13"
     style="fill:url(#gradient_1);stroke-width:1.77246" />
  <path
     fill="#7ccdf4"
     d="m 692.65497,426.64156 c -16.78165,-0.58314 -32.48742,-4.62612 -45.70465,-15.46117 -15.26797,-12.51534 -24.93852,-31.9025 -26.65603,-51.49528 -1.66257,-18.96886 4.4471,-39.55244 16.77279,-54.14511 13.93331,-16.49983 33.77245,-22.95335 54.63431,-24.78253 15.70222,0.8171 31.90782,5.90406 44.34163,15.72881 14.9312,11.79927 24.90129,32.21269 26.95734,50.96177 2.08619,19.00786 -5.20394,38.84523 -17.20704,53.4698 -13.42638,16.35803 -32.56363,23.63575 -53.13835,25.72371 z"
     id="path14"
     style="stroke-width:1.77246" />
  <path
     fill="#ebebeb"
     d="m 711.30125,459.92127 c 5.68782,-1.6537 11.44477,-3.25069 17.01562,-5.26066 28.61813,-10.33344 48.33143,-30.51822 61.12505,-57.78929 12.03855,4.80514 24.55921,14.78586 35.55378,21.7924 q 42.40078,26.63298 83.86394,54.70343 c -2.70832,5.24826 -5.14545,10.62944 -6.76725,16.32259 -7.98316,28.01904 -3.0185,58.12428 10.87581,83.33043 -35.57504,34.75617 -71.42836,69.15076 -106.54966,104.38194 -13.34308,13.73302 -27.67696,27.45186 -42.78009,39.221 -12.6341,-12.54016 -35.43857,-20.82109 -52.86539,-22.65559 z"
     id="path15"
     style="stroke-width:1.77246" />
  <path
     fill="#ebebeb"
     d="m 474.70265,475.17683 c 10.90063,-9.09272 24.24017,-15.98759 36.07488,-23.81477 27.02824,-17.8788 54.03522,-35.98271 81.46049,-53.24292 4.44001,4.19186 8.36424,13.65325 12.51534,18.98836 21.14899,27.1789 36.36202,33.77954 67.81787,43.40045 1.184,33.62889 0.34385,67.65303 0.23042,101.31559 l 0.16661,130.61081 c -21.63819,3.08585 -39.43369,12.64827 -55.22631,27.6681 -12.33455,-13.35903 -25.86197,-25.60319 -37.71263,-39.41951 -17.10601,-17.92489 -35.10889,-34.95292 -52.3886,-52.69701 -18.96178,-19.47048 -36.76969,-39.81654 -57.24869,-57.77156 2.10214,-3.66191 4.23086,-7.34685 5.95901,-11.20195 12.55611,-27.99778 9.09627,-55.8768 -1.64839,-83.83559 z"
     id="path16"
     style="stroke-width:1.77246" />
  <path
     fill="#c5c6c6"
     d="m 214.51084,775.6992 c -4.23618,-34.46549 -7.22632,-69.8367 -5.37941,-104.56982 3.88877,-73.14588 31.86351,-168.19582 74.35647,-227.99685 5.66478,-2.80049 6.21247,-11.95879 11.27816,-15.05528 3.00432,1.98693 3.4563,4.96466 4.25036,8.32525 0.79406,3.36413 6.69458,13.554 6.63254,14.88512 -0.0248,0.50515 -1.34529,2.81998 -1.62357,3.29323 -3.00077,5.09582 -6.57405,9.81588 -9.30364,15.08186 -6.84879,13.21369 -14.24349,34.55943 -11.85244,49.58989 0.83128,3.52542 0.51933,7.87858 0.92522,11.54757 1.24072,11.18777 4.23441,21.40246 9.06082,31.58879 11.62556,24.53616 34.40522,44.63408 59.88433,53.66831 -0.23042,33.96034 0.30132,67.99157 -0.35804,101.93772 l -95.52673,40.73645 c -13.95989,5.80658 -27.87193,12.59865 -42.34407,16.96776 z"
     id="path17"
     style="stroke-width:1.77246" />
  <path
     fill="#c5c6c6"
     d="m 672.28409,988.48834 -1.65016,0.82419 1.09538,-4.3443 -1.03157,-0.54237 c -6.66445,2.41055 -12.5632,4.5375 -19.48466,1.47114 -4.75551,-2.10568 -9.06968,-5.22521 -13.67984,-7.63044 l -5.98737,0.0159 c -0.002,4.29468 0.35272,8.81622 -0.79584,12.9815 l -0.0496,-28.56674 Q 558.31314,891.22105 486.73057,818.94013 c -32.62745,-32.64516 -67.2046,-64.58844 -97.09713,-99.8019 -0.28537,-33.44987 0.98017,-67.00253 -0.1418,-100.4329 24.07355,-3.38186 36.76791,-6.41099 55.89098,-22.15575 36.2663,37.99799 74.07465,74.71805 110.66354,112.45727 13.19774,13.61249 27.20903,26.71629 39.58789,41.06789 -3.28082,7.56486 -6.83815,15.18112 -9.0484,23.14124 -7.40534,26.67198 -2.17304,57.90982 11.41109,81.72813 16.3474,28.65891 44.16262,43.81167 74.97861,52.22199 0.32436,27.02824 -0.46971,54.27627 -0.69126,81.32224 z"
     id="path18"
     style="stroke-width:1.77246" />
  <defs
     id="defs19">
    <linearGradient
       id="gradient_2"
       gradientUnits="userSpaceOnUse"
       x1="507.33875"
       y1="641.74823"
       x2="689.13544"
       y2="480.21893"
       gradientTransform="matrix(1.77246,0,0,1.77246,-215.70419,-213.24486)">
      <stop
         offset="0"
         stop-color="#C5CBCF"
         id="stop18" />
      <stop
         offset="1"
         stop-color="#F6F3F0"
         id="stop19" />
    </linearGradient>
  </defs>
  <path
     fill="url(#gradient_2)"
     d="m 712.16621,942.10661 c -0.6824,-12.08818 0.37576,-24.21181 -0.22688,-36.27517 31.37432,-9.01119 57.44721,-22.00686 73.85487,-51.94549 13.75783,-25.10335 17.83449,-59.00696 9.59787,-86.52086 q -1.55445,-5.33333 -3.82851,-10.40079 -2.27407,-5.06924 -5.22522,-9.77512 c 34.79517,-31.62778 67.62112,-65.65546 100.8512,-98.92808 16.22156,-16.24283 32.34031,-34.78807 50.60906,-48.64871 11.74609,8.88711 25.14943,14.39237 39.56662,17.23717 4.74133,0.93586 10.61704,1.07943 14.99147,3.06458 1.69447,14.39947 0.63985,29.84469 0.73911,44.37177 0.13116,19.42439 1.00144,38.91436 0.888,58.32811 -30.61924,33.40378 -63.81387,64.96243 -96.24989,96.6168 l -88.94559,87.92642 c -10.44333,10.20051 -28.84324,33.45873 -39.79882,39.92466 -5.37055,1.22654 -11.53516,8.74355 -15.57283,12.60574 -12.05273,0 -28.65713,1.23895 -40.04519,-2.29002 -1.38074,-4.40456 1.05639,-9.27351 -0.58314,-13.73834 -0.1932,-0.52287 -0.41475,-1.03512 -0.62213,-1.55267 z"
     id="path19"
     style="fill:url(#gradient_2);stroke-width:1.77246" />
  <path
     fill="#7ccdf4"
     d="m 698.3233,872.00404 c -17.16451,0.85964 -33.81322,-3.64949 -47.69867,-13.99534 -15.21657,-11.33843 -26.32103,-29.22255 -28.7883,-48.13647 -2.72782,-20.89376 3.76825,-41.40821 16.67885,-57.91868 11.79395,-15.08009 28.83438,-22.35249 47.4842,-24.65314 0.19497,-0.0177 0.38994,-0.0496 0.58491,-0.055 16.97663,-0.46793 38.28869,6.88246 51.23119,17.99756 14.53063,12.47989 24.34828,30.15486 25.81765,49.36833 1.44987,18.95468 -4.22023,37.8757 -16.75152,52.33188 -12.13958,14.00421 -29.97584,23.76692 -48.55831,25.06081 z"
     id="path20"
     style="stroke-width:1.77246" />
  <path
     fill="#c5c6c6"
     d="m 224.19734,812.81451 c 9.42948,-4.84945 19.65835,-8.22599 29.33598,-12.56319 19.63886,-8.80204 38.93386,-18.22976 58.73578,-26.69502 17.86994,-7.63931 36.30353,-14.22754 53.79771,-22.68927 0.58491,0.0284 1.20704,-0.12052 1.75651,0.0833 6.16107,2.29711 204.8751,204.24943 225.94788,226.9316 -0.26233,62.78407 0.43071,125.64617 -0.68063,188.41957 -36.13514,-8.7063 -68.75549,-19.7806 -102.769,-34.8324 q -4.2539,-2.0347 -8.43336,-4.222 c -31.54625,-16.6061 -61.74719,-35.0309 -89.67407,-57.2575 -58.75528,-46.7628 -108.16615,-111.12971 -139.3189,-179.28612 -11.49618,-25.14766 -20.44887,-51.52186 -28.6979,-77.88898 z"
     id="path21"
     style="stroke-width:1.77246" />
  <defs
     id="defs22">
    <linearGradient
       id="gradient_3"
       gradientUnits="userSpaceOnUse"
       x1="538.57715"
       y1="701.51587"
       x2="782.89349"
       y2="603.04736"
       gradientTransform="matrix(1.77246,0,0,1.77246,-215.70419,-213.24486)">
      <stop
         offset="0"
         stop-color="#CCCBCC"
         id="stop21" />
      <stop
         offset="1"
         stop-color="#F1F1EF"
         id="stop22" />
    </linearGradient>
  </defs>
  <path
     fill="url(#gradient_3)"
     d="m 791.18425,977.62316 c 28.12894,-30.49163 58.82795,-59.01228 88.35713,-88.15507 L 1016.8485,752.51011 c 23.8999,11.46249 48.9767,20.51976 73.3675,30.86384 22.0955,9.371 44.3186,20.51091 67.038,28.10413 -3.4244,14.97374 -7.634,30.31793 -12.9036,44.74575 -9.9186,27.16118 -21.8296,54.67685 -36.1422,79.80324 -5.032,8.83748 -11.0548,17.27262 -16.7285,25.71485 -24.88,37.02314 -53.3102,71.68008 -87.501,100.56408 -14.70078,12.4196 -30.60506,23.1182 -46.64051,33.7051 -19.72925,13.0258 -38.68748,24.7878 -60.18565,34.7331 -27.73013,13.4689 -55.62156,23.6659 -85.38117,31.6703 -5.85443,1.574 -13.15165,4.3656 -19.256,3.7931 l -0.93055,-1.1947 c 0.51579,-13.7489 -0.52464,-27.7141 -0.63099,-41.4968 l -0.61327,-94.1087 c -0.10989,-16.6736 -1.94794,-35.40848 0.84369,-51.78424 z"
     id="path22"
     style="fill:url(#gradient_3);stroke-width:1.77246" />
  <path
     fill="#c5c6c6"
     d="m 712.16621,942.10661 c 0.20738,0.51755 0.42893,1.0298 0.62213,1.55267 1.63953,4.46483 -0.7976,9.33378 0.58314,13.73834 11.38806,3.52897 27.99246,2.29002 40.04519,2.29002 4.03767,-3.86219 10.20228,-11.3792 15.57283,-12.60574 q -6.98172,7.20682 -14.09282,14.28603 c -1.48001,12.93187 -0.88269,26.10479 -0.93232,39.10577 -1.45873,12.9939 -0.42362,26.9644 -0.70898,40.1214 -1.64839,-6.0263 -0.29423,-63.46468 -0.31018,-75.60604 -5.82431,-0.26232 -33.46405,0.88623 -37.53007,3.95436 -1.1716,0.88446 -1.7246,2.24571 -1.96389,3.66191 -0.98726,5.85443 -0.18079,13.03644 -0.18256,19.02381 -0.004,16.10456 0.31195,32.34026 -0.43425,48.42536 -1.13083,-8.9155 -0.55656,-17.7547 -0.57074,-26.7092 q -0.0319,-21.46447 -0.36158,-42.92719 -0.16129,-14.15841 0.2641,-28.3115 z"
     id="path23"
     style="stroke-width:1.77246" />
</svg>
