<?xml version="1.0" encoding="UTF-8" standalone="no"?>
<svg
   width="144.49986cm"
   height="36.781994cm"
   version="1.1"
   id="svg31"
   xmlns="http://www.w3.org/2000/svg"
   xmlns:svg="http://www.w3.org/2000/svg">
  <path
     fill="#2c4268"
     d="m 729.6905,1388.3483 c -18.68881,2.5435 -61.31293,2.1642 -80.17545,0.5689 -6.37199,-0.5388 -12.6146,-2.1659 -18.97241,-2.8572 -23.74033,-2.5824 -47.68449,-5.3953 -71.13768,-10.002 q -9.10336,-1.8167 -18.15709,-3.8692 -9.05372,-2.0525 -18.04896,-4.3426 -8.997,-2.2882 -17.9302,-4.8122 -8.9332,-2.5222 -17.79904,-5.2784 -8.86408,-2.7544 -17.65371,-5.741 -8.78962,-2.9866 -17.49949,-6.2018 -8.7081,-3.2153 -17.32934,-6.6556 -8.62302,-3.4403 -17.15033,-7.1058 -8.52907,-3.6654 -16.96067,-7.5524 -8.42982,-3.887 -16.75506,-7.9921 -8.32702,-4.105 -16.54237,-8.428 -8.21535,-4.3213 -16.3155,-8.8552 -8.10014,-4.5357 -16.07975,-9.2806 -7.97784,-4.7449 -15.82984,-9.6954 -7.852,-4.9522 -15.57284,-10.1065 -7.72083,-5.1561 -15.30342,-10.5107 -5.46449,-3.9473 -10.851,-7.9991 -5.3865,-4.0519 -10.69325,-8.2065 -5.30851,-4.1547 -10.5355,-8.4104 -5.22521,-4.2556 -10.37066,-8.6123 -5.14368,-4.355 -10.20228,-8.8092 -5.0586,-4.4542 -10.03213,-9.0041 -4.97175,-4.5516 -9.85487,-9.1973 -4.8849,-4.6438 -9.67941,-9.3834 -4.79273,-4.7377 -9.49507,-9.5677 -4.70056,-4.83 -9.30896,-9.7503 -4.60839,-4.9186 -9.1193,-9.9258 -4.51269,-5.0072 -8.92788,-10.0995 -4.4152,-5.094 -8.73114,-10.2714 -4.31594,-5.1755 -8.53262,-10.4362 -4.21669,-5.2589 -8.33057,-10.5975 -4.11388,-5.3405 -8.12318,-10.7571 -4.01108,-5.4166 -7.91581,-10.9113 -3.9065,-5.4928 -7.70488,-11.0619 -3.79838,-5.5673 -7.49042,-11.2073 -3.69026,-5.6399 -7.2724,-11.349 -3.58214,-5.7109 -7.054388,-11.4873 -3.47048,-5.7783 -6.83106,-11.6221 -3.35881,-5.8438 -6.60596,-11.7514 -3.24537,-5.9058 -6.37731,-11.8737 -3.13371,-5.9696 -6.15044,-11.996 -3.01672,-6.02813 -5.91647,-12.11303 -2.89974,-6.0848 -5.6825,-12.2229 -2.78277,-6.1398 -5.44677,-12.331 -2.66401,-6.1912 -5.20926,-12.4338 -2.54348,-6.2408 -4.96821,-12.5313 -2.42295,-6.2886 -4.72538,-12.6234 -2.30242,-6.3366 -4.48255,-12.7139 c -10.4841,-30.0184 -20.57472,-60.705 -25.54469,-92.2211 -23.04021,-146.1198 -8.9473804,-298.08343 57.29831,-431.82263 20.63321,-41.65635 47.090718,-81.66255 74.422048,-119.13767 16.34031,-22.40212 37.36346,-47.82097 57.14766,-67.15142 10.5355,-10.29445 21.959,-19.6424 32.95535,-29.4317 14.32856,-12.75462 28.37176,-26.36534 43.60074,-38.00508 18.75972,-14.3392 39.01362,-26.98393 59.26752,-39.07034 17.23717,-10.287357 34.28469,-20.736007 52.27516,-29.704657 41.98426,-20.93452 97.75649,-41.48619 143.41151,-52.21135 28.64118,-6.72826 58.35647,-10.9892503 87.58079,-14.1938603 15.25734,-1.67143 30.52708,-2.33433 45.7082,-4.74309997 0.23397,-0.0301 0.46616,-0.0762 0.7019,-0.0922 28.97263,-1.98338003 56.06291,1.48177997 84.70409,3.97207997 51.73988,4.49673 105.01998,13.3679003 154.44148,29.5699503 9.1211,2.99014 17.7938,7.03312 26.7926,10.32458 19.8444,7.26177 39.3964,14.58558 58.5922,23.47801 13.76131,6.37554 26.90061,14.08574 40.11071,21.5088 8.9084,5.00543 18.2333,9.40644 26.9521,14.723817 37.4485,22.8417 72.6939,50.14467 105.7254,78.94892 15.2609,13.30763 29.134,28.61105 42.7411,43.56706 70.7868,77.80036 113.3063,153.51454 145.8185,253.53091 15.3814,47.31582 26.9255,96.63097 30.3109,146.4176 2.2262,32.73379 4.1068,65.62534 2.9281,98.44598 -3.6637,102.1132 -33.2017,201.0768 -79.5799,291.55733 -17.7424,34.6144 -34.7527,60.3558 -57.6741,91.5564 -6.73,9.1619 -13.0648,19.0823 -20.6102,27.5848 -28.5596,32.1843 -58.679,64.3651 -91.466,92.2459 -54.2195,46.1035 -114.9174,80.0089 -179.62461,108.8007 -3.1727,1.4109 -5.7729,4.0749 -8.9421,5.4042 -6.8187,2.8608 -17.1627,5.3883 -24.7187,8.0435 -15.0074,5.2695 -30.1549,10.757 -45.476,15.0091 -47.1758,13.0897 -97.19465,19.9597 -146.01529,23.0704 z M 283.48788,443.13256 c -42.49296,59.80103 -70.46769,154.85097 -74.35647,227.99684 -1.8469,34.73313 1.14324,70.10434 5.37942,104.56983 14.47213,-4.36912 28.38417,-11.16118 42.34407,-16.96776 l 95.52673,-40.73645 c 0.65935,-33.94615 0.12761,-67.97739 0.35803,-101.93772 -25.47911,-9.03423 -48.25876,-29.13215 -59.88433,-53.66832 -4.82641,-10.18632 -7.82009,-20.40101 -9.06081,-31.58878 -0.4059,-3.66899 -0.094,-8.02215 -0.92523,-11.54758 3.46871,-27.09382 10.32635,-52.04651 29.71529,-72.30573 18.6711,-19.50769 44.24238,-29.0258 71.00475,-29.27927 26.51955,-0.24991 50.79693,8.89421 69.85974,27.43237 26.06934,-16.46438 52.41341,-32.92876 78.09104,-49.96919 17.46405,-11.59012 34.46903,-24.51844 52.93275,-34.50094 -0.2322,-32.18433 5.82253,-56.56274 28.02791,-80.99079 19.67785,-21.64528 47.32468,-33.29034 76.39302,-34.4832 q 2.5488,-0.0815 5.0976,-0.0372 2.55057,0.0425 5.09405,0.21093 2.54525,0.16838 5.0781,0.46084 2.53284,0.29068 5.04973,0.70721 2.51513,0.41475 5.0072,0.95358 2.49208,0.53883 4.9558,1.19818 2.46372,0.65936 4.89199,1.43747 2.42827,0.77988 4.814,1.67675 2.38751,0.89686 4.72893,1.90894 2.33964,1.01207 4.62789,2.13758 2.28825,1.12551 4.518,2.36269 2.22975,1.23541 4.39747,2.57893 2.16772,1.34353 4.26631,2.79163 2.0986,1.44809 4.12452,2.99722 2.02592,1.54913 3.97208,3.19575 1.94794,1.64662 3.81256,3.3854 c 26.77127,25.07676 34.45127,50.37508 35.53247,85.94658 25.0998,15.37964 49.2071,32.90041 73.8301,49.06347 18.4566,12.11476 37.7179,23.26708 56.6584,34.61614 10.6366,-9.03068 23.8751,-15.80325 37.0604,-20.21136 q 2.4425,-0.82951 4.9239,-1.53672 2.4814,-0.70544 4.9948,-1.28681 2.5151,-0.58136 5.0533,-1.03689 2.5399,-0.45375 5.0993,-0.78165 2.5595,-0.32613 5.1313,-0.52465 2.5736,-0.19851 5.1526,-0.26764 2.5789,-0.0691 5.15781,-0.009 2.5789,0.0603 5.1526,0.24991 2.5736,0.18966 5.133,0.50693 2.5612,0.31904 5.1011,0.76393 2.5418,0.44666 5.0569,1.01916 2.5169,0.57251 5.0001,1.26908 2.4832,0.69835 4.9292,1.52077 2.446,0.82065 4.8477,1.7636 2.4017,0.94295 4.7537,2.00465 2.3503,1.06171 4.6456,2.24039 c 23.2139,11.90207 42.7216,34.3556 50.462,59.32601 8.3784,27.03356 5.6878,54.65912 -7.6322,79.6898 -12.6093,23.69779 -35.0948,40.71518 -60.5012,48.54946 q 0.5388,30.87625 0.3137,61.75605 c -0.1223,13.25445 -0.8791,26.70388 0.032,39.92643 12.0474,7.47624 27.6504,11.87548 40.8357,17.40733 31.3602,13.15697 62.357,26.68616 94.045,39.01894 4.0412,-16.97663 5.1614,-34.95646 6.1469,-52.33898 2.9387,-51.80723 0.028,-101.52828 -14.8869,-151.39289 -8.2366,-27.53872 -17.0564,-54.75661 -29.0116,-80.95534 q -2.033,-4.39925 -4.1529,-8.75773 -2.1199,-4.35848 -4.3284,-8.67264 -2.2067,-4.31594 -4.5002,-8.5858 -2.2936,-4.26986 -4.6722,-8.49186 -2.3787,-4.22377 -4.8424,-8.39791 -2.4637,-4.17414 -5.009,-8.29689 -2.547,-4.12451 -5.1756,-8.19585 -2.6285,-4.07311 -5.3386,-8.09128 -2.7101,-4.01817 -5.4999,-7.98139 -2.7899,-3.96322 -5.6595,-7.86972 -2.8678,-3.9065 -5.8155,-7.75451 -2.9458,-3.84801 -5.9696,-7.63576 -3.0238,-3.78775 -6.1221,-7.51523 -3.0982,-3.72571 -6.2709,-7.38939 -3.1745,-3.66367 -6.4199,-7.26354 -3.2454,-3.59987 -6.5634,-7.13238 -3.3163,-3.53428 -6.7052,-6.99944 -3.3872,-3.46693 -6.8435,-6.86474 -3.4563,-3.39781 -6.9799,-6.72471 -3.5255,-3.32691 -7.1147,-6.58292 -3.591,-3.25601 -7.244,-6.43935 -3.6548,-3.18334 -7.37351,-6.294 -3.7186,-3.1089 -7.4975,-6.14335 -3.7789,-3.03445 -7.6198,-5.99091 -3.8391,-2.95824 -7.7368,-5.83849 -3.8976,-2.88024 -7.8537,-5.68073 -3.9562,-2.80049 -7.9655,-5.52299 -4.0111,-2.72072 -8.0753,-5.36169 -4.0643,-2.63919 -8.1817,-5.19685 -4.1156,-2.55943 -8.2845,-5.03379 -4.167,-2.47435 -8.3819,-4.8654 -4.2167,-2.39105 -8.4795,-4.69702 -5.1809,-2.74908 -10.4256,-5.37055 -5.2447,-2.62324 -10.5514,-5.11709 -5.3085,-2.49563 -10.6738,-4.86009 -5.367,-2.36446 -10.7889,-4.59953 -5.422,-2.2333 -10.8954,-4.33544 -5.4751,-2.10214 -10.9981,-4.07134 -5.5247,-1.9692 -11.0938,-3.8037 -5.5708,-1.83272 -11.1825,-3.53251 -5.6133,-1.69802 -11.2657,-3.25956 -5.6524,-1.56153 -11.342,-2.98659 -5.6878,-1.42506 -11.4093,-2.71009 -5.7215,-1.28681 -11.4731,-2.43359 -5.7499,-1.14678 -11.52635,-2.15354 -5.77822,-1.00676 -11.5777,-1.87349 -5.79949,-0.86673 -11.61848,-1.59344 -5.81899,-0.72494 -11.65392,-1.30985 -5.83494,-0.58491 -11.68229,-1.02803 -5.84734,-0.44134 -11.70532,-0.74266 -5.85621,-0.30132 -11.71774,-0.45906 -5.86152,-0.15953 -11.72659,-0.17548 -5.8633,-0.0177 -11.7266,0.10812 -5.8633,0.12585 -11.72128,0.39349 -5.85798,0.26764 -11.70709,0.67885 -5.85089,0.40944 -11.68938,0.96067 -5.83671,0.55124 -11.66101,1.24427 -5.82253,0.69303 -11.62734,1.52786 -5.80481,0.83306 -11.58657,1.80791 -5.78354,0.97485 -11.54049,2.08973 -5.75695,1.11311 -11.48554,2.36801 -5.72859,1.25313 -11.42528,2.64628 -5.69668,1.39138 -11.35792,2.92101 -5.66124,1.53141 -11.28348,3.19752 c -36.8459,11.17713 -74.61348,27.80104 -107.50502,47.88124 -61.08783,37.29255 -128.34028,100.9026 -162.55762,164.57291 z m -107.4997,310.76364 -0.005,-1.02626 c -0.14888,-11.46959 -2.10213,-22.87182 -2.56652,-34.33432 -0.98726,-24.28447 0.63986,-49.42505 2.86784,-73.60495 2.90684,-31.56042 10.07821,-60.91058 19.09826,-91.16825 5.41309,-18.15885 10.49828,-36.54103 17.57039,-54.14156 24.15509,-60.10412 69.37763,-125.13391 114.15706,-171.56704 21.83848,-22.64318 46.37465,-41.87969 72.26674,-59.61138 10.93962,-7.49218 21.8438,-15.33 33.23894,-22.1008 q 11.3597,-6.62368 23.03844,-12.666 11.67874,-6.04409 23.64639,-11.4944 11.96765,-5.44854 24.19408,-10.28913 12.22643,-4.84059 24.6815,-9.06082 12.45331,-4.22022 25.10513,-7.80946 12.65004,-3.58923 25.46493,-6.53683 12.81488,-2.94937 25.7627,-5.25003 12.94605,-2.30065 25.99313,-3.94726 c 14.62457,-1.82032 29.36612,-3.58392 44.11476,-3.82497 15.29987,-0.24992 31.07477,-1.06171 46.33387,-0.11876 q 9.0945,0.55478 18.16595,1.43392 9.06967,0.87914 18.10213,2.08087 9.03246,1.2035 18.01528,2.72604 8.9846,1.52432 17.90891,3.36768 8.9226,1.84513 17.776,4.00576 8.8517,2.16063 17.62,4.63675 8.7702,2.47613 17.4464,5.26421 8.6744,2.78631 17.246,5.88279 8.5698,3.09472 17.0245,6.4943 8.4546,3.39958 16.7816,7.0987 8.327,3.69912 16.5176,7.69248 8.1905,3.99335 16.2339,8.27738 8.0417,4.28404 15.9274,8.85167 7.8839,4.5694 15.5994,9.41531 7.7173,4.84768 15.2556,9.96654 7.5382,5.11886 14.8886,10.5036 c 18.57721,13.3998 36.69701,27.44654 53.17201,43.39691 42.7784,41.41707 76.9922,86.49605 104.9492,139.13811 7.5932,14.30021 15.0996,28.77766 21.1773,43.79926 4.3567,10.76769 7.4816,22.09548 10.9272,33.18045 q 3.2082,9.9754 6.0388,20.06602 2.8306,10.08884 5.2784,20.27871 2.4478,10.1881 4.5109,20.46305 2.0614,10.27318 3.7346,20.61903 1.6732,10.34408 2.9564,20.74487 1.2815,10.39903 2.1713,20.84059 0.8898,10.44156 1.3861,20.90971 0.4945,10.46637 0.5955,20.94516 c 0.2996,20.25922 -2.8661,41.81233 -5.4733,61.93507 -15.3425,118.43575 -63.3868,215.07385 -147.0291,300.10588 q -5.9147,5.9838 -12.0209,11.7744 -6.1061,5.7889 -12.3948,11.3775 -6.2904,5.5903 -12.7581,10.9733 -6.466,5.3829 -13.1038,10.555 -6.63791,5.1702 -13.43881,10.1242 -6.801,4.9541 -13.7596,9.6865 -6.9569,4.7325 -14.0645,9.2363 -7.1058,4.5039 -14.3552,8.7773 -7.2493,4.2716 -14.6334,8.3075 -7.3823,4.0359 -14.8922,7.8307 -7.5099,3.7966 -15.1386,7.3468 -7.6287,3.5503 -15.3672,6.8524 -7.7386,3.3021 -15.5817,6.3525 -7.8414,3.0504 -15.7784,5.8455 -7.9353,2.7952 -15.9593,5.3334 -8.0221,2.5381 -16.1223,4.814 c -23.556,6.5811 -47.78725,10.6773 -71.78458,15.2999 q -1.41265,-66.6463 -0.33145,-133.2979 l 0.23751,-46.6086 c 0.0248,-9.7273 0.51756,-19.9171 -0.64341,-29.5717 0.0496,-13.00103 -0.54769,-26.17393 0.93232,-39.10583 q 7.11111,-7.0792 14.09283,-14.286 c 10.95557,-6.466 29.35548,-29.7242 39.79878,-39.9247 l 88.9456,-87.9264 c 32.436,-31.6544 65.6307,-63.21304 96.2499,-96.61682 0.1134,-19.41375 -0.7568,-38.90372 -0.888,-58.32811 -0.099,-14.52709 0.9554,-29.9723 -0.7391,-44.37177 -4.3745,-1.98515 -10.2502,-2.12872 -14.9915,-3.06458 -14.4172,-2.8448 -27.8205,-8.35006 -39.5666,-17.23717 -18.2688,13.86063 -34.3875,32.40588 -50.6091,48.64871 -33.23,33.27261 -66.056,67.3003 -100.8512,98.92808 q 2.9512,4.70588 5.2252,9.77511 2.2741,5.06747 3.8286,10.4008 c 8.2366,27.51385 4.1599,61.41755 -9.5979,86.52085 -16.40765,29.9386 -42.48054,42.9343 -73.85485,51.9455 0.60263,12.0634 -0.45552,24.187 0.22687,36.2752 q -0.42539,14.1531 -0.26409,28.3115 c -1.57572,45.37853 -0.52288,91.07253 -0.52465,136.47763 l 0.18788,202.2856 c 142.93114,-3.5786 282.79244,-62.9915 389.08335,-157.8784 q 8.0026,-7.2777 15.7341,-14.8426 7.7315,-7.5648 15.1829,-15.4062 7.4496,-7.8431 14.6086,-15.9521 7.159,-8.109 14.0166,-16.475 6.8577,-8.3643 13.4051,-16.9749 6.5475,-8.6106 12.7759,-17.4534 6.2284,-8.8428 12.1307,-17.9089 5.9023,-9.0644 11.4679,-18.3397 c 13.538,-22.05653 26.6489,-43.98893 37.7977,-67.38893 34.2049,-71.7811 51.5715,-152.7222 55.7491,-231.84486 0.6435,-12.21579 0.1046,-24.66378 -0.062,-36.89375 q -0.1365,-6.9835 -0.4307,-13.96344 -0.296,-6.97818 -0.7497,-13.94926 -0.4556,-6.96932 -1.0688,-13.928 -0.6133,-6.95867 -1.3861,-13.89963 -0.7728,-6.94272 -1.7033,-13.86595 -0.9323,-6.92323 -2.0206,-13.82342 -1.0883,-6.89841 -2.3361,-13.77201 -1.2461,-6.8736 -2.6481,-13.7153 -1.4038,-6.84346 -2.9636,-13.65326 -1.5579,-6.80801 -3.2719,-13.57881 -1.7158,-6.77257 -3.5839,-13.5026 -1.8682,-6.73181 -3.8906,-13.41752 -2.0206,-6.68572 -4.1954,-13.32359 -2.1748,-6.63786 -4.5003,-13.22609 -2.3254,-6.58646 -4.7998,-13.11798 -2.4743,-6.53151 -5.0994,-13.00631 -2.6232,-6.47302 -5.3935,-12.88578 -2.7722,-6.41099 -5.6879,-12.75817 -2.9174,-6.34718 -5.9785,-12.62523 -3.061,-6.27983 -6.2656,-12.48699 -3.2029,-6.20715 -6.5475,-12.33809 -3.3446,-6.13271 -6.8293,-12.18743 -3.4846,-6.05473 -7.1058,-12.02792 -3.6211,-5.97142 -7.3787,-11.8613 -3.7576,-5.88811 -7.6482,-11.68937 -3.8905,-5.80127 -7.9123,-11.51213 -4.0217,-5.71087 -8.1728,-11.32957 -4.1528,-5.61692 -8.4316,-11.13813 -4.2787,-5.52122 -8.6832,-10.94317 -4.4028,-5.42196 -8.9297,-10.74111 -4.5269,-5.32092 -9.1742,-10.5355 -4.6474,-5.21458 -9.4118,-10.32281 c -14.8568,-16.20206 -31.8777,-30.93474 -48.5512,-45.219 q -4.9257,-4.24504 -9.9382,-8.38728 -5.0143,-4.14047 -10.1137,-8.17459 -5.0993,-4.03589 -10.2838,-7.96189 -5.1827,-3.92599 -10.4486,-7.7421 -5.2642,-3.81611 -10.6082,-7.52055 -5.344,-3.70444 -10.7659,-7.29722 -5.4202,-3.591 -10.9166,-7.06679 -5.4946,-3.47757 -11.0619,-6.83638 -5.5673,-3.36059 -11.20381,-6.60242 -5.6382,-3.24183 -11.3419,-6.3649 -5.7038,-3.12307 -11.4714,-6.12385 -5.7676,-3.00255 -11.599,-5.88279 -5.8296,-2.88025 -11.7195,-5.63643 -5.8899,-2.75617 -11.8347,-5.38828 -5.9466,-2.6321 -11.9464,-5.13836 -6.0015,-2.50626 -12.0527,-4.8849 -6.0512,-2.37864 -12.152,-4.62966 -6.1008,-2.2528 -12.2477,-4.37443 -6.1469,-2.12164 -12.3363,-4.11566 -6.1894,-1.99224 -12.4196,-3.85332 -6.2302,-1.86286 -12.4994,-3.59278 -6.2674,-1.72992 -12.5721,-3.32868 -6.3028,-1.596987 -12.6376,-3.062807 -6.3366,-1.46405 -12.7015,-2.79517 -6.3649,-1.33112 -12.7564,-2.52753 -6.3914,-1.19818 -12.806,-2.25988 -6.41627,-1.06171 -12.85207,-1.9887 -6.4358,-0.927 -12.8911,-1.71752 -6.45353,-0.79229 -12.92301,-1.44633 -6.46948,-0.65581 -12.95136,-1.17514 -6.48189,-0.51755 -12.97441,-0.90041 -6.49075,-0.38285 -12.98859,-0.62745 c -20.47368,-0.87736 -41.09448,0.30664 -61.51854,1.69802 -30.16549,2.05251 -60.52596,5.52298 -90.05337,12.16439 C 454.17078,119.53985 351.73145,177.61273 272.9527,250.24814 q -5.47513,5.13482 -10.82087,10.40257 -5.34751,5.26775 -10.56386,10.66489 -5.21635,5.39537 -10.29977,10.91836 -5.08341,5.52298 -10.02858,11.17004 -4.94693,5.64528 -9.75207,11.40932 -4.80691,5.76582 -9.47026,11.64684 -4.66334,5.88102 -9.18134,11.87548 -4.518,5.99269 -8.88888,12.09527 -4.37089,6.10258 -8.58935,12.30973 -4.22022,6.20716 -8.28625,12.51711 -4.06602,6.30819 -7.97607,12.71563 -3.91004,6.40745 -7.66234,12.90706 -3.7523,6.50138 -7.34508,13.09139 -3.591,6.59 -7.02071,13.26686 -3.42971,6.67686 -6.69458,13.43525 -3.26487,6.75839 -6.3649,13.59476 -3.09826,6.83638 -6.02814,13.7472 -2.92988,6.90905 -5.6896,13.889 -2.76149,6.97995 -5.34928,14.02548 -2.58779,7.04552 -5.00366,14.15309 -2.41586,7.10579 -4.65625,14.27007 -2.24039,7.16252 -4.30353,14.37997 -2.06492,7.21569 -3.950818,14.481 -1.88767,7.26531 -3.59632,14.57317 -1.70865,7.30962 -3.23651,14.65824 -1.52963,7.34685 -2.87847,14.73092 -1.34885,7.38406 -2.51512,14.79827 -1.16806,7.4142 -2.15354,14.85498 -0.98549,7.44079 -1.78842,14.90462 -0.80292,7.46206 -1.42328,14.94184 -0.62036,7.48155 -1.05639,14.97374 -0.43602,7.49396 -0.68948,14.99501 -0.24815,7.40002 -0.31727,14.80359 -0.0674,7.40356 0.0443,14.80713 0.11343,7.40356 0.40589,14.80181 0.29423,7.39825 0.76748,14.78763 0.47502,7.38939 1.12905,14.7646 0.65404,7.3752 1.4871,14.73091 0.83483,7.35748 1.84867,14.69192 1.01385,7.33448 2.20494,14.64228 1.19287,7.3079 2.56298,14.5838 1.37011,7.276 2.91924,14.5165 1.54736,7.2405 3.27019,14.442 1.7246,7.1997 3.62468,14.3569 1.898308,7.1554 3.972078,14.2648 2.07378,7.1075 4.31949,14.1619 2.24748,7.0562 4.66511,14.0538 2.41764,6.9977 5.0072,13.9351 2.58779,6.9374 5.34397,13.8093 2.75795,6.8718 5.68073,13.6745 2.92456,6.8027 6.01396,13.5309 3.0894,6.7283 6.34186,13.3803 3.25247,6.6521 6.66623,13.2226 3.41375,6.5687 6.98703,13.0542 3.57328,6.4854 7.30431,12.88043 3.72926,6.3968 7.61626,12.6979 3.88523,6.3029 7.9229,12.5101 4.03943,6.2053 8.22776,12.3097 4.18832,6.1061 8.52553,12.1077 4.33721,6.0015 8.81799,11.8949 4.48255,5.8935 9.1069,11.6752 4.62434,5.7836 9.38872,11.4501 4.76437,5.6684 9.66522,11.2179 4.90085,5.5496 9.93641,10.9786 5.1685,5.6099 10.47347,11.0903 5.30497,5.4805 10.74288,10.8298 5.43968,5.3475 11.00698,10.5603 5.56906,5.2128 11.26398,10.2873 5.69491,5.0746 11.51213,10.0073 5.81898,4.9328 11.75672,9.722 5.93774,4.7874 11.9907,9.4277 6.05472,4.6403 12.22111,9.1317 6.16461,4.4897 12.44089,8.8269 6.27451,4.3354 12.6536,8.5184 6.37908,4.1812 12.85919,8.203 6.48189,4.0234 13.05949,7.8856 6.5776,3.8622 13.24736,7.5613 6.67154,3.6992 13.42993,7.2335 6.76017,3.5342 13.60541,6.9019 6.84346,3.3659 13.76847,6.5634 6.92677,3.1976 13.92799,6.2231 7.00121,3.0256 14.07687,5.8775 7.07389,2.8537 14.21513,5.5301 7.14302,2.6782 14.34807,5.1791 7.20682,2.501 14.47213,4.8229 7.26532,2.3237 14.58558,4.4666 7.32026,2.1447 14.69192,4.1068 7.36989,1.9621 14.78763,3.7434 7.41597,1.7813 14.87449,3.3783 7.45851,1.597 14.95424,3.0114 7.49573,1.4127 15.02514,2.641 7.52764,1.2301 15.08364,2.2723 7.556,1.044 15.13503,1.9001 7.57904,0.8561 15.17758,1.5261 7.59854,0.6699 15.21125,1.1538 7.61272,0.4821 15.23429,0.7781 c -1.22299,-80.9004 1.30985,-161.7937 0.48389,-242.6763 -0.2641,-25.7291 0.51046,-51.926 -1.17869,-77.58063 0.22156,-27.046 1.01562,-54.294 0.69126,-81.3222 -30.81599,-8.4104 -58.6312,-23.5631 -74.9786,-52.222 -13.58414,-23.8183 -18.81644,-55.0562 -11.4111,-81.72816 2.21026,-7.96012 5.76758,-15.57638 9.04841,-23.14124 -12.37886,-14.35161 -26.39016,-27.4554 -39.5879,-41.0679 -36.58889,-37.73921 -74.39723,-74.45927 -110.66354,-112.45727 -19.12307,15.74477 -31.81743,18.7739 -55.89098,22.15575 1.12197,33.43037 -0.14357,66.98304 0.1418,100.43291 29.89254,35.21346 64.46969,67.15673 97.09713,99.80191 q 71.58257,72.2809 143.96984,143.7571 l 0.0496,28.5668 c -2.13936,17.01563 -1.03689,45.69043 -1.0174,63.52673 l 0.0603,97.285 c 0.0142,18.3698 0.57605,36.9328 -0.20384,55.2795 -0.34563,0.1152 -0.6753,0.3084 -1.03866,0.3439 -6.49075,0.6398 -27.51212,-4.1263 -34.82884,-5.656 -68.50203,-14.3268 -138.8102,-41.5517 -195.55196,-83.1602 -65.41973,-47.9734 -112.19495,-97.5491 -153.71128,-167.36283 -8.51313,-14.3162 -17.45341,-28.9886 -24.40146,-44.1165 -6.26564,-13.6409 -11.50503,-28.347 -16.56895,-42.4788 -7.37698,-20.5907 -15.19885,-42.3742 -18.53639,-64.0673 -4.56408,-14.94543 -6.92677,-31.48071 -8.96333,-46.96137 z M 691.70137,280.7575 c -20.86185,1.82918 -40.701,8.2827 -54.63431,24.78253 -12.32568,14.59267 -18.43535,35.17624 -16.77279,54.14511 1.71752,19.59277 11.38806,38.97994 26.65603,51.49528 13.21723,10.83505 28.923,14.87803 45.70465,15.46117 20.57472,-2.08796 39.71197,-9.36568 53.13835,-25.72371 12.0031,-14.62457 19.29323,-34.46194 17.20705,-53.4698 C 760.94429,328.69899 750.9742,308.28557 736.043,296.48631 723.60919,286.66156 707.40359,281.5746 691.70137,280.7575 Z m 97.74052,116.11385 c -12.7936,27.27107 -32.5069,47.45585 -61.12504,57.78929 -5.57084,2.00997 -11.32779,3.60695 -17.01562,5.26066 l -0.52819,234.04625 c 17.42683,1.8345 40.2313,10.11543 52.86539,22.65559 15.10313,-11.76914 29.43706,-25.48798 42.78006,-39.221 35.1213,-35.23119 70.9747,-69.62577 106.5497,-104.38194 -13.8943,-25.20616 -18.859,-55.31139 -10.8758,-83.33044 1.6218,-5.69314 4.0589,-11.07433 6.7672,-16.32258 q -41.4631,-28.07045 -83.8639,-54.70343 c -10.9946,-7.00654 -23.5152,-16.98726 -35.5538,-21.7924 z M 592.238,398.11916 c -27.42527,17.26022 -54.43224,35.36412 -81.46048,53.24293 -11.83472,7.82718 -25.17425,14.72205 -36.07488,23.81477 10.74465,27.95879 14.20449,55.83781 1.64838,83.83559 -1.72814,3.8551 -3.85687,7.54004 -5.95901,11.20194 20.47901,17.95502 38.28691,38.30109 57.24869,57.77157 17.27971,17.74409 35.28259,34.77212 52.3886,52.697 11.85067,13.81633 25.37808,26.06048 37.71263,39.41951 15.79262,-15.01982 33.58812,-24.58224 55.22631,-27.6681 l -0.16661,-130.6108 c 0.11344,-33.66256 0.95358,-67.6867 -0.23042,-101.31559 -31.45585,-9.62091 -46.66887,-16.22155 -67.81787,-43.40045 -4.1511,-5.33511 -8.07532,-14.7965 -12.51534,-18.98837 z m 93.76137,329.18127 c -18.64983,2.30066 -35.69026,9.57306 -47.48421,24.65315 -12.9106,16.51047 -19.40666,37.02489 -16.67885,57.91869 2.46727,18.9139 13.57173,36.798 28.7883,48.1365 13.88545,10.3458 30.53417,14.8549 47.69867,13.9953 18.58247,-1.2939 36.41874,-11.0566 48.55831,-25.0608 12.5313,-14.4562 18.2014,-33.3772 16.75152,-52.3319 -1.46937,-19.21346 -11.28702,-36.88843 -25.81765,-49.36832 -12.9425,-11.1151 -34.25456,-18.46549 -51.23118,-17.99756 -0.19497,0.005 -0.38994,0.0372 -0.58491,0.0549 z m -319.93258,23.56663 c -17.49418,8.46173 -35.92776,15.04996 -53.79771,22.68926 -19.80192,8.46527 -39.09692,17.89295 -58.73577,26.69505 -9.67764,4.3372 -19.9065,7.7137 -29.33599,12.5632 8.24903,26.3671 17.20172,52.7413 28.6979,77.889 31.15276,68.1564 80.56362,132.52323 139.3189,179.28613 27.92688,22.2266 58.12783,40.6513 89.67407,57.2575 q 4.17946,2.1872 8.43336,4.222 c 34.01351,15.0517 66.63387,26.1261 102.76901,34.8324 1.11133,-62.7735 0.4183,-125.6355 0.68062,-188.41963 -21.07277,-22.6822 -219.78681,-224.63449 -225.94788,-226.9316 -0.54946,-0.20383 -1.1716,-0.0549 -1.75651,-0.0833 z m 650.78171,1.64307 -137.30711,136.95794 c -29.5292,29.1428 -60.2282,57.6635 -88.3572,88.1551 -2.7916,16.3758 -0.9535,35.11073 -0.8436,51.78423 l 0.6132,94.1088 c 0.1064,13.7826 1.1468,27.7478 0.631,41.4968 l 0.9306,1.1946 c 6.1043,0.5725 13.4015,-2.2191 19.256,-3.793 29.7596,-8.0044 57.651,-18.2014 85.3811,-31.6703 21.4982,-9.9453 40.4564,-21.7074 60.1857,-34.7332 16.0354,-10.5869 31.9397,-21.2854 46.64051,-33.7051 34.1908,-28.884 62.621,-63.54093 87.501,-100.56403 5.6737,-8.4423 11.6965,-16.8774 16.7285,-25.7149 14.3126,-25.1264 26.2236,-52.642 36.1422,-79.8032 5.2696,-14.4278 9.4792,-29.772 12.9036,-44.7458 -22.7194,-7.5932 -44.9425,-18.7331 -67.038,-28.10409 -24.3909,-10.34408 -49.4676,-19.40135 -73.3675,-30.86385 z"
     id="path10"
     style="stroke-width:1.77246" />
  <defs
     id="defs11">
    <linearGradient
       id="gradient_0"
       gradientUnits="userSpaceOnUse"
       x1="488.62427"
       y1="857.04407"
       x2="534.77094"
       y2="167.98694"
       gradientTransform="matrix(1.77246,0,0,1.77246,-215.70421,-213.24483)">
      <stop
         offset="0"
         stop-color="#3DAADA"
         id="stop10" />
      <stop
         offset="1"
         stop-color="#5BCCE8"
         id="stop11" />
    </linearGradient>
  </defs>
  <path
     fill="url(#gradient_0)"
     d="m 754.70169,1209.952 c 23.99733,-4.6226 48.2286,-8.7188 71.7846,-15.2999 q 8.1002,-2.2759 16.1223,-4.814 8.024,-2.5382 15.9593,-5.3334 7.937,-2.7951 15.7784,-5.8455 7.8431,-3.0504 15.5817,-6.3525 7.7385,-3.3021 15.3672,-6.8524 7.6287,-3.5502 15.1386,-7.345 7.5099,-3.7966 14.8922,-7.8325 7.3841,-4.0359 14.6334,-8.3075 7.2476,-4.2734 14.3552,-8.7773 7.1076,-4.5038 14.0645,-9.2363 6.9586,-4.7307 13.7596,-9.6865 6.8009,-4.954 13.43881,-10.1242 6.6378,-5.1721 13.1038,-10.555 6.4677,-5.383 12.7564,-10.9733 6.2904,-5.5886 12.3965,-11.3775 6.1062,-5.7906 12.0209,-11.7744 c 83.6423,-85.03203 131.6866,-181.67013 147.0291,-300.10588 2.6072,-20.12274 5.7729,-41.67585 5.4733,-61.93507 q -0.101,-10.47879 -0.5955,-20.94516 -0.4963,-10.46815 -1.3861,-20.90971 -0.8898,-10.44156 -2.1713,-20.84059 -1.2832,-10.40079 -2.9564,-20.74487 -1.6732,-10.34585 -3.7346,-20.61903 -2.0631,-10.27495 -4.5109,-20.46305 -2.4478,-10.18987 -5.2784,-20.27871 -2.8306,-10.09062 -6.0388,-20.06602 c -3.4456,-11.08497 -6.5705,-22.41276 -10.9272,-33.18045 -6.0777,-15.0216 -13.5841,-29.49905 -21.1773,-43.79926 -27.957,-52.64206 -62.1708,-97.72104 -104.9492,-139.13811 -16.475,-15.95037 -34.5948,-29.99711 -53.17201,-43.39691 q -7.3504,-5.38474 -14.8886,-10.5036 -7.5383,-5.11886 -15.2556,-9.96654 -7.7155,-4.84591 -15.5994,-9.41531 -7.8857,-4.56763 -15.9274,-8.85167 -8.0434,-4.28403 -16.2339,-8.27738 -8.1906,-3.99336 -16.5176,-7.69248 -8.327,-3.69912 -16.7816,-7.0987 -8.4547,-3.39958 -17.0245,-6.4943 -8.5716,-3.09648 -17.246,-5.88279 -8.6762,-2.78808 -17.4464,-5.26421 -8.7683,-2.47612 -17.62,-4.63675 -8.8534,-2.16063 -17.776,-4.00576 -8.92433,-1.84336 -17.90893,-3.36768 -8.98282,-1.52254 -18.01528,-2.72604 -9.03246,-1.20173 -18.10213,-2.08087 -9.07145,-0.87914 -18.16595,-1.43392 c -15.2591,-0.94295 -31.034,-0.13116 -46.33387,0.11876 -14.74864,0.24105 -29.49019,2.00465 -44.11476,3.82497 q -13.04708,1.64661 -25.99313,3.94726 -12.94782,2.30066 -25.7627,5.25003 -12.81489,2.9476 -25.46493,6.53683 -12.65182,3.58924 -25.10513,7.80946 -12.45507,4.22023 -24.6815,9.06082 -12.22643,4.84059 -24.19408,10.28913 -11.96765,5.45031 -23.64639,11.4944 -11.67874,6.04232 -23.03844,12.666 c -11.39514,6.7708 -22.29932,14.60862 -33.23894,22.1008 -25.89209,17.73169 -50.42826,36.9682 -72.26674,59.61138 -44.77943,46.43313 -90.00197,111.46292 -114.15706,171.56704 -7.07211,17.60053 -12.1573,35.98271 -17.57039,54.14156 -9.02005,30.25767 -16.19142,59.60783 -19.09826,91.16825 -2.22798,24.1799 -3.8551,49.32048 -2.86784,73.60495 0.46439,11.4625 2.41764,22.86473 2.56652,34.33432 l 0.005,1.02626 c 2.03656,15.48066 4.39925,32.01594 8.96333,46.96137 3.33754,21.6931 11.15941,43.4766 18.53639,64.0673 5.06392,14.1318 10.30331,28.8379 16.56895,42.4788 6.94805,15.1279 15.88833,29.8003 24.40146,44.1165 41.51633,69.81373 88.29155,119.38943 153.71128,167.36283 56.74176,41.6085 127.04993,68.8334 195.55196,83.1602 7.31672,1.5297 28.33809,6.2958 34.82884,5.656 0.36336,-0.035 0.69303,-0.2287 1.03866,-0.3439 0.77989,-18.3467 0.21802,-36.9097 0.20384,-55.2795 l -0.0603,-97.285 c -0.0195,-17.8363 -1.12196,-46.5111 1.0174,-63.52673 1.14855,-4.1653 0.79406,-8.6869 0.79583,-12.9815 l 5.98737,-0.016 c 4.61017,2.4052 8.92434,5.5248 13.67985,7.6305 6.92145,3.0663 12.8202,0.9394 19.48465,-1.4712 l 1.03157,0.5424 -1.09538,4.3443 1.65016,-0.8242 c 1.68915,25.65463 0.91459,51.85153 1.17869,77.58063 0.82596,80.8826 -1.70688,161.7759 -0.48389,242.6763 q -7.62157,-0.296 -15.23429,-0.7781 -7.61271,-0.4839 -15.21125,-1.1538 -7.59854,-0.67 -15.17758,-1.5261 -7.57903,-0.8561 -15.13503,-1.9001 -7.556,-1.0422 -15.08364,-2.2723 -7.52941,-1.2283 -15.02514,-2.641 -7.49573,-1.4144 -14.95424,-3.0114 -7.45852,-1.597 -14.87449,-3.3783 -7.41774,-1.7813 -14.78763,-3.7434 -7.37166,-1.9621 -14.69192,-4.1068 -7.32026,-2.1429 -14.58558,-4.4648 -7.26531,-2.3237 -14.47213,-4.8247 -7.20505,-2.5009 -14.34807,-5.1791 -7.14124,-2.6764 -14.21513,-5.5301 -7.07566,-2.8519 -14.07687,-5.8775 -7.00122,-3.0255 -13.92799,-6.2231 -6.92501,-3.1975 -13.76847,-6.5634 -6.84524,-3.3677 -13.60541,-6.9019 -6.75839,-3.5343 -13.42993,-7.2335 -6.66976,-3.6991 -13.24736,-7.5613 -6.5776,-3.8622 -13.05949,-7.8856 -6.48011,-4.0218 -12.85919,-8.203 -6.37909,-4.1812 -12.65537,-8.5184 -6.27451,-4.3372 -12.43912,-8.8269 -6.16639,-4.4914 -12.22111,-9.1317 -6.05296,-4.6403 -11.9907,-9.4277 -5.93774,-4.7892 -11.75672,-9.722 -5.81722,-4.9327 -11.51213,-10.0073 -5.69492,-5.0745 -11.26398,-10.2873 -5.5673,-5.2128 -11.00698,-10.5603 -5.43791,-5.3493 -10.74288,-10.8298 -5.30497,-5.4804 -10.47347,-11.0903 -5.03556,-5.429 -9.93641,-10.9786 -4.90085,-5.5495 -9.66522,-11.2179 -4.76438,-5.6665 -9.38872,-11.4501 -4.62435,-5.7817 -9.1069,-11.6752 -4.48078,-5.8934 -8.81799,-11.8949 -4.33721,-6.0016 -8.52553,-12.1077 -4.18833,-6.1044 -8.22776,-12.3097 -4.03767,-6.2072 -7.9229,-12.5101 -3.887,-6.3011 -7.61626,-12.6979 -3.73103,-6.39503 -7.30431,-12.88043 -3.57328,-6.4855 -6.98703,-13.0542 -3.41376,-6.5705 -6.66623,-13.2226 -3.25246,-6.652 -6.34186,-13.3803 -3.0894,-6.7282 -6.01396,-13.5309 -2.92278,-6.8027 -5.68073,-13.6745 -2.75618,-6.8719 -5.34397,-13.8093 -2.58956,-6.9374 -5.0072,-13.9351 -2.41763,-6.9976 -4.66511,-14.0538 -2.24571,-7.0544 -4.31949,-14.1619 -2.07377,-7.1094 -3.972078,-14.2648 -1.90008,-7.1572 -3.62468,-14.3569 -1.72283,-7.2015 -3.27019,-14.442 -1.54913,-7.2405 -2.91924,-14.5165 -1.37011,-7.2759 -2.56298,-14.5838 -1.19109,-7.3078 -2.20494,-14.64228 -1.01384,-7.33444 -1.84867,-14.69192 -0.83306,-7.35571 -1.4871,-14.73091 -0.65403,-7.37521 -1.12905,-14.7646 -0.47325,-7.38938 -0.76748,-14.78763 -0.29246,-7.39825 -0.40589,-14.80181 -0.11167,-7.40357 -0.0443,-14.80713 0.0691,-7.40357 0.31727,-14.80359 0.25346,-7.50105 0.68948,-14.99501 0.43603,-7.49219 1.05639,-14.97374 0.62036,-7.47978 1.42328,-14.94184 0.80293,-7.46383 1.78842,-14.90462 0.98548,-7.44078 2.15354,-14.85498 1.16627,-7.41421 2.51512,-14.79827 1.34884,-7.38407 2.87847,-14.73092 1.52786,-7.34862 3.23651,-14.65824 1.70865,-7.30786 3.59632,-14.57317 1.885898,-7.26531 3.950818,-14.481 2.06314,-7.21745 4.30353,-14.37997 2.24039,-7.16428 4.65625,-14.27007 2.41587,-7.10757 5.00366,-14.15309 2.58779,-7.04553 5.34928,-14.02548 2.75972,-6.97995 5.6896,-13.889 2.92988,-6.91082 6.02814,-13.7472 3.10003,-6.83637 6.3649,-13.59476 3.26487,-6.75839 6.69458,-13.43525 3.42971,-6.67686 7.02071,-13.26686 3.59278,-6.59001 7.34508,-13.09139 3.7523,-6.49961 7.66234,-12.90706 3.91005,-6.40744 7.97607,-12.71563 4.06603,-6.30995 8.28625,-12.51711 4.21846,-6.20715 8.58935,-12.30973 4.37088,-6.10258 8.88888,-12.09527 4.518,-5.99446 9.18134,-11.87548 4.66335,-5.88102 9.47026,-11.64684 4.80514,-5.76404 9.75207,-11.40932 4.94517,-5.64706 10.02858,-11.17004 5.08342,-5.52299 10.29977,-10.91836 5.21635,-5.39714 10.56386,-10.66489 5.34574,-5.26775 10.82087,-10.40257 c 78.77875,-72.63541 181.21808,-130.70829 286.16544,-154.312137 29.52741,-6.64141 59.88788,-10.11188 90.05337,-12.16439 20.42406,-1.39138 41.04486,-2.57538 61.51854,-1.69802 q 6.49784,0.2446 12.98859,0.62745 6.49252,0.38286 12.97441,0.90041 6.48188,0.51933 12.95136,1.17514 6.46948,0.65404 12.92301,1.44633 6.4553,0.79052 12.8911,1.71752 6.4358,0.92699 12.85213,1.9887 6.4146,1.0617 12.806,2.25988 6.3915,1.19641 12.7564,2.52753 6.3649,1.33112 12.7015,2.79517 6.3348,1.46582 12.6376,3.062807 6.3047,1.59876 12.5721,3.32868 6.2692,1.72992 12.4994,3.59278 6.2302,1.86108 12.4196,3.85332 6.1894,1.99225 12.3363,4.11566 6.1469,2.12163 12.2477,4.37443 6.1008,2.25102 12.152,4.62966 6.0512,2.37864 12.0527,4.8849 5.9998,2.50626 11.9464,5.13836 5.9448,2.63211 11.8347,5.38828 5.8899,2.75618 11.7195,5.63643 5.8314,2.88024 11.599,5.88279 5.7676,3.00078 11.4714,6.12385 5.7037,3.12307 11.3419,6.3649 5.63651,3.24183 11.20381,6.60242 5.5673,3.35881 11.0619,6.83638 5.4964,3.47579 10.9166,7.06679 5.4219,3.59278 10.7659,7.29722 5.344,3.70444 10.6082,7.52055 5.2659,3.81611 10.4486,7.7421 5.1845,3.926 10.2838,7.96189 5.0994,4.03412 10.1137,8.17459 5.0125,4.14224 9.9382,8.38728 c 16.6735,14.28426 33.6944,29.01694 48.5512,45.219 q 4.7644,5.10823 9.4118,10.32281 4.6473,5.21458 9.1742,10.5355 4.5269,5.31915 8.9297,10.74111 4.4045,5.42195 8.6832,10.94317 4.2788,5.52121 8.4316,11.13813 4.1511,5.6187 8.1728,11.32957 4.0218,5.71086 7.9123,11.51213 3.8906,5.80126 7.6482,11.68937 3.7576,5.88988 7.3787,11.86307 3.6212,5.97142 7.1058,12.02615 3.4847,6.05472 6.8293,12.18743 3.3446,6.13094 6.5475,12.33809 3.2046,6.20716 6.2656,12.48699 3.0611,6.27805 5.9785,12.62523 2.9157,6.34718 5.6879,12.75817 2.7703,6.41276 5.3935,12.88578 2.6251,6.4748 5.0994,13.00631 2.4744,6.53152 4.7998,13.11798 2.3255,6.58823 4.5003,13.22609 2.1748,6.63787 4.1954,13.32359 2.0224,6.68571 3.8906,13.41752 1.8681,6.73003 3.5839,13.5026 1.714,6.7708 3.2719,13.57881 1.5598,6.8098 2.9636,13.65326 1.402,6.8417 2.6481,13.7153 1.2478,6.8736 2.3361,13.77201 1.0883,6.90019 2.0206,13.82342 0.9305,6.92323 1.7033,13.86595 0.7728,6.94096 1.3861,13.89963 0.6132,6.95868 1.0688,13.928 0.4537,6.97108 0.7497,13.94926 0.2942,6.97994 0.4307,13.96344 c 0.1666,12.22997 0.7055,24.67796 0.062,36.89375 -4.1776,79.12266 -21.5442,160.06376 -55.7491,231.84486 -11.1488,23.4 -24.2597,45.3324 -37.7977,67.38893 q -5.5656,9.2753 -11.4679,18.3397 -5.9023,9.0661 -12.1307,17.9089 -6.2284,8.8428 -12.7759,17.4534 -6.5474,8.6106 -13.4051,16.9749 -6.8576,8.366 -14.0166,16.475 -7.159,8.109 -14.6086,15.9521 -7.4514,7.8414 -15.1829,15.4062 -7.7315,7.5649 -15.7341,14.8426 c -106.29091,94.8869 -246.15221,154.2998 -389.08341,157.8784 l -0.18788,-202.2856 c 0.002,-45.4051 -1.05107,-91.0991 0.52465,-136.47763 q 0.32967,21.4627 0.36158,42.92723 c 0.0142,8.9544 -0.5601,17.7937 0.57073,26.7092 0.74621,-16.0851 0.43071,-32.3208 0.43425,-48.42543 0.002,-5.9874 -0.80469,-13.1694 0.18257,-19.0238 0.23928,-1.4162 0.79229,-2.7775 1.96388,-3.6619 4.06603,-3.0681 31.70577,-4.2167 37.53007,-3.9544 0.0159,12.1414 -1.33821,69.57973 0.31018,75.60613 0.28537,-13.157 -0.74975,-27.1275 0.70898,-40.1214 1.16097,9.6546 0.66822,19.8444 0.64341,29.5717 l -0.23751,46.6086 q -1.0812,66.6516 0.33145,133.2979 z"
     id="path11"
     style="fill:url(#gradient_0);stroke-width:1.77246" />
  <defs
     id="defs13">
    <linearGradient
       id="gradient_1"
       gradientUnits="userSpaceOnUse"
       x1="403.08145"
       y1="534.10596"
       x2="711.38446"
       y2="323.75085"
       gradientTransform="matrix(1.77246,0,0,1.77246,-215.70421,-213.24483)">
      <stop
         offset="0"
         stop-color="#CFCFCE"
         id="stop12" />
      <stop
         offset="1"
         stop-color="white"
         id="stop13" />
    </linearGradient>
  </defs>
  <path
     fill="url(#gradient_1)"
     d="M 283.48788,443.13256 C 317.70522,379.46225 384.95767,315.8522 446.0455,278.55965 c 32.89154,-20.0802 70.65912,-36.70411 107.50502,-47.88124 q 5.62224,-1.66611 11.28348,-3.19752 5.66124,-1.52963 11.35792,-2.92101 5.69669,-1.39315 11.42528,-2.64628 5.72859,-1.2549 11.48554,-2.36801 5.75695,-1.11488 11.54049,-2.08973 5.78176,-0.97485 11.58657,-1.80791 5.80481,-0.83483 11.62734,-1.52786 5.8243,-0.69303 11.66101,-1.24427 5.83849,-0.55123 11.68938,-0.96067 5.84911,-0.41121 11.70709,-0.67885 5.85798,-0.26764 11.72128,-0.39349 5.8633,-0.12584 11.7266,-0.10812 5.86507,0.016 11.72659,0.17548 5.86153,0.15774 11.71774,0.45906 5.85798,0.30132 11.70532,0.74266 5.84735,0.44312 11.68229,1.02803 5.83493,0.58491 11.65392,1.30985 5.81899,0.72671 11.61848,1.59344 5.79948,0.86673 11.5777,1.87349 5.77645,1.00676 11.52635,2.15354 5.7516,1.14678 11.4731,2.43359 5.7215,1.28503 11.4093,2.71009 5.6896,1.42506 11.342,2.98659 5.6524,1.56154 11.2657,3.25956 5.6117,1.69979 11.1825,3.53251 5.5691,1.8345 11.0938,3.8037 5.523,1.9692 10.9981,4.07134 5.4734,2.10214 10.8954,4.33544 5.4219,2.23507 10.7889,4.59953 5.3653,2.36446 10.6738,4.86009 5.3067,2.49385 10.5514,5.11709 5.2447,2.62147 10.4256,5.37055 4.2628,2.30597 8.4795,4.69702 4.2149,2.39105 8.3819,4.8654 4.1689,2.47436 8.2845,5.03379 4.1174,2.55766 8.1817,5.19685 4.0642,2.64097 8.0753,5.36169 4.0093,2.7225 7.9655,5.52299 3.9561,2.80049 7.8537,5.68073 3.8977,2.88025 7.7368,5.83849 3.8409,2.95646 7.6198,5.99091 3.7789,3.03445 7.4975,6.14335 3.71871,3.11066 7.37351,6.294 3.653,3.18334 7.244,6.43935 3.5892,3.25601 7.1147,6.58292 3.5236,3.3269 6.9799,6.72471 3.4563,3.39781 6.8435,6.86474 3.3889,3.46516 6.7052,6.99944 3.318,3.53251 6.5634,7.13238 3.2454,3.59987 6.4199,7.26354 3.1727,3.66368 6.2709,7.38939 3.0983,3.72748 6.1221,7.51523 3.0238,3.78775 5.9696,7.63576 2.9477,3.84801 5.8155,7.75451 2.8696,3.9065 5.6595,7.86972 2.7898,3.96322 5.4999,7.98139 2.7101,4.01817 5.3386,8.09128 2.6286,4.07134 5.1756,8.19585 2.5453,4.12275 5.009,8.29689 2.4637,4.17414 4.8424,8.39791 2.3786,4.222 4.6722,8.49186 2.2935,4.26986 4.5002,8.5858 2.2085,4.31416 4.3284,8.67264 2.1199,4.35848 4.1529,8.75773 c 11.9552,26.19873 20.775,53.41662 29.0116,80.95534 14.9152,49.86461 17.8256,99.58566 14.8869,151.39289 -0.9855,17.38252 -2.1057,35.36235 -6.1469,52.33898 -31.688,-12.33278 -62.6848,-25.86197 -94.045,-39.01894 -13.1853,-5.53185 -28.7883,-9.93109 -40.8357,-17.40733 -0.911,-13.22255 -0.1542,-26.67198 -0.032,-39.92643 q 0.2251,-30.8798 -0.3137,-61.75605 c 25.4064,-7.83428 47.8919,-24.85167 60.5012,-48.54946 13.32,-25.03068 16.0106,-52.65624 7.6322,-79.6898 -7.7404,-24.97041 -27.2481,-47.42394 -50.462,-59.32601 q -2.2953,-1.17868 -4.6456,-2.24039 -2.352,-1.0617 -4.7537,-2.00465 -2.4017,-0.94295 -4.8477,-1.7636 -2.446,-0.82242 -4.9292,-1.52077 -2.4832,-0.69657 -5.0001,-1.26908 -2.5151,-0.5725 -5.0569,-1.01916 -2.5399,-0.44489 -5.1011,-0.76393 -2.5594,-0.31727 -5.133,-0.50693 -2.5737,-0.18965 -5.1526,-0.24991 -2.57891,-0.0603 -5.15781,0.009 -2.579,0.0691 -5.1526,0.26764 -2.5718,0.19852 -5.1313,0.52465 -2.5594,0.3279 -5.0993,0.78165 -2.5382,0.45553 -5.0533,1.03689 -2.5134,0.58137 -4.9948,1.28681 -2.4814,0.70721 -4.9239,1.53672 c -13.1853,4.40811 -26.4238,11.18068 -37.0604,20.21136 -18.9405,-11.34906 -38.2018,-22.50138 -56.6584,-34.61614 -24.623,-16.16306 -48.7303,-33.68383 -73.8301,-49.06347 -1.0812,-35.5715 -8.7612,-60.86982 -35.53247,-85.94658 q -1.86462,-1.73878 -3.81256,-3.3854 -1.94616,-1.64662 -3.97208,-3.19575 -2.02592,-1.54913 -4.12452,-2.99722 -2.09859,-1.4481 -4.26631,-2.79163 -2.16772,-1.34352 -4.39747,-2.57893 -2.22975,-1.23718 -4.518,-2.36269 -2.28825,-1.12551 -4.62789,-2.13758 -2.34142,-1.01208 -4.72893,-1.90894 -2.38573,-0.89687 -4.814,-1.67675 -2.42827,-0.77811 -4.89199,-1.43747 -2.46372,-0.65935 -4.9558,-1.19818 -2.49207,-0.53883 -5.0072,-0.95358 -2.51689,-0.41653 -5.04973,-0.70721 -2.53285,-0.29246 -5.0781,-0.46084 -2.54348,-0.16839 -5.09405,-0.21093 -2.5488,-0.0443 -5.0976,0.0372 c -29.06834,1.19286 -56.71517,12.83792 -76.39302,34.4832 -22.20538,24.42805 -28.26011,48.80646 -28.02791,80.99079 -18.46372,9.9825 -35.4687,22.91082 -52.93275,34.50094 -25.67763,17.04043 -52.0217,33.50481 -78.09104,49.96919 -19.06281,-18.53816 -43.34019,-27.68228 -69.85974,-27.43237 -26.76237,0.25347 -52.33365,9.77158 -71.00475,29.27927 -19.38894,20.25922 -26.24658,45.21191 -29.71529,72.30573 -2.39105,-15.03046 5.00366,-36.37619 11.85244,-49.58988 2.72959,-5.26598 6.30287,-9.98604 9.30364,-15.08186 0.27828,-0.47325 1.59876,-2.78808 1.62358,-3.29323 0.062,-1.33112 -5.83849,-11.52099 -6.63255,-14.88512 -0.79406,-3.36059 -1.24604,-6.33832 -4.25036,-8.32525 -5.06569,3.09649 -5.61338,12.25479 -11.27816,15.05528 z"
     id="path13"
     style="fill:url(#gradient_1);stroke-width:1.77246" />
  <path
     fill="#7ccdf4"
     d="m 692.65495,426.64159 c -16.78165,-0.58314 -32.48742,-4.62612 -45.70465,-15.46117 -15.26797,-12.51534 -24.93851,-31.90251 -26.65603,-51.49528 -1.66256,-18.96887 4.44711,-39.55244 16.77279,-54.14511 13.93331,-16.49983 33.77246,-22.95335 54.63431,-24.78253 15.70222,0.8171 31.90782,5.90406 44.34163,15.72881 14.9312,11.79926 24.90129,32.21268 26.95735,50.96177 2.08618,19.00786 -5.20395,38.84523 -17.20705,53.4698 -13.42638,16.35803 -32.56363,23.63575 -53.13835,25.72371 z"
     id="path14"
     style="stroke-width:1.77246" />
  <path
     fill="#ebebeb"
     d="m 711.30123,459.9213 c 5.68783,-1.65371 11.44478,-3.25069 17.01562,-5.26066 28.61814,-10.33344 48.33144,-30.51822 61.12504,-57.78929 12.0386,4.80514 24.5592,14.78586 35.5538,21.7924 q 42.4008,26.63298 83.8639,54.70343 c -2.7083,5.24825 -5.1454,10.62944 -6.7672,16.32258 -7.9832,28.01905 -3.0185,58.12428 10.8758,83.33044 -35.575,34.75617 -71.4284,69.15075 -106.5497,104.38194 -13.343,13.73302 -27.67693,27.45186 -42.78006,39.221 -12.63409,-12.54016 -35.43856,-20.82109 -52.86539,-22.65559 z"
     id="path15"
     style="stroke-width:1.77246" />
  <path
     fill="#ebebeb"
     d="m 474.70264,475.17686 c 10.90063,-9.09272 24.24016,-15.98759 36.07488,-23.81477 27.02824,-17.87881 54.03521,-35.98271 81.46048,-53.24293 4.44002,4.19187 8.36424,13.65326 12.51534,18.98837 21.149,27.1789 36.36202,33.77954 67.81787,43.40045 1.184,33.62889 0.34386,67.65303 0.23042,101.31559 l 0.16661,130.6108 c -21.63819,3.08586 -39.43369,12.64828 -55.22631,27.6681 -12.33455,-13.35903 -25.86196,-25.60318 -37.71263,-39.41951 -17.10601,-17.92488 -35.10889,-34.95291 -52.3886,-52.697 -18.96178,-19.47048 -36.76968,-39.81655 -57.24869,-57.77157 2.10214,-3.6619 4.23087,-7.34684 5.95901,-11.20194 12.55611,-27.99778 9.09627,-55.8768 -1.64838,-83.83559 z"
     id="path16"
     style="stroke-width:1.77246" />
  <path
     fill="#c5c6c6"
     d="m 214.51083,775.69923 c -4.23618,-34.46549 -7.22632,-69.8367 -5.37942,-104.56983 3.88878,-73.14587 31.86351,-168.19581 74.35647,-227.99684 5.66478,-2.80049 6.21247,-11.95879 11.27816,-15.05528 3.00432,1.98693 3.4563,4.96466 4.25036,8.32525 0.79406,3.36413 6.69458,13.554 6.63255,14.88512 -0.0248,0.50515 -1.3453,2.81998 -1.62358,3.29323 -3.00077,5.09582 -6.57405,9.81588 -9.30364,15.08186 -6.84878,13.21369 -14.24349,34.55942 -11.85244,49.58988 0.83128,3.52543 0.51933,7.87859 0.92523,11.54758 1.24072,11.18777 4.2344,21.40246 9.06081,31.58878 11.62557,24.53617 34.40522,44.63409 59.88433,53.66832 -0.23042,33.96033 0.30132,67.99157 -0.35803,101.93772 l -95.52673,40.73645 c -13.9599,5.80658 -27.87194,12.59864 -42.34407,16.96776 z"
     id="path17"
     style="stroke-width:1.77246" />
  <path
     fill="#c5c6c6"
     d="m 672.28407,988.48837 -1.65016,0.8242 1.09538,-4.3443 -1.03157,-0.5424 c -6.66445,2.4106 -12.5632,4.5375 -19.48465,1.4712 -4.75551,-2.1057 -9.06968,-5.2253 -13.67985,-7.6305 l -5.98737,0.016 c -0.002,4.2946 0.35272,8.8162 -0.79583,12.9815 l -0.0496,-28.5668 q -72.3873,-71.4762 -143.96987,-143.7571 c -32.62744,-32.64518 -67.20459,-64.58845 -97.09713,-99.80191 -0.28537,-33.44987 0.98017,-67.00254 -0.1418,-100.43291 24.07355,-3.38185 36.76791,-6.41098 55.89098,-22.15575 36.26631,37.998 74.07465,74.71806 110.66354,112.45727 13.19774,13.6125 27.20904,26.71629 39.5879,41.0679 -3.28083,7.56486 -6.83815,15.18112 -9.04841,23.14124 -7.40534,26.67196 -2.17304,57.90986 11.4111,81.72816 16.3474,28.6589 44.16261,43.8116 74.9786,52.222 0.32436,27.0282 -0.4697,54.2762 -0.69126,81.3222 z"
     id="path18"
     style="stroke-width:1.77246" />
  <defs
     id="defs19">
    <linearGradient
       id="gradient_2"
       gradientUnits="userSpaceOnUse"
       x1="507.33875"
       y1="641.74823"
       x2="689.13544"
       y2="480.21893"
       gradientTransform="matrix(1.77246,0,0,1.77246,-215.70421,-213.24483)">
      <stop
         offset="0"
         stop-color="#C5CBCF"
         id="stop18" />
      <stop
         offset="1"
         stop-color="#F6F3F0"
         id="stop19" />
    </linearGradient>
  </defs>
  <path
     fill="url(#gradient_2)"
     d="m 712.16619,942.10667 c -0.68239,-12.0882 0.37576,-24.2118 -0.22687,-36.2752 31.37431,-9.0112 57.4472,-22.0069 73.85487,-51.9455 13.7578,-25.1033 17.8345,-59.007 9.5979,-86.52085 q -1.5545,-5.33333 -3.8286,-10.4008 -2.274,-5.06923 -5.2252,-9.77511 c 34.7952,-31.62778 67.6212,-65.65547 100.8512,-98.92808 16.2216,-16.24283 32.3403,-34.78808 50.6091,-48.64871 11.7461,8.88711 25.1494,14.39237 39.5666,17.23717 4.7413,0.93586 10.617,1.07943 14.9915,3.06458 1.6945,14.39947 0.6398,29.84468 0.7391,44.37177 0.1312,19.42439 1.0014,38.91436 0.888,58.32811 -30.6192,33.40378 -63.8139,64.96242 -96.2499,96.61682 l -88.9456,87.9264 c -10.4433,10.2005 -28.84323,33.4587 -39.7988,39.9247 -5.37056,1.2265 -11.53517,8.7435 -15.57284,12.6057 -12.05272,0 -28.65713,1.2389 -40.04518,-2.29 -1.38075,-4.4046 1.05638,-9.2735 -0.58314,-13.7384 -0.1932,-0.5228 -0.41476,-1.0351 -0.62214,-1.5526 z"
     id="path19"
     style="fill:url(#gradient_2);stroke-width:1.77246" />
  <path
     fill="#7ccdf4"
     d="m 698.32328,872.00407 c -17.1645,0.8596 -33.81322,-3.6495 -47.69867,-13.9953 -15.21657,-11.3385 -26.32103,-29.2226 -28.7883,-48.1365 -2.72781,-20.8938 3.76825,-41.40822 16.67885,-57.91869 11.79395,-15.08009 28.83438,-22.35249 47.48421,-24.65315 0.19497,-0.0177 0.38994,-0.0496 0.58491,-0.0549 16.97662,-0.46793 38.28868,6.88246 51.23118,17.99756 14.53063,12.47989 24.34828,30.15486 25.81765,49.36828 1.44988,18.9547 -4.22022,37.8757 -16.75152,52.3319 -12.13957,14.0042 -29.97584,23.7669 -48.55831,25.0608 z"
     id="path20"
     style="stroke-width:1.77246" />
  <path
     fill="#c5c6c6"
     d="m 224.19732,812.81457 c 9.42949,-4.8495 19.65835,-8.226 29.33599,-12.5632 19.63885,-8.8021 38.93385,-18.22978 58.73577,-26.69505 17.86995,-7.6393 36.30353,-14.22753 53.79771,-22.68926 0.58491,0.0284 1.20705,-0.12052 1.75651,0.0833 6.16107,2.29711 204.87511,204.24941 225.94788,226.93161 -0.26232,62.78413 0.43071,125.64613 -0.68062,188.41963 -36.13514,-8.7063 -68.7555,-19.7807 -102.76901,-34.8324 q -4.2539,-2.0348 -8.43336,-4.222 c -31.54624,-16.6062 -61.74719,-35.0309 -89.67407,-57.2575 -58.75528,-46.7629 -108.16614,-111.12973 -139.3189,-179.28613 -11.49618,-25.1477 -20.44887,-51.5219 -28.6979,-77.889 z"
     id="path21"
     style="stroke-width:1.77246" />
  <defs
     id="defs22">
    <linearGradient
       id="gradient_3"
       gradientUnits="userSpaceOnUse"
       x1="538.57715"
       y1="701.51587"
       x2="782.89349"
       y2="603.04736"
       gradientTransform="matrix(1.77246,0,0,1.77246,-215.70421,-213.24483)">
      <stop
         offset="0"
         stop-color="#CCCBCC"
         id="stop21" />
      <stop
         offset="1"
         stop-color="#F1F1EF"
         id="stop22" />
    </linearGradient>
  </defs>
  <path
     fill="url(#gradient_3)"
     d="m 791.18419,977.62317 c 28.129,-30.4916 58.828,-59.0123 88.3572,-88.1551 L 1016.8485,752.51013 c 23.8999,11.4625 48.9766,20.51977 73.3675,30.86385 22.0955,9.37099 44.3186,20.51089 67.038,28.10409 -3.4244,14.9738 -7.634,30.318 -12.9036,44.7458 -9.9186,27.1612 -21.8296,54.6768 -36.1422,79.8032 -5.032,8.8375 -11.0548,17.2726 -16.7285,25.7149 -24.88,37.0231 -53.3102,71.68003 -87.501,100.56403 -14.70081,12.4197 -30.60511,23.1182 -46.64051,33.7051 -19.7293,13.0258 -38.6875,24.7879 -60.1857,34.7332 -27.7301,13.4689 -55.6215,23.6659 -85.3811,31.6703 -5.8545,1.5739 -13.1517,4.3655 -19.256,3.793 l -0.9306,-1.1946 c 0.5158,-13.749 -0.5246,-27.7142 -0.631,-41.4968 l -0.6132,-94.1088 c -0.1099,-16.6735 -1.948,-35.40843 0.8436,-51.78423 z"
     id="path22"
     style="fill:url(#gradient_3);stroke-width:1.77246" />
  <path
     fill="#c5c6c6"
     d="m 712.16619,942.10667 c 0.20738,0.5175 0.42894,1.0298 0.62214,1.5526 1.63952,4.4649 -0.79761,9.3338 0.58314,13.7384 11.38805,3.5289 27.99246,2.29 40.04518,2.29 4.03767,-3.8622 10.20228,-11.3792 15.57284,-12.6057 q -6.98172,7.2068 -14.09283,14.286 c -1.48001,12.9319 -0.88269,26.1048 -0.93232,39.10583 -1.45873,12.9939 -0.42361,26.9644 -0.70898,40.1214 -1.64839,-6.0264 -0.29423,-63.46473 -0.31018,-75.60613 -5.8243,-0.2623 -33.46404,0.8863 -37.53007,3.9544 -1.17159,0.8844 -1.7246,2.2457 -1.96388,3.6619 -0.98726,5.8544 -0.18079,13.0364 -0.18257,19.0238 -0.004,16.10463 0.31196,32.34033 -0.43425,48.42543 -1.13083,-8.9155 -0.55655,-17.7548 -0.57073,-26.7092 q -0.0319,-21.46453 -0.36158,-42.92723 -0.1613,-14.1584 0.26409,-28.3115 z"
     id="path23"
     style="stroke-width:1.77246" />
  <path
     d="M 2094.8948,394.81225 V 513.41173 H 1896.9023 V 1029.9566 H 1757.7194 V 513.41173 H 1554.8261 V 394.81225 Z m 352.8576,179.36947 q 67.6311,0 101.9368,33.32547 34.3056,33.32547 34.3056,98.0161 V 1029.9566 H 2450.6929 V 745.70989 q 0,-27.44451 -5.881,-42.14692 -4.9008,-15.68258 -17.6429,-22.5437 -12.742,-6.86113 -36.2659,-6.86113 -42.1469,0 -91.155,28.42467 V 1029.9566 H 2166.4462 V 355.60581 l 133.3019,-12.74209 v 273.46492 q 68.6113,-42.14692 148.0043,-42.14692 z m 313.652,-50.96838 q -22.5437,0 -42.147,-10.78177 -19.6032,-11.76193 -31.3651,-30.38499 -11.7619,-18.62306 -11.7619,-41.16676 0,-22.5437 11.7619,-41.16676 11.7619,-19.60322 31.3651,-30.385 19.6033,-11.76193 42.147,-11.76193 23.5238,0 43.127,11.76193 20.5834,10.78178 32.3454,30.385 11.7619,18.62306 11.7619,41.16676 0,22.5437 -11.7619,41.16676 -11.762,18.62306 -32.3454,30.38499 -19.6032,10.78177 -43.127,10.78177 z m -64.6907,506.74326 V 591.82461 l 133.3019,-12.74209 v 450.87408 z m 533.208,-455.77488 q 67.6311,0 101.9368,34.30563 34.3056,33.32548 34.3056,98.0161 V 1029.9566 H 3232.8622 V 745.70989 q 0,-27.44451 -5.8809,-42.14692 -4.9008,-15.68258 -17.6429,-22.5437 -12.7421,-6.86113 -36.266,-6.86113 -39.2064,0 -92.1351,31.36515 V 1029.9566 H 2947.6354 V 591.82461 l 133.3019,-12.74209 v 43.12709 q 36.2659,-22.54371 72.5319,-35.2858 37.2461,-12.74209 76.4525,-12.74209 z m 512.6241,365.60005 q 58.8096,4.9008 98.0161,17.6429 40.1866,12.7421 61.7501,39.2064 22.5437,25.48423 22.5437,68.61133 0,49.0081 -31.3652,85.274 -30.3849,36.266 -88.2144,55.8692 -56.8494,19.6032 -134.2821,19.6032 -99.9764,0 -164.6671,-31.3651 -64.6906,-30.385 -64.6906,-94.0955 0,-36.2659 18.6231,-61.7501 18.623,-24.5041 49.9882,-42.14703 -26.4644,-21.5635 -26.4644,-52.9287 0,-19.6032 11.762,-38.2262 12.7421,-18.6231 41.1667,-38.2263 -40.1866,-20.5834 -60.7699,-53.9089 -19.6033,-34.3056 -19.6033,-76.45253 0,-55.86917 30.385,-92.13513 30.385,-36.26596 80.3732,-52.9287 49.9882,-17.64289 109.7781,-17.64289 34.3056,0 56.8493,4.9008 l 154.8654,-65.67079 38.2263,102.91691 -92.1351,21.56354 q 49.9882,38.22628 49.9882,102.91691 0,53.90888 -30.385,88.21448 -30.385,33.3255 -79.393,49.0081 -49.0081,15.6825 -106.8376,15.6825 -26.4643,0 -49.9882,-2.9404 -5.881,9.8016 -5.881,16.6627 0,7.8413 4.9008,12.7421 5.881,4.9008 19.6033,8.8214 14.7024,2.9405 41.1667,4.9008 z M 3670.994,669.25733 q -80.3732,0 -80.3732,66.65095 0,33.32548 20.5834,49.00805 21.5635,14.70244 62.7303,14.70244 41.1667,0 58.8096,-15.6826 18.6231,-16.66273 18.6231,-48.02789 0,-32.34531 -20.5834,-49.00805 -20.5834,-17.6429 -59.7898,-17.6429 z m 1.9603,463.61617 q 50.9684,0 78.4129,-12.7421 28.4247,-12.7421 28.4247,-35.2858 0,-13.7222 -8.8215,-21.5635 -7.8413,-7.8413 -28.4246,-12.7421 -19.6033,-4.9008 -56.8494,-8.8215 l -56.8493,-4.9008 q -14.7024,-0.9801 -42.147,-6.8611 -8.8214,13.7223 -13.7222,27.4445 -4.9008,13.7223 -4.9008,24.504 0,25.4842 22.5437,38.2263 22.5437,12.7421 82.3335,12.7421 z M 4061.098,523.21334 q -22.5437,0 -42.147,-10.78177 -19.6032,-11.76193 -31.3651,-30.38499 -11.7619,-18.62306 -11.7619,-41.16676 0,-22.5437 11.7619,-41.16676 11.7619,-19.60322 31.3651,-30.385 19.6033,-11.76193 42.147,-11.76193 23.5238,0 43.1271,11.76193 20.5833,10.78178 32.3453,30.385 11.7619,18.62306 11.7619,41.16676 0,22.5437 -11.7619,41.16676 -11.762,18.62306 -32.3453,30.38499 -19.6033,10.78177 -43.1271,10.78177 z m -64.6907,506.74326 V 591.82461 l 133.3019,-12.74209 v 450.87408 z m 662.5895,-450.87408 v 450.87408 h -113.6986 l -10.7818,-35.28583 q -75.4724,49.00813 -154.8654,49.00813 -65.6708,0 -101.9368,-36.266 -35.2858,-36.26593 -35.2858,-99.97643 V 591.82461 l 133.3019,-12.74209 v 289.14745 q 0,39.2065 12.7421,56.8494 12.7421,16.6627 46.0676,16.6627 35.2858,0 91.1549,-30.385 V 591.82461 Z m 657.6887,-4.9008 q 61.7502,0 94.0955,34.30563 33.3255,33.32548 33.3255,97.03594 V 1029.9566 H 5310.8046 V 745.70989 q 0,-39.20644 -11.762,-54.88901 -10.7817,-16.66274 -37.2461,-16.66274 -35.2858,0 -84.2938,28.42467 v 2.94048 324.43331 H 5044.2008 V 745.70989 q 0,-39.20644 -11.762,-54.88901 -10.7817,-16.66274 -37.2461,-16.66274 -38.2263,0 -85.274,28.42467 V 1029.9566 H 4776.6168 V 591.82461 l 133.3019,-12.74209 v 38.22628 q 67.6311,-43.12708 140.163,-43.12708 74.4923,0 106.8376,49.00805 39.2064,-23.52387 78.4129,-36.26596 39.2064,-12.74209 81.3533,-12.74209 z"
     id="text31"
     style="font-weight:bold;font-size:980.161px;font-family:Dubai;-inkscape-font-specification:'Dubai Bold';fill:#41aedc;stroke:#2c4268;stroke-width:34.6113"
     aria-label="Thingium" />
</svg>
