<?xml version="1.0" encoding="utf-8"?>
<!-- Generator: Adobe Illustrator 19.1.0, SVG Export Plug-In . SVG Version: 6.00 Build 0)  -->
<svg version="1.1" id="Layer_1" xmlns="http://www.w3.org/2000/svg" xmlns:xlink="http://www.w3.org/1999/xlink" x="0px" y="0px"
	 viewBox="-73.4 343.7 291.1 168" style="enable-background:new -73.4 343.7 291.1 168;" xml:space="preserve">
<style type="text/css">
	.st0{fill:url(#SVGID_1_);}
	.st1{fill:url(#SVGID_2_);}
	.st2{fill:url(#SVGID_3_);}
</style>
<g>
	<g>
		
			<linearGradient id="SVGID_1_" gradientUnits="userSpaceOnUse" x1="-51.8392" y1="425.7" x2="84.8293" y2="425.7" gradientTransform="matrix(1 0 0 1 0 2)">
			<stop  offset="5.110838e-02" style="stop-color:#8BC53F"/>
			<stop  offset="0.9802" style="stop-color:#009345"/>
		</linearGradient>
		<path class="st0" d="M-33.4,494.7c-15.1-18.4-2.4-64.7,28.5-103.4c29.6-37.1,65.1-53.8,81.3-38.8c-0.2-0.2-0.3-0.4-0.4-0.6
			c-16.4-19.9-56.7-2.1-90.1,39.7c-33.4,41.9-47.2,92-30.9,111.9c16.4,19.9,56.7,2.1,90.1-39.7c0.3-0.4,0.6-0.8,0.9-1.1
			C16,498-18.9,512.4-33.4,494.7z"/>
	</g>
</g>
<g>
	<g>
		
			<linearGradient id="SVGID_2_" gradientUnits="userSpaceOnUse" x1="-73.3935" y1="402.378" x2="22.2361" y2="402.378" gradientTransform="matrix(1 0 0 1 0 2)">
			<stop  offset="5.110838e-02" style="stop-color:#8BC53F"/>
			<stop  offset="0.9802" style="stop-color:#009345"/>
		</linearGradient>
		<path class="st1" d="M-5,377.8c-23.8-29-52.4-41-63.7-26.8c-11.3,14.2-1.2,49.3,22.6,78.3c0.2,0.3,0.4,0.5,0.7,0.8
			c-20.1-26.1-28.3-56.4-18.3-69c10.5-13.1,36.8-2.1,58.9,24.8c21.1,25.7,30.6,56.6,22.1,70.7c0.1-0.1,0.2-0.3,0.3-0.4
			C28.9,441.9,18.8,406.8-5,377.8z"/>
	</g>
</g>
<linearGradient id="SVGID_3_" gradientUnits="userSpaceOnUse" x1="33.8893" y1="403.001" x2="217.7446" y2="403.001">
	<stop  offset="5.110838e-02" style="stop-color:#8BC53F"/>
	<stop  offset="0.9802" style="stop-color:#009345"/>
</linearGradient>
<path class="st2" d="M45.5,369c1.1-0.2,2.3-0.4,3.6-0.5c1.3-0.1,2.5-0.2,3.7-0.3c1.1-0.1,2.1-0.1,3-0.1c0.5,0,1.1,0,2,0s1.8,0,2.9,0
	c3.2,0,6.1,0.5,8.7,1.5c2.6,1,4.9,2.5,6.7,4.6c1.9,2.1,3.3,4.7,4.3,8c1,3.2,1.5,7.1,1.5,11.6c0,2.9-0.2,5.9-0.6,9.2
	c-0.4,3.3-1.1,6.6-2,9.9c-0.9,3.3-2.2,6.5-3.9,9.5c-1.7,3-3.7,5.7-6.2,8.1c-2.5,2.3-5.5,4.2-9,5.6c-3.5,1.4-7.5,2.1-12.2,2.1
	c-0.8,0-1.6,0-2.4,0c-0.8,0-1.3,0-1.7,0c-1-0.1-2.2-0.1-3.5-0.2c-1.3-0.1-2.6-0.2-3.9-0.3c-1.3-0.1-2.2-0.2-2.9-0.3L45.5,369z
	 M46,425.9c0.2,0.1,0.5,0.1,1,0.1c0.4,0,0.9,0.1,1.5,0.1c0.5,0,1,0,1.5,0s0.8,0,1.1,0c3.7,0,6.8-1,9.4-3.1c2.6-2,4.7-4.6,6.3-7.7
	c1.6-3.1,2.8-6.4,3.5-10c0.7-3.6,1.1-6.9,1.1-10.1c0-5.2-0.9-9.1-2.6-11.7c-1.8-2.6-4.7-3.9-8.8-3.9c-1,0-2.2,0-3.3,0.1
	c-1.2,0.1-2,0.2-2.7,0.3L46,425.9z M109.5,422h-16L86.9,437H76.1l30.6-68.5h7.6l7.2,68.5h-10.3L109.5,422z M97.9,411.3h11.2
	l-1.3-15.2l0.1-10.7h-0.4l-3.1,10.8L97.9,411.3z M164.3,382.7c-1-0.8-2.5-1.6-4.4-2.4c-1.9-0.8-4.1-1.2-6.5-1.2
	c-1.2,0-2.4,0.1-3.5,0.4c-1.2,0.3-2.2,0.8-3.1,1.4c-0.9,0.7-1.6,1.5-2.1,2.5c-0.5,1-0.8,2.3-0.8,3.7c0,1.9,0.5,3.5,1.4,4.8
	c0.9,1.3,2.1,2.5,3.6,3.7c1.4,1.1,3,2.3,4.6,3.5c1.7,1.2,3.2,2.5,4.6,4.1c1.4,1.6,2.6,3.4,3.6,5.6c0.9,2.2,1.4,4.8,1.4,8
	c0,3.8-0.5,7.1-1.6,9.9c-1.1,2.8-2.6,5-4.6,6.8c-2,1.7-4.3,3-7.1,3.8c-2.8,0.8-5.8,1.2-9.2,1.2c-1.8,0-3.6-0.1-5.2-0.4
	c-1.7-0.3-3.2-0.6-4.6-1s-2.7-0.8-3.7-1.3c-1.1-0.5-1.9-1-2.6-1.4l5.3-11.3c0.5,0.4,1.2,0.8,2,1.3c0.8,0.5,1.8,0.9,2.9,1.3
	c1.1,0.4,2.2,0.7,3.5,1c1.3,0.3,2.5,0.4,3.8,0.4c1.5,0,2.9-0.1,4.2-0.4c1.3-0.3,2.5-0.8,3.4-1.5c1-0.7,1.7-1.5,2.3-2.6
	c0.6-1,0.8-2.3,0.8-3.9c0-1.8-0.5-3.3-1.4-4.5c-0.9-1.2-2.1-2.4-3.6-3.5c-1.4-1.1-3-2.3-4.6-3.5c-1.7-1.2-3.2-2.6-4.6-4.2
	c-1.4-1.6-2.6-3.6-3.6-5.9c-0.9-2.3-1.4-5.1-1.4-8.4c0-3.8,0.5-7,1.6-9.6c1.1-2.7,2.5-4.8,4.4-6.5c1.8-1.7,4-2.9,6.5-3.7
	c2.5-0.8,5.1-1.2,7.9-1.2c1.5,0,3,0.1,4.6,0.3c1.5,0.2,3,0.5,4.3,0.8c1.4,0.4,2.6,0.8,3.8,1.3c1.2,0.5,2.1,1,2.9,1.6L164.3,382.7z
	 M200.8,408.5h-19.1l-4.9,28.5h-10.2l11.6-68h10.2l-4.7,27.7h19.1l4.7-27.7h10.2l-11.6,68h-10.2L200.8,408.5z"/>
</svg>
