<?xml version="1.0" encoding="utf-8"?>
<!-- Generator: Adobe Illustrator 16.0.3, SVG Export Plug-In . SVG Version: 6.00 Build 0)  -->
<!DOCTYPE svg PUBLIC "-//W3C//DTD SVG 1.1//EN" "http://www.w3.org/Graphics/SVG/1.1/DTD/svg11.dtd">
<svg version="1.1" id="Layer_1" xmlns="http://www.w3.org/2000/svg" xmlns:xlink="http://www.w3.org/1999/xlink" x="0px" y="0px"
	 width="45px" height="45px" viewBox="0 0 45 45" enable-background="new 0 0 45 45" xml:space="preserve">
<g>
	<g>
		<path fill="#0891D1" d="M23.272,42.645c-11.107,0-20.145-9.037-20.145-20.145c0-11.108,9.038-20.145,20.145-20.145
			S43.417,11.392,43.417,22.5C43.417,33.607,34.38,42.645,23.272,42.645z M23.272,5.345c-9.46,0-17.155,7.695-17.155,17.155
			c0,9.46,7.695,17.155,17.155,17.155c9.459,0,17.154-7.695,17.154-17.155C40.427,13.041,32.731,5.345,23.272,5.345z"/>
	</g>
	<g>
		<circle fill="#0891D1" cx="39.904" cy="14.338" r="4.969"/>
	</g>
	<g>
		<path fill="#0891D1" d="M33.368,41.244c2.593,0.896,5.423-0.479,6.321-3.073c0.898-2.591-0.479-5.423-3.072-6.32
			c-2.593-0.898-5.424,0.478-6.321,3.071C29.399,37.517,30.774,40.346,33.368,41.244z"/>
	</g>
	<g>
		<path fill="#0891D1" d="M25.253,29.711c2.593,0.896,5.423-0.479,6.321-3.072c0.898-2.59-0.48-5.422-3.072-6.32
			c-2.593-0.898-5.424,0.479-6.321,3.072C21.284,25.985,22.66,28.815,25.253,29.711z"/>
	</g>
	<g>
		<path fill="#0891D1" d="M3.471,31.634c2.593,0.896,5.423-0.479,6.321-3.073c0.897-2.591-0.479-5.422-3.072-6.32
			c-2.593-0.897-5.424,0.479-6.321,3.072C-0.497,27.907,0.878,30.736,3.471,31.634z"/>
	</g>
	<g>
		
			<rect x="31.984" y="11.299" transform="matrix(0.6325 0.7746 -0.7746 0.6325 27.4731 -18.7345)" fill="#0891D1" width="2.989" height="16.568"/>
	</g>
	<g>
		<circle fill="#0891D1" cx="35.181" cy="36.734" r="3.843"/>
	</g>
	<g>
		
			<rect x="23.999" y="29.325" transform="matrix(0.5634 0.8262 -0.8262 0.5634 39.0643 -12.2766)" fill="#0891D1" width="14.296" height="2.99"/>
	</g>
	<g>
		<circle fill="#0891D1" cx="27.05" cy="25.039" r="3.843"/>
	</g>
	<g>
		<path fill="#0891D1" d="M7.366,23.57c-1.929-1.149-4.427-0.519-5.579,1.412c-1.149,1.93-0.52,4.429,1.412,5.578
			c1.93,1.153,4.43,0.519,5.58-1.412C9.93,27.218,9.298,24.721,7.366,23.57z"/>
	</g>
	<g>
		
			<rect x="14.819" y="14.856" transform="matrix(0.102 0.9948 -0.9948 0.102 40.4495 7.0618)" fill="#0891D1" width="2.988" height="22.156"/>
	</g>
</g>
</svg>
